<?xml version="1.0" standalone="no"?>
<!DOCTYPE svg PUBLIC "-//W3C//DTD SVG 1.1//EN" "http://www.w3.org/Graphics/SVG/1.1/DTD/svg11.dtd" >
<svg xmlns="http://www.w3.org/2000/svg">
<metadata>
Created by FontPrep 20130207 at Mon Sep  2 21:07:46 2013
 By Filip
CZ-3.0, 1993 Adobe Systems Inc., 2003 Quentin spol. s r.o.
</metadata>
<defs>
<font id="fb212eac8baac98755ff4c96a894a70b" >
  <font-face
    font-family="OfficinaSansCE-Bold"
    font-weight="700"
    font-stretch="normal"
    units-per-em="2048"
    panose-1="0 0 0 0 0 0 0 0 0 0"
    ascent="1638"
    descent="-410"
    x-height="1012"
    cap-height="1403"
    bbox="-113 -535 2329 1878"
    underline-thickness="102"
    underline-position="-102"
    unicode-range="U+000D-FB02"
  />
<missing-glyph horiz-adv-x="606"
 />
    <glyph glyph-name=".notdef" horiz-adv-x="606"
 />
    <glyph glyph-name=".null" horiz-adv-x="0"
 />
    <glyph glyph-name="nonmarkingreturn" unicode="&#xd;" horiz-adv-x="0"
 />
    <glyph glyph-name="NULL" horiz-adv-x="0"
 />
    <glyph glyph-name="NULL" horiz-adv-x="0"
 />
    <glyph glyph-name="space" unicode=" " horiz-adv-x="606"
 />
    <glyph glyph-name="exclam" unicode="!" horiz-adv-x="720"
d="M467 1438q41 0 41 -22v-10q0 -9 -2 -36l-45 -801q-2 -29 -11.5 -35t-31.5 -6h-117q-23 0 -32 6.5t-11 34.5l-45 801q-2 27 -2 28v13q0 20 12.5 23.5t24.5 3.5h219zM532 138q0 -71 -50 -122t-123 -51t-123 51.5t-50 123.5t51 121.5t123 49.5t122 -51t50 -122z" />
    <glyph glyph-name="quotedbl" unicode="&#x22;" horiz-adv-x="1024"
d="M365 911h-84q-27 0 -33 7.5t-10 33.5l-43 469q-2 5 -2 23t12 21t28 3h179q16 0 28.5 -3t12.5 -20t-2 -24l-43 -469q-4 -27 -10.5 -34t-32.5 -7zM743 911h-84q-27 0 -32.5 7.5t-10.5 33.5l-43 469q-2 5 -2 23t12.5 21t28.5 3h179q16 0 28 -3t12 -20t-2 -24l-43 -469
q-4 -27 -10 -34t-33 -7z" />
    <glyph glyph-name="numbersign" unicode="#"
d="M874 1403q41 -1 41 -23q0 -16 -2 -20l-32 -330h104q27 0 34 -7t7 -36v-110q0 -29 -7 -36t-34 -7h-123l-37 -342h105q27 0 34 -7.5t7 -33.5v-113q0 -27 -7.5 -35t-33.5 -8h-123l-37 -363q-4 -27 -15.5 -32.5t-33.5 -5.5h-96q-16 0 -28.5 3t-12.5 19t2 23l37 356h-205
l-35 -363q-4 -27 -16.5 -32.5t-34.5 -5.5h-92q-16 0 -28.5 3t-12.5 25v17l34 356h-79q-29 0 -36 7t-7 36v113q0 27 7 34t36 7h100l35 342h-80q-29 0 -36 7t-7 36v110q0 29 7 36t36 7h100l35 334q4 27 15.5 33t33.5 6h92q14 0 28.5 -3t14.5 -24l-34 -346h202l35 334
q4 27 14.5 33t32.5 6h96zM678 834h-205l-35 -342h203z" />
    <glyph glyph-name="dollar" unicode="$"
d="M633 -115q0 -27 -7.5 -34t-35.5 -7h-41q-29 0 -36 7.5t-7 33.5v92q-74 0 -215 34t-141 75v4q0 4 4 14l59 172q8 17 15 17t95.5 -41t182.5 -53v401q-47 20 -109.5 47t-157 102t-94.5 260t120 277.5t241 102.5v100q0 27 7 34t36 7h41q29 0 36 -7t7 -34v-100
q80 -7 158.5 -29.5t120.5 -43t42 -46.5q0 -10 -6 -23l-63 -139q-6 -16 -19 -16q-4 0 -87.5 41t-145.5 41v-379q49 -25 111.5 -55.5t154.5 -111t92 -259.5t-109 -273t-249 -119v-92zM756 367q0 108 -59.5 142t-78.5 44v-354q138 36 138 168zM381 1014q0 -71 37 -106.5
t61.5 -47.5t40.5 -20v334q-139 -35 -139 -160z" />
    <glyph glyph-name="percent" unicode="%" horiz-adv-x="1705"
d="M1294.5 119q57.5 0 79 51t21.5 148q0 96 -18.5 155t-82.5 59q-87 0 -93.5 -81.5t-6.5 -124.5t3 -81t21.5 -82t76 -44zM1599 325.5q0 -161.5 -78.5 -261t-226 -99.5t-226.5 98.5t-79 261.5t79 262t226.5 99t226 -99.5t78.5 -261zM1167 1403q39 1 39 -21q0 -14 -6 -32
l-483 -1350q-12 -35 -47 -35h-105q-43 1 -43 15t8 34l486 1356q11 33 47 33h104zM713 1007.5q0 -161.5 -79 -261t-226.5 -99.5t-226.5 98.5t-79 261.5t79 262t226.5 99t226.5 -99.5t79 -261zM407.5 801q57.5 0 79 51t21.5 148q0 96 -18.5 155t-81.5 59q-88 0 -94.5 -81.5
t-6.5 -124.5t3 -81t21.5 -82t76 -44z" />
    <glyph glyph-name="ampersand" unicode="&#x26;" horiz-adv-x="1251"
d="M942 117q-152 -152 -381 -152t-355 103.5t-126 275.5t85 257t135 116t79 49q-14 16 -101.5 103.5t-87.5 214.5q0 159 123 256.5t280 97.5q156 0 260.5 -87.5t104.5 -223.5q0 -187 -118.5 -277t-141.5 -109l220 -258q45 86 55 160t12.5 94.5t14.5 20.5t24 -4l150 -41
q24 -6 24 -43q0 -76 -45 -194.5t-78 -170.5l146 -176q6 -8 12 -14t6 -19t-20 -26l-103 -93q-16 -12 -28 -12t-18.5 7.5t-12.5 13.5zM713 1110q0 54 -36 92.5t-97.5 38.5t-102.5 -40t-41 -91t16.5 -84t39 -59.5t46 -48t35.5 -35.5q16 14 41 34.5t46.5 47t37 59t15.5 86.5z
M416 238q60 -58 160 -58q99 0 120 20l92 93l-278 328q-66 -49 -110 -100.5t-44 -138.5q0 -86 60 -144z" />
    <glyph glyph-name="quotesingle" unicode="'" horiz-adv-x="417"
d="M250 911h-84q-27 0 -33 7.5t-10 33.5l-43 469q-2 5 -2 23t12 21t29 3h178q16 0 28.5 -3t12.5 -20t-2 -24l-43 -469q-4 -27 -10.5 -34t-32.5 -7z" />
    <glyph glyph-name="parenleft" unicode="(" horiz-adv-x="909"
d="M831 -433q0 -11 -18 -27.5t-43 -33t-49.5 -29t-34.5 -12.5t-47 38t-123 158t-180 354.5t-94 485.5t93 484t181 354t124 159t51 38t77.5 -40t62.5 -58q0 -23 -50 -89.5t-161.5 -274t-111.5 -572.5q0 -438 138 -646t161.5 -243t23.5 -46z" />
    <glyph glyph-name="parenright" unicode=")" horiz-adv-x="909"
d="M668 501.5q0 -139.5 -31 -271.5t-77 -246.5t-100 -210t-103.5 -164t-86.5 -106.5t-53 -38t-77.5 41.5t-61.5 56.5t23.5 50t88.5 131.5t138 295.5t73 440t-50 407t-111.5 280.5t-111.5 180.5t-50 82q0 24 62 65t77 41q14 0 51 -38t86 -105.5t104.5 -162.5t101.5 -210
t77 -247t31 -271.5z" />
    <glyph glyph-name="asterisk" unicode="*"
d="M635 1403q41 -1 41 -21q0 -14 -2 -24l-43 -252l227 121q15 10 30 10t25 -33l41 -125q2 -6 4.5 -13t2.5 -17t-11.5 -13.5t-27.5 -7.5l-252 -39l184 -176q18 -18 18 -34t-22 -27l-107 -76q-8 -6 -15 -11.5t-18 -5.5t-26 29l-117 230l-114 -230q-14 -29 -26 -29
q-11 0 -34 17l-106 76q-23 12 -23 28q0 17 19 33l184 176l-252 39q-16 4 -27.5 7t-11.5 15t6 29l41 125q10 33 27 33q11 0 29 -10l227 -121l-43 252q-2 10 -2 22q0 23 41 23h133z" />
    <glyph glyph-name="plus" unicode="+"
d="M672 96q0 -23 -6.5 -29t-28.5 -6h-135q-23 0 -29 6.5t-6 28.5v328h-328q-23 0 -29 6t-6 29v135q0 23 7.5 29t27.5 6h328v327q0 23 6 29t29 6h135q23 0 29 -6t6 -29v-327h327q23 0 29 -6.5t6 -28.5v-135q0 -23 -6 -29t-29 -6h-327v-328z" />
    <glyph glyph-name="comma" unicode="," horiz-adv-x="606"
d="M442 256q41 0 41 -18q0 -24 -10 -35l-244 -457q-6 -10 -12.5 -19.5t-16.5 -9.5t-24 7l-78 26q-32 11 -32 24q0 14 6 29l127 418q10 35 45 35h198z" />
    <glyph glyph-name="hyphen" unicode="-" horiz-adv-x="757"
d="M672 449q0 -29 -7.5 -36t-35.5 -7h-500q-29 0 -36 7t-7 36v149q0 29 7 36t36 7h500q29 0 36 -7t7 -36v-149z" />
    <glyph glyph-name="period" unicode="." horiz-adv-x="606"
d="M498 160q0 -41 -15.5 -77t-42 -61.5t-62.5 -41t-75 -15.5t-74.5 15.5t-62.5 41t-42 61.5t-15 77t15 76.5t42 61.5t62.5 41t74.5 15t75 -15t62.5 -41t42 -61.5t15.5 -76.5z" />
    <glyph glyph-name="slash" unicode="/" horiz-adv-x="909"
d="M0 -434q-41 0 -41 19q0 24 6 36l668 1825q8 23 20.5 30t34.5 7h121q37 0 37 -25q0 -16 -6 -33l-666 -1820q-8 -23 -19.5 -31t-35.5 -8h-119z" />
    <glyph glyph-name="zero" unicode="0"
d="M795 749.5q0 167.5 -48 300t-176 132.5q-127 0 -177 -130t-50 -368t50 -368t176 -130q184 0 204.5 198t20.5 365.5zM1055 684q0 -352 -123 -535.5t-362.5 -183.5t-362.5 184.5t-123 534.5t122 534.5t362 184.5t363.5 -183.5t123.5 -535.5z" />
    <glyph glyph-name="one" unicode="1"
d="M963 29q0 -16 -5.5 -22.5t-23.5 -6.5h-629q-18 0 -23.5 6t-5.5 23v133q0 16 5.5 22t23.5 6h207v869l-217 -135q-8 -4 -14.5 -8.5t-14.5 -4.5q-14 0 -28 27l-54 92q-8 10 -8 26t25 34l387 278h143q29 0 35 -8t6 -33v-1137h162q18 0 23.5 -6t5.5 -22v-133z" />
    <glyph glyph-name="two" unicode="2"
d="M975 43q0 -29 -7 -36t-34 -7h-739q-16 0 -21.5 6t-5.5 58q0 118 16 180.5t44 125.5q28 64 78 116.5t106.5 99.5t115 91t136 123t77.5 204q0 92 -45 135t-120 43t-113.5 -33t-60 -73t-35 -72.5t-31.5 -32.5q-10 0 -23 6l-131 49q-22 8 -22 35t23.5 84t114.5 157.5
t287 100.5q197 0 299.5 -99.5t102.5 -294.5t-93 -295t-161.5 -150t-124.5 -96q-92 -75 -121.5 -122t-33.5 -110h481q29 0 35 -8.5t6 -34.5v-150z" />
    <glyph glyph-name="three" unicode="3"
d="M692 401q0 205 -254 205h-63q-27 0 -34 7.5t-7 33.5v137q0 29 7 36t34 7h67q94 0 137.5 27t65 64.5t21.5 106.5t-46.5 116t-109.5 47t-99 -19.5t-60.5 -43t-40 -43t-24.5 -19.5t-20 10l-112 101q-24 15 6 58.5t112 107t249 63.5t278.5 -99t111.5 -273t-80.5 -226.5
t-111.5 -69.5q239 -77 239 -348q0 -195 -135.5 -308.5t-330.5 -113.5q-111 0 -250.5 38t-139.5 75q0 8 4 20l41 146q10 20 20.5 20t93 -42t199.5 -42q118 0 175 58.5t57 162.5z" />
    <glyph glyph-name="four" unicode="4"
d="M905 6q0 -27 -7 -34t-34 -7h-178q-27 0 -34 7.5t-7 33.5v264h-500q-29 0 -36 7.5t-7 33.5v215l510 850q14 27 26 27t30 -8l123 -52q30 -10 30 -28q0 -8 -4 -14.5t-8 -14.5l-477 -811h313l33 330q4 25 10 33t33 8h143q27 0 34 -7.5t7 -35.5v-328h115q29 0 36 -7t7 -42
v-115q0 -27 -7 -34t-36 -7h-115v-264z" />
    <glyph glyph-name="five" unicode="5"
d="M471 186q147 0 226 78t79 186q0 224 -207 224q-129 0 -175 -55.5t-56 -55.5t-23 6l-122 39q-33 8 -33 27q0 14 2 20l63 674q4 29 11.5 34t31.5 5h600q29 0 36 -7t7 -34v-131q0 -29 -7 -36t-36 -7h-422l-34 -326q23 14 69.5 38t140.5 24q179 0 284.5 -121.5t105.5 -302.5
q0 -221 -143.5 -360.5t-387.5 -139.5q-108 0 -223 27.5t-115 64.5l2 23l29 149q6 19 15.5 19t36 -9.5t94.5 -31t151 -21.5z" />
    <glyph glyph-name="six" unicode="6"
d="M876 1155q-9 0 -47 16.5t-113 16.5t-174 -70t-147 -278l4 -4q43 50 94 85t135 35q170 0 278 -121t108 -358t-119.5 -374.5t-321.5 -137.5q-311 0 -374.5 220.5t-63.5 405.5t47 342t170.5 313.5t395.5 156.5q88 0 143 -23.5t55 -42.5q0 -6 -4 -18l-43 -143q-7 -21 -23 -21
zM401 467q0 -281 181 -281q86 0 136 72t50 277.5t-182 205.5q-86 0 -135.5 -66.5t-49.5 -207.5z" />
    <glyph glyph-name="seven" unicode="7"
d="M505 -35q-13 0 -22 2l-170 33q-23 4 -32 9t-9 17t7 27l434 1080h-502q-29 0 -36 7t-7 36v151q0 27 7 34t36 7h739q27 0 34 -7t7 -34v-80l-456 -1251q-6 -16 -11.5 -23.5t-18.5 -7.5z" />
    <glyph glyph-name="eight" unicode="8"
d="M995 1047q0 -202 -231 -322q118 -57 201.5 -139t83.5 -233t-128.5 -269.5t-347.5 -118.5t-352 104t-133 287q0 151 90.5 235.5t200.5 127.5q-96 43 -168 118t-72 215t119 245.5t306 105.5t309 -101t122 -255zM735 1028q0 60 -45 110t-122 50t-123 -49t-46 -109
t20.5 -96.5t49.5 -59t60 -36t49 -21.5q68 30 95 56t44.5 60.5t17.5 94.5zM570 180q95 0 156.5 54t61.5 126t-28.5 116t-66.5 74t-78 46t-60 27q-18 -10 -52 -27.5t-94.5 -71t-60.5 -149.5t63.5 -145.5t158.5 -49.5z" />
    <glyph glyph-name="nine" unicode="9"
d="M557 1403q438 1 438 -625q0 -186 -47 -342.5t-170 -313.5t-395 -157q-88 0 -143.5 23.5t-55.5 42.5q0 6 4 18l43 144q7 20 24 20q9 0 47 -16.5t112 -16.5t173.5 70t147.5 278l-4 4q-45 -52 -94.5 -86t-134.5 -34q-169 0 -277 120t-108 359t119.5 375.5t320.5 136.5z
M729 901q0 281 -180 281q-86 0 -136.5 -72t-50.5 -209t47.5 -205.5t134.5 -68.5t136 66.5t49 207.5z" />
    <glyph glyph-name="colon" unicode=":" horiz-adv-x="606"
d="M498 160q0 -41 -15.5 -77t-42 -61.5t-62.5 -41t-75 -15.5t-74.5 15.5t-62.5 41t-42 61.5t-15 77t15 76.5t42 61.5t62.5 41t74.5 15t75 -15t62.5 -41t42 -61.5t15.5 -76.5zM498 817q0 -41 -15.5 -76.5t-42 -61.5t-62.5 -41t-75 -15t-74.5 15t-62.5 41t-42 61.5t-15 76.5
t15 77t42 61.5t62.5 41t74.5 15.5t75 -15.5t62.5 -41t42 -61.5t15.5 -77z" />
    <glyph glyph-name="semicolon" unicode=";" horiz-adv-x="606"
d="M442 256q41 0 41 -18q0 -24 -10 -35l-244 -457q-6 -10 -12.5 -19.5t-16.5 -9.5t-24 7l-78 26q-32 11 -32 24q0 14 6 29l127 418q10 35 45 35h198zM498 817q0 -41 -15.5 -76.5t-42 -61.5t-62.5 -41t-75 -15t-74.5 15t-62.5 41t-42 61.5t-15 76.5t15 77t42 61.5t62.5 41
t74.5 15.5t75 -15.5t62.5 -41t42 -61.5t15.5 -77z" />
    <glyph glyph-name="less" unicode="&#x3c;"
d="M1030 313q0 -16 -2 -20l-35 -123q-6 -23 -14 -23t-21 5l-833 278q-12 4 -17.5 9t-5.5 22v129q0 20 4.5 26.5t18.5 10.5l833 276l17 4q8 0 11 -2t7 -18l35 -123v-6l2 -10q0 -20 -16 -25l-606 -193v-4l606 -192q16 -5 16 -21z" />
    <glyph glyph-name="equal" unicode="="
d="M1034 295q0 -23 -6 -29t-29 -6h-860q-23 0 -29 6t-6 29v135q0 23 7.5 29t27.5 6h860q23 0 29 -6t6 -29v-135zM1034 621q0 -23 -6 -29t-29 -6h-860q-23 0 -29 6t-6 29v135q0 23 7.5 29t27.5 6h860q23 0 29 -6.5t6 -28.5v-135z" />
    <glyph glyph-name="greater" unicode="&#x3e;"
d="M104 748v10q0 4 2 6l35 123q4 16 7.5 18t11.5 2l850 -280q14 -4 18 -10.5t4 -26.5v-129q0 -24 -22 -31l-834 -276q-8 -4 -14 -4q-16 0 -21 20l-35 123l-2 16q0 19 17 25l606 192v4l-606 193q-17 6 -17 25z" />
    <glyph glyph-name="question" unicode="?" horiz-adv-x="1024"
d="M571 541q0 -29 -7 -36t-36 -7h-149q-29 0 -36 7t-7 36v256q0 45 69 60t112.5 36.5t76.5 54.5t33 109q0 145 -170 145q-81 0 -142 -23.5t-83.5 -33.5t-30.5 -10q-18 0 -23 20l-53 139q-4 8 -4 23q0 39 136 80t237 41q188 0 298.5 -105t110.5 -279q0 -173 -97 -252
t-235 -122v-139zM633 138q0 -71 -50.5 -122t-122.5 -51t-122.5 51.5t-50.5 123.5t50 121.5t123 49.5t123 -51t50 -122z" />
    <glyph glyph-name="at" unicode="@" horiz-adv-x="2048"
d="M1321 332q0 -52 72 -51q112 0 204.5 123.5t92.5 333.5t-141 343t-404 133q-172 0 -316.5 -62t-306.5 -232.5t-162 -526.5q0 -283 164 -435.5t465 -152.5q235 0 381 51.5t191 75t58 23.5t21 -16l33 -84q2 -6 4 -11.5t2 -13.5q0 -16 -54 -46t-214 -81t-387 -51
q-228 0 -380 50t-310 196t-158 501q0 209 77 386.5t209 307.5t311 202.5t367 72.5q350 0 542 -170.5t192 -456.5t-131 -415t-233.5 -171t-204.5 -42q-162 0 -189 141q-94 -141 -239 -141q-90 0 -140.5 62.5t-50.5 176.5q0 221 110 382t263 161q86 0 119.5 -32t40.5 -38
l10 23q10 20 33 20h135q25 0 24 -20l-2 -21l-92 -436q-6 -29 -6 -59zM1080 741q-48 0 -78.5 -39.5t-62.5 -126.5t-32 -219q0 -75 56 -75q65 0 106 55.5t55 130.5l50 229q-46 45 -94 45z" />
    <glyph glyph-name="A" unicode="A" horiz-adv-x="1214"
d="M637 911q-6 31 -13.5 67t-12.5 75t-10 75.5t-9 69.5h-4q-15 -162 -47 -287l-90 -352h270zM1167 16q0 -16 -41 -16h-229q-16 0 -21.5 7t-13.5 36l-90 332h-352l-84 -332q-8 -29 -14.5 -36t-28.5 -7h-207q-39 0 -40 14t7 39l404 1319q6 20 12 25.5t33 5.5h213q23 0 30 -7
t13 -26l401 -1321q8 -24 8 -33z" />
    <glyph glyph-name="B" unicode="B" horiz-adv-x="1175"
d="M520 823q105 0 147 29t59 65.5t17 98.5q0 96 -58 134t-142 38h-86v-365h63zM530 215q128 0 174 27.5t66.5 66.5t20.5 103q0 119 -67 157.5t-189 38.5h-78v-393h73zM543 1403q204 0 340.5 -70t136.5 -289q0 -188 -90 -241t-119 -68q101 -27 178.5 -105t77.5 -220
t-42 -219.5t-137 -134t-329 -56.5h-336q-27 0 -35 8t-8 35v1317q0 29 8.5 36t34.5 7h320z" />
    <glyph glyph-name="C" unicode="C" horiz-adv-x="1024"
d="M971 96q0 -12 -24.5 -34.5t-103 -59.5t-212.5 -37q-270 0 -400.5 177t-130.5 548q0 546 199 647t317 101t203.5 -43t116.5 -69t31 -42t-11 -29l-75 -114q-13 -21 -25 -21t-73 48.5t-133 48.5q-71 0 -119 -25t-78.5 -80t-46 -146.5t-15.5 -298t52.5 -344t201.5 -137.5
q64 0 117 26t74.5 38t34.5 12t26 -20l64 -115q10 -19 10 -31z" />
    <glyph glyph-name="D" unicode="D" horiz-adv-x="1214"
d="M537 1403q147 0 257.5 -28.5t224.5 -144t114 -525.5q0 -590 -232.5 -647.5t-370.5 -57.5h-313q-27 0 -35 8t-8 35v1317q0 29 8 36t37 7h318zM524 221q86 0 146.5 21.5t116 102.5t55.5 358t-70.5 378t-247.5 101h-73v-961h73z" />
    <glyph glyph-name="E" unicode="E" horiz-adv-x="985"
d="M913 43q0 -29 -7 -36t-34 -7h-673q-27 0 -35 7t-8 36v1317q0 29 8 36t35 7h671q31 0 41.5 -4.5t10.5 -18.5t-7 -28l-38 -138q-8 -32 -48 -32h-397v-338h348q29 0 36 -7.5t7 -35.5v-135q0 -29 -8 -36t-35 -7h-348v-402h438q29 0 36 -7t7 -36v-135z" />
    <glyph glyph-name="F" unicode="F" horiz-adv-x="948"
d="M451 43q0 -29 -7.5 -36t-33.5 -7h-193q-27 0 -35 7t-8 36v1317q0 29 8 36t35 7h672q31 0 41 -4t10 -18t-6 -29l-39 -138q-8 -32 -47 -32h-397v-338h348q29 0 36 -7.5t7 -35.5v-135q0 -29 -8.5 -36t-34.5 -7h-348v-580z" />
    <glyph glyph-name="G" unicode="G" horiz-adv-x="1175"
d="M659 186q77 0 154 33v297h-154q-27 0 -35 7t-8 36v135q0 29 8.5 36t34.5 7h357q27 0 35 -7t8 -36v-569q0 -62 -140 -111t-270 -49q-549 0 -549 729q0 367 138.5 555.5t414.5 188.5q128 0 221 -35t126.5 -56.5t33.5 -32.5t-10 -32l-68 -135q-10 -21 -18 -21t-30.5 14.5
t-90 45.5t-147.5 31q-153 0 -216 -129t-63 -386q0 -256 58.5 -386t209.5 -130z" />
    <glyph glyph-name="H" unicode="H" horiz-adv-x="1290"
d="M1116 43q0 -29 -8 -36t-35 -7h-190q-27 0 -35 7t-8 36v571h-389v-571q0 -29 -8.5 -36t-34.5 -7h-191q-27 0 -35 7t-8 36v1317q0 29 8 36t35 7h191q27 0 35 -7t8 -36v-524h389v524q0 29 8 36t35 7h190q27 0 35 -7t8 -36v-1317z" />
    <glyph glyph-name="I" unicode="I" horiz-adv-x="757"
d="M672 43q0 -29 -8.5 -36t-34.5 -7h-502q-27 0 -35 7t-8 36v111q0 29 8 36t35 7h113v1009h-113q-27 0 -35 7.5t-8 35.5v111q0 29 8 36t35 7h502q27 0 35 -7t8 -36v-111q0 -29 -8.5 -36t-34.5 -7h-113v-1009h113q27 0 35 -7.5t8 -35.5v-111z" />
    <glyph glyph-name="J" unicode="J" horiz-adv-x="909"
d="M756 432q0 -218 -84 -342.5t-301 -124.5t-297 125t-80 297q0 18 4 22.5t14 4.5h203q25 0 25 -29v-63q0 -64 36 -100t84 -36q82 0 100.5 49.5t18.5 157.5v813h-280q-27 0 -35 7.5t-8 35.5v111q0 29 8 36t35 7h514q27 0 35 -7t8 -36v-928z" />
    <glyph glyph-name="K" unicode="K" horiz-adv-x="1175"
d="M451 43q0 -29 -8.5 -36t-34.5 -7h-191q-27 0 -35 7t-8 36v1317q0 29 8 36t35 7h191q27 0 35 -7t8 -36v-574h4l450 625q14 27 28 27q15 0 23.5 -5.5t20.5 -11.5l139 -69q27 -11 27 -31q0 -10 -5 -15.5t-10 -11.5l-436 -575l482 -598q4 -6 9 -11.5t5 -19.5t-27 -27
l-164 -81q-12 -6 -20 -11.5t-17 -5.5t-19.5 9.5t-14.5 17.5l-471 626h-4v-575z" />
    <glyph glyph-name="L" unicode="L" horiz-adv-x="1024"
d="M946 246q37 0 37 -27q0 -10 -4 -26l-39 -156q-6 -25 -14 -31t-31 -6h-676q-27 0 -35 7t-8 36v1317q0 29 8.5 36t34.5 7h191q27 0 35 -7t8 -36v-1114h493z" />
    <glyph glyph-name="M" unicode="M" horiz-adv-x="1441"
d="M334 0h-150q-27 0 -36 7t-7 36l58 1317q2 29 9 36t34 7h196q25 0 31 -5t14 -28l166 -516q38 -117 62 -246h4q11 86 30 140.5t35 105.5l174 516q8 23 14.5 28t35.5 5h196q27 0 34 -12.5t9 -53.5l57 -1294q2 -29 -7 -36t-36 -7h-180q-27 0 -35 7t-8 36l-16 694l-1 63
l-3 265h-4q-4 -29 -13.5 -72t-26.5 -121t-32 -129l-125 -399q-6 -23 -12 -29t-33 -6h-127q-27 0 -33 6.5t-12 28.5l-119 399q-8 27 -18 71t-28.5 124t-24.5 127h-5v-19l-4 -309l-20 -694q-2 -29 -9.5 -36t-33.5 -7z" />
    <glyph glyph-name="N" unicode="N" horiz-adv-x="1290"
d="M885 1360q0 29 8 36t35 7h149q27 0 35 -7t8 -36v-1317q0 -29 -7 -36t-36 -7h-135q-23 0 -30 5t-17 24l-375 698q-89 162 -117 279h-4l7 -226v-737q0 -29 -8.5 -36t-35.5 -7h-149q-27 0 -35 7t-8 36v1317q0 29 8 36t35 7h168q23 0 30 -5t17 -22l338 -635q76 -144 121 -297
h4l-6 267v649z" />
    <glyph glyph-name="O" unicode="O" horiz-adv-x="1214"
d="M1116 700q0 -373 -136 -554t-373.5 -181t-374 181.5t-136.5 554t136.5 555t373.5 182.5q367 0 438.5 -276t71.5 -462zM658.5 180q166.5 0 166.5 522t-166.5 521.5t-219 -142t-52.5 -381t52.5 -380t219 -140.5z" />
    <glyph glyph-name="P" unicode="P" horiz-adv-x="1062"
d="M496 776q115 0 175 44.5t60 183.5q0 166 -88 175t-127 9h-84v-412h64zM432 43q0 -29 -8 -36t-35 -7h-190q-27 0 -35 7t-8 36v1317q0 29 8 36t35 7h331q61 0 144.5 -6t157 -42t125 -115t51.5 -214q0 -240 -140.5 -352.5t-326.5 -112.5h-109v-518z" />
    <glyph glyph-name="Q" unicode="Q" horiz-adv-x="1214"
d="M1118 700q0 -396 -149 -569q18 -16 113.5 -83t95.5 -87q0 -6 -9 -14l-157 -113q-8 -4 -24 -4q-30 0 -97.5 59t-108.5 105q-74 -29 -174 -29q-238 0 -374 181.5t-136 554t136.5 555t373.5 182.5q368 0 439 -275.5t71 -462.5zM660.5 180q166.5 0 166.5 522t-166.5 521.5
t-219 -142t-52.5 -381t52.5 -380t219 -140.5z" />
    <glyph glyph-name="R" unicode="R"
d="M492 795q120 0 163 27.5t62.5 68.5t19.5 111q0 122 -59.5 154t-163.5 32h-76v-393h54zM438 43q0 -29 -8 -36t-35 -7h-190q-27 0 -35 7t-8 36v1317q0 29 8 36t35 7h332q124 0 221.5 -23t176.5 -110t79 -261t-68.5 -253.5t-165.5 -126.5l305 -547q4 -8 10.5 -18.5
t6.5 -20.5t-12.5 -15t-28.5 -10l-172 -49q-15 -4 -29 -4t-47 64l-276 551h-99v-537z" />
    <glyph glyph-name="S" unicode="S" horiz-adv-x="985"
d="M383 1179.5q-57 -37.5 -57 -109.5t40 -110t102 -70t136 -67t146 -89q172 -128 172 -328t-123.5 -320.5t-319.5 -120.5q-145 0 -286.5 48t-141.5 75q0 8 10 33l48 135q6 20 22 20q4 0 97 -45t233 -45q194 0 194 189q0 68 -35.5 109.5t-94 74.5t-134 64.5t-155.5 79.5
t-128.5 119t-48.5 190q0 215 128 320.5t323 105.5q136 0 231 -35t129.5 -56.5t34.5 -32.5t-10 -32l-68 -135q-10 -21 -18 -21t-32.5 14.5t-98 45.5t-155.5 31q-83 0 -140 -37.5z" />
    <glyph glyph-name="T" unicode="T" horiz-adv-x="909"
d="M584 43q0 -29 -8.5 -36t-34.5 -7h-191q-27 0 -35 7t-8 36v1114h-268q-23 0 -29 6t-6 29v176q0 23 6 29t29 6h844q31 0 41 -4t10 -18t-6 -29l-43 -162q-6 -25 -20.5 -29t-26.5 -4h-254v-1114z" />
    <glyph glyph-name="U" unicode="U" horiz-adv-x="1290"
d="M1139 475q0 -250 -110.5 -380t-446 -130t-383 197.5t-47.5 312.5v885q0 29 8 36t35 7h190q27 0 35 -7t8 -36v-885q0 -142 26.5 -190.5t69.5 -73.5t150.5 -25t147.5 73.5t40 215.5v885q0 29 8.5 36t34.5 7h191q27 0 35 -7t8 -36v-885z" />
    <glyph glyph-name="V" unicode="V"
d="M1102 1383q4 -1 4 -15t-10 -39l-371 -1313q-6 -23 -12 -28.5t-33 -5.5h-234q-27 0 -32.5 6t-12.5 28l-360 1301q-10 25 -10 42t39 23l204 35l31 4q8 0 16.5 -5t14.5 -36l174 -823q6 -25 12 -63.5t19.5 -117.5t19.5 -132h4q12 104 62 313l198 823q8 31 15.5 36t15.5 5
l211 -26z" />
    <glyph glyph-name="W" unicode="W" horiz-adv-x="1630"
d="M1354 1421q12 0 28 -4l154 -31q12 -4 25.5 -7t13.5 -18t-10 -40l-299 -1303q-4 -23 -13.5 -29.5t-31.5 -6.5h-177q-29 0 -34.5 7t-10.5 29l-135 689q-32 159 -47 354h-4q-15 -194 -51 -354l-166 -689q-6 -23 -11 -29.5t-34 -6.5h-176q-23 0 -32 7t-13 29l-267 1305
q-2 10 -5 22.5t-3 22.5t13.5 14t25.5 7l160 28q16 4 28 4t19.5 -5t13.5 -36l123 -663q22 -121 31.5 -234.5t13.5 -152.5h4q19 203 66 387l145 624q8 33 16.5 47.5t45.5 14.5h139q25 0 31 -14.5t14 -47.5l146 -624q38 -187 57 -387h4q10 186 47 387l123 663q6 31 13.5 36
t19.5 5z" />
    <glyph glyph-name="X" unicode="X" horiz-adv-x="1097"
d="M836 -18q-10 0 -17.5 5t-23.5 36l-177 346q-48 99 -59 137h-4q-6 -40 -63 -139l-185 -351q-14 -27 -19.5 -30.5t-15.5 -3.5t-26 4l-187 43q-12 4 -27.5 8t-15.5 19t15 38l381 649l-346 566q-29 47 -13.5 53t31.5 10l205 45q12 4 26 4q15 0 27 -24l152 -303
q45 -92 61 -156h4q14 67 57 156l134 286q18 41 34 41q10 0 27 -4l180 -49q10 -4 28.5 -9t18.5 -15.5t-6 -19.5t-12 -21l-318 -560l365 -643q14 -20 14 -36t-16 -20.5t-27 -8.5l-180 -49q-12 -4 -22 -4z" />
    <glyph glyph-name="Y" unicode="Y" horiz-adv-x="1062"
d="M672 43q0 -29 -8.5 -36t-34.5 -7h-191q-27 0 -35 7t-8 36v532l-385 746q-14 25 -14 42t43 23l205 33q10 2 11 2h11q18 0 31 -26l166 -351q53 -123 82 -223h4q47 155 90 240l152 319q14 31 20 36t15 5t30 -4l174 -37q37 -11 37 -26q0 -6 -4 -13.5t-10 -19.5l-381 -746
v-532z" />
    <glyph glyph-name="Z" unicode="Z" horiz-adv-x="1024"
d="M920 0h-822q-23 0 -29 6t-6 29v170l551 952h-503q-29 0 -29 25v6q0 6 4 18l41 160q6 23 12 30t33 7h705q29 0 36 -7t7 -34v-184l-547 -932h590q29 -6 28 -25q0 -4 -4 -24l-22 -160q-4 -27 -11.5 -32t-33.5 -5z" />
    <glyph glyph-name="bracketleft" unicode="[" horiz-adv-x="872"
d="M750 -371q0 -29 -7.5 -36t-35.5 -7h-400q-29 0 -36 7.5t-7 35.5v1796q0 29 7.5 36t35.5 7h400q29 0 36 -7t7 -36v-129q0 -29 -7.5 -36t-35.5 -7h-183v-1452h183q29 0 36 -7t7 -36v-129z" />
    <glyph glyph-name="backslash" unicode="\" horiz-adv-x="909"
d="M967 -410q0 -18 -13.5 -21t-27.5 -3h-119q-25 0 -36 8t-19 31l-666 1820q-6 15 -6 33q0 25 37 25h121q23 0 35 -7.5t20 -29.5l668 -1825q6 -13 6 -31z" />
    <glyph glyph-name="bracketright" unicode="]" horiz-adv-x="872"
d="M608 -371q0 -29 -7 -36t-36 -7h-399q-29 0 -36 7.5t-7 35.5v129q0 29 7 36t36 7h182v1452h-182q-29 0 -36 7.5t-7 35.5v129q0 29 7 36t36 7h399q29 0 36 -7t7 -36v-1796z" />
    <glyph glyph-name="asciicircum" unicode="^"
d="M356 659q-16 0 -22 3l-123 26q-21 5 -21 14t4.5 17t6.5 12l268 653q8 19 33 19h135q26 0 33 -19l268 -653q10 -20 10 -29t-20 -14l-123 -26q-35 -12 -43 12l-193 485l-192 -485q-5 -15 -21 -15z" />
    <glyph glyph-name="underscore" unicode="_" horiz-adv-x="1024"
d="M1024 -256h-1024v102h1024v-102z" />
    <glyph glyph-name="grave" unicode="`" horiz-adv-x="686"
d="M150 1301q0 17 10 32l61 125q17 29 27 29t31 -12l337 -189l14 -9q13 -9 13 -21t-10 -27l-35 -74q-6 -12 -11 -20.5t-17 -8.5t-27 9l-361 143q-32 11 -32 23z" />
    <glyph glyph-name="a" unicode="a" horiz-adv-x="985"
d="M701 -35q-10 0 -29 44t-27 79q-54 -54 -110.5 -88.5t-155.5 -34.5q-141 0 -224 85t-83 236t106 241t246.5 95t181.5 5v63q0 79 -27.5 115.5t-114.5 36.5t-167 -31t-92 -31t-19 21l-41 125q-6 12 -6 24q0 32 118 64.5t243 32.5q193 0 272.5 -85t79.5 -245v-395
q0 -121 18.5 -170.5t26.5 -65.5t8 -28t-18 -21l-156 -64q-6 -2 -13 -5t-17 -3zM606 459h-90q-91 0 -145 -48.5t-54 -111.5t38.5 -103t96.5 -40t97 29.5t57 47.5v226z" />
    <glyph glyph-name="b" unicode="b" horiz-adv-x="1099"
d="M520 170q223 0 223 350q0 146 -26.5 206t-63.5 88t-92 28t-89 -27t-54 -43v-559q10 -8 35.5 -25.5t66.5 -17.5zM637 1047q200 0 283.5 -142t83.5 -389t-111 -399t-313 -152q-105 0 -120 15l-75 75q-4 -8 -9 -23.5t-12.5 -29.5t-16.5 -25.5t-21.5 -11.5t-28.5 4l-164 41
q-20 4 -20 18t22.5 47t22.5 185v1145q0 23 10 28t29 9l200 41q12 0 16.5 -8.5t4.5 -34.5v-484q107 91 219 91z" />
    <glyph glyph-name="c" unicode="c" horiz-adv-x="872"
d="M827 69q0 -13 -27.5 -33t-100.5 -45.5t-160 -25.5q-215 0 -335 129t-120 392t126 412t351 149q91 0 191 -39.5t100 -85.5q0 -7 -6 -19l-76 -133q-10 -10 -16 -10t-62.5 41t-130.5 41q-104 0 -152.5 -82t-48.5 -256t46.5 -254t164.5 -80q77 0 122 35t57 35t18 -11l53 -135
q6 -12 6 -25z" />
    <glyph glyph-name="d" unicode="d" horiz-adv-x="1062"
d="M534 842q-113 0 -150.5 -79t-37.5 -258t36 -257t136 -78q70 0 101.5 25.5t50.5 46.5v559q-14 8 -44 24.5t-92 16.5zM930 1440v-1118q0 -161 18.5 -206.5t18.5 -57.5t-19 -21l-155 -64q-6 -2 -13.5 -5t-17.5 -3t-28 41.5t-27 81.5q-123 -123 -285 -123t-249 132.5
t-87 396.5t100.5 408.5t292.5 144.5q84 0 125 -23t66 -39v420q0 23 10 28t29 9l200 41q12 0 16.5 -8.5t4.5 -34.5z" />
    <glyph glyph-name="e" unicode="e" horiz-adv-x="1024"
d="M532 1047q410 0 410 -560q0 -29 -9 -40t-38 -11h-551q0 -256 225 -256q90 0 148.5 23.5t80 34t33.5 10.5t21 -17l51 -122q6 -11 6 -27t-34.5 -37.5t-181 -69.5t-327.5 16.5t-231.5 213.5t-50.5 281q0 256 122 408.5t326 152.5zM666 627q0 155 -47.5 192t-103.5 37
q-99 0 -130.5 -68.5t-40.5 -160.5h322z" />
    <glyph glyph-name="f" unicode="f" horiz-adv-x="757"
d="M713 1012q35 0 35 -21q0 -6 -1.5 -10t-3.5 -10l-28 -121q-4 -20 -13.5 -24.5t-25.5 -4.5h-197v-778q0 -29 -8 -36t-35 -7h-174q-27 0 -35 7t-8 36v778h-145q-27 0 -35 7.5t-8 35.5v105q0 29 8 36t35 7h145v84q0 387 328 387q65 0 157.5 -21.5t92.5 -52.5q0 -6 -4 -18
l-37 -144q-7 -20 -21 -20t-48 17.5t-84 17.5q-84 0 -104 -37.5t-20 -128.5v-84h234z" />
    <glyph glyph-name="g" unicode="g" horiz-adv-x="1024"
d="M520 -434q-121 0 -228.5 27.5t-151.5 46t-44 35t8 40.5l39 125q7 20 19 20t39.5 -12t104 -39.5t160.5 -27.5q85 0 117.5 11t57.5 40t25 103q0 73 -3.5 109t-3.5 46q-117 -78 -247 -78q-172 0 -261.5 134t-89.5 374t101.5 383.5t286.5 143.5q127 0 178 -42t65 -55
q17 52 39.5 74.5t31.5 22.5t21 -5l160 -59q6 -4 12.5 -8t6.5 -12t-29 -69t-29 -192v-305l10 -460q0 -168 -91 -269.5t-304 -101.5zM498 831q-176 0 -176 -311q0 -141 35.5 -222t120.5 -81t125 27.5t56 42.5v483q-20 16 -56 38.5t-105 22.5z" />
    <glyph glyph-name="h" unicode="h" horiz-adv-x="1099"
d="M408 1440v-510q68 54 129 85.5t148 31.5q154 0 212.5 -86t58.5 -238v-694q0 -16 -5 -22.5t-23 -6.5h-203q-18 0 -23.5 6t-5.5 23v630q0 79 -23 125.5t-96 46.5q-74 0 -116.5 -38.5t-52.5 -47.5v-716q0 -16 -5.5 -22.5t-23.5 -6.5h-203q-18 0 -23.5 6t-5.5 23v1376
q0 23 10.5 28t28.5 9l201 41q12 0 16.5 -8.5t4.5 -34.5z" />
    <glyph glyph-name="i" unicode="i" horiz-adv-x="645"
d="M479 29q0 -16 -5 -22.5t-23 -6.5h-203q-18 0 -23.5 6t-5.5 23v792h-158q-18 0 -23 6.5t-5 22.5v133q0 16 5 22.5t23 6.5h390q18 0 23 -6.5t5 -22.5v-954zM516 1314.5q0 -71.5 -49 -120.5t-120 -49t-120 49t-49 120.5t49 120t120 48.5t120 -48.5t49 -120z" />
    <glyph glyph-name="j" unicode="j" horiz-adv-x="645"
d="M492 -12q0 -243 -71 -356t-280 -113q-137 0 -181 22.5t-44 32.5t4 23l45 153q3 12 15 12t49 -14t82 -14q78 0 99 60t21 198v829h-159q-18 0 -23.5 6.5t-5.5 22.5v133q0 16 5 22.5t24 6.5h391q18 0 23.5 -6.5t5.5 -22.5v-995zM526 1314.5q0 -71.5 -49 -120.5t-120 -49
t-120 49t-49 120.5t50 120t120 48.5t119 -48.5t49 -120z" />
    <glyph glyph-name="k" unicode="k" horiz-adv-x="1062"
d="M418 1440v-811l393 397q15 21 27 21t19 -6.5t20 -16.5l102 -84q10 -10 10 -20t-18 -29l-332 -324l373 -448q18 -17 18 -31t-10 -18l-174 -97q-16 -8 -26 -8t-23 21l-375 489h-4v-446q0 -16 -5 -22.5t-24 -6.5h-203q-18 0 -23 6t-5 23v1376q0 23 10 28t29 9l172 35
q13 6 31 6t18 -43z" />
    <glyph glyph-name="l" unicode="l" horiz-adv-x="606"
d="M393 1440v-1116q0 -49 7.5 -86t44.5 -37t56 9t30 9t16 -12l41 -168q2 -8 3 -10t1 -9q0 -17 -65.5 -36t-150.5 -19t-136.5 35t-75 92.5t-27.5 127t-4 140.5v1045q0 23 10.5 28t28.5 9l201 41q12 0 16 -8.5t4 -34.5z" />
    <glyph glyph-name="m" unicode="m" horiz-adv-x="1593"
d="M526.5 1010q65.5 37 151.5 37t147 -39.5t80 -102.5q23 20 51.5 45t94 61t154.5 36q90 0 172.5 -47t82.5 -277v-694q0 -16 -5 -22.5t-23 -6.5h-203q-18 0 -23.5 6t-5.5 23v630q0 80 -17 126t-74 46t-93.5 -23.5t-41.5 -27.5l-40 -32v-719q0 -16 -5 -22.5t-24 -6.5h-203
q-18 0 -23 6t-5 23v630q0 81 -17.5 126.5t-74.5 45.5q-56 0 -92.5 -23.5t-41.5 -27.5l-40 -32v-719q0 -16 -5.5 -22.5t-23.5 -6.5h-203q-18 0 -23.5 6t-5.5 23v618q0 231 -19 266t-19 53t22 23l156 51q18 6 30 7q34 0 66 -142q78 68 143.5 105z" />
    <glyph glyph-name="n" unicode="n" horiz-adv-x="1099"
d="M956 29q0 -16 -5 -22.5t-23 -6.5h-203q-18 0 -23.5 6t-5.5 23v630q0 79 -23 125.5t-88 46.5t-102 -23.5t-54 -37.5t-28 -22v-719q0 -16 -5 -22.5t-23 -6.5h-203q-18 0 -23.5 6t-5.5 23v618q0 235 -19.5 268t-19.5 51t23 23l156 51q18 6 34 6q28 1 62 -141q23 20 92.5 81
t232.5 61t208.5 -103.5t45.5 -195.5v-719z" />
    <glyph glyph-name="o" unicode="o" horiz-adv-x="1062"
d="M530.5 170q53.5 0 86 25.5t51 70.5t24.5 106.5t6 133.5t-6 133t-24.5 106.5t-51 71t-86 25.5t-86 -25.5t-51 -71t-25 -106.5t-6.5 -133t6.5 -133.5t25 -106.5t51 -70.5t86 -25.5zM205 900.5q119 146.5 326 146.5t325.5 -147.5t118.5 -394t-118.5 -393.5t-325.5 -147
t-326 146t-119 394.5t119 395z" />
    <glyph glyph-name="p" unicode="p" horiz-adv-x="1099"
d="M562 170q107 0 145 78t38 252t-34.5 258t-130.5 84q-66 0 -104 -29t-60 -49v-555q29 -16 59.5 -27.5t86.5 -11.5zM660 1047q164 0 255 -131.5t91 -396.5t-88.5 -409.5t-288.5 -144.5q-90 0 -135 18.5t-78 34.5v-374q0 -23 -10.5 -28t-28.5 -9l-172 -35q-12 -6 -30.5 -6
t-18.5 43v1038q0 230 -19.5 265.5t-19.5 53.5t22 23l156 51q19 6 35 6t29.5 -27.5t29.5 -78.5q107 107 271 107z" />
    <glyph glyph-name="q" unicode="q" horiz-adv-x="1062"
d="M498 831q-90 0 -124 -82.5t-34 -249.5t35 -248t137 -81q59 0 90 11.5t60 27.5v555q-23 20 -61 43.5t-103 23.5zM676 -434q-14 0 -14 43v409q-33 -16 -77 -34.5t-128 -18.5q-201 0 -289 144.5t-88 409.5t91 396.5t263 131.5q141 0 194.5 -45.5t69.5 -59.5q0 12 27.5 58.5
t48.5 46.5q8 0 15.5 -2.5t15.5 -4.5l151 -51q8 -4 16.5 -9t8.5 -15.5t-29.5 -59.5t-29.5 -262v-999q0 -20 -10.5 -26.5t-28.5 -10.5l-172 -35q-12 -6 -35 -6z" />
    <glyph glyph-name="r" unicode="r" horiz-adv-x="720"
d="M403 29q0 -16 -5 -22.5t-23 -6.5h-203q-18 0 -23.5 6t-5.5 23v618q0 139 -18.5 196.5t-26.5 76t-8 32.5t19 23l155 63q6 2 13.5 5.5t14.5 3.5t31 -30t44 -132q84 109 141.5 135.5t107.5 26.5t86.5 -13.5t36.5 -34.5q0 -12 -4 -20l-63 -172q-10 -19 -18 -19
q-9 0 -34.5 11.5t-55.5 11.5t-53.5 -11.5t-44 -26.5t-36.5 -32.5t-27 -27.5v-684z" />
    <glyph glyph-name="s" unicode="s" horiz-adv-x="872"
d="M471 842q-135 0 -135 -99q0 -41 30.5 -63.5t79 -40.5t106.5 -37.5t116 -58.5q136 -92 135 -241q0 -149 -94 -243t-256 -94q-110 0 -247.5 46t-137.5 87q0 4 4 12.5t6 14.5l45 117q8 18 13 18t34 -14.5t109 -45t142 -30.5q136 0 136 102q0 45 -34 71t-84 45.5t-108.5 38.5
t-107.5 52q-123 83 -123 230t100 242.5t263 95.5q95 0 174.5 -24t112 -41t32.5 -36q0 -11 -10 -26l-47 -113q-8 -19 -13 -19t-67 27t-174 27z" />
    <glyph glyph-name="t" unicode="t" horiz-adv-x="757"
d="M694 1012q35 0 35 -18q0 -12 -2 -21l-27 -121q-4 -23 -11 -27t-25 -4h-203v-495q0 -64 10.5 -94.5t64.5 -30.5q55 0 94.5 19.5t56.5 19.5t22 -13l41 -168q2 -8 3 -10t1 -6q0 -44 -119 -61t-193 -17t-129 35t-79.5 92.5t-28.5 127t-4 140.5v461h-146q-18 0 -23 6.5
t-5 22.5v133q0 16 5 22.5t23 6.5h146v258q0 20 5 26.5t27 10.5l181 24l26 2q14 0 17.5 -8t3.5 -27v-286h233z" />
    <glyph glyph-name="u" unicode="u" horiz-adv-x="1099"
d="M952 1004v-639q0 -227 19.5 -264.5t19.5 -54.5t-22 -23l-156 -52q-19 -6 -35 -6q-30 0 -61 121q-134 -121 -312 -121t-223 103.5t-45 195.5v705q0 23 10.5 27.5t28.5 9.5l172 34l33 7q10 0 13 -8.5t3 -34.5v-652q0 -78 24 -125t91 -47q95 0 180 64v725q0 23 10.5 27.5
t28.5 9.5l207 41q14 0 14 -43z" />
    <glyph glyph-name="v" unicode="v" horiz-adv-x="948"
d="M553 -18h-168q-23 0 -28 5t-11 21l-326 944q-5 10 -10 35q0 12 11.5 15.5t33.5 7.5l170 18l33 2q19 0 29 -41l125 -461q8 -31 17 -70.5t25.5 -110t22.5 -116.5h4q4 27 12.5 66t22 102t35.5 129l139 461q10 41 29 41l33 -2l139 -18q23 -4 40 -9.5t-5 -48.5l-334 -944
q-6 -16 -11.5 -21t-27.5 -5z" />
    <glyph glyph-name="w" unicode="w" horiz-adv-x="1366"
d="M432 201q0 60 16.5 175.5t22.5 143.5l94 459q4 23 10.5 28t28.5 5h182q23 0 29 -5.5t10 -27.5l90 -459q39 -214 39 -319h4q22 238 46 346l98 442q10 41 28 41l33 -2l140 -18q45 -8 45 -17q0 -10 -3.5 -20t-7.5 -23l-284 -940q-6 -20 -12.5 -24t-26.5 -4h-160
q-20 0 -26.5 8t-10.5 24l-100 521q-10 51 -27 229h-4q-13 -138 -37 -229l-123 -521q-4 -16 -10 -24t-27 -8h-159q-20 0 -27.5 4t-11.5 24l-246 940q-19 46 -3.5 51t38.5 9l153 18l35 2q17 0 27 -41l88 -442q23 -109 45 -346h4z" />
    <glyph glyph-name="x" unicode="x" horiz-adv-x="948"
d="M934 75q0 -14 -27 -24l-155 -59q-20 -10 -30.5 -10t-18 10t-17.5 26l-133 189q-18 27 -41 64.5t-39 60.5q-16 -23 -38.5 -61t-41.5 -64l-133 -189q-22 -36 -33.5 -36t-31.5 10l-156 59q-27 10 -27 27q0 4 6.5 12t10.5 16l299 406l-269 393q-4 8 -10 16.5t-6 15.5
q0 13 27 24l155 59q8 2 18.5 6t18.5 4t29 -37l106 -178q23 -35 37.5 -62.5t34.5 -62.5q20 35 39.5 61.5t44.5 63.5l119 178q10 16 16 26.5t13 10.5t17.5 -4t18.5 -6l156 -59q27 -10 27 -27q0 -4 -6.5 -12.5t-10.5 -16.5l-278 -395l293 -404q4 -8 10 -16t6 -15z" />
    <glyph glyph-name="y" unicode="y" horiz-adv-x="985"
d="M945 974q-3 -9 -7 -22l-201 -739q-14 -49 -30.5 -110.5t-46.5 -162t-56 -169.5q-27 -68 -60.5 -106t-73.5 -59.5t-84 -30.5t-109 -9t-161 33t-96 61q0 8 9 25l61 133q6 14 16 14t25.5 -8t58 -25.5t87.5 -17.5q80 0 112 35.5t57 115.5l21 68h-86q-20 0 -26.5 6t-10.5 21
l-313 925q-22 44 -5 49t40 9l170 18l32 2q19 0 29 -41l133 -495q8 -35 36 -148.5t42 -206.5h4q4 31 14.5 84t28 150t25.5 121l108 493q11 43 35 43l37 -2l143 -18q45 -8 45 -17q0 -10 -3 -19z" />
    <glyph glyph-name="z" unicode="z" horiz-adv-x="872"
d="M809 215q39 0 39 -20q0 -8 -3 -13.5t-5 -9.5l-60 -145q-4 -12 -13 -19.5t-15 -7.5h-682q-20 0 -21 20v154l471 623h-414q-14 0 -14 26v160q0 29 29 29h649q35 0 35 -21v-160l-463 -616h467z" />
    <glyph glyph-name="braceleft" unicode="{" horiz-adv-x="909"
d="M795 -371q0 -23 -6.5 -33t-66.5 -10t-217 40.5t-157 336.5v305q0 78 -31.5 113t-107.5 35h-37q-27 0 -34 7t-7 36v135q0 29 7 36t34 7h37q76 0 107.5 35t31.5 112v308q0 196 102.5 286t307.5 90q25 0 31 -10t6 -33v-131q0 -25 -7.5 -33t-33.5 -8q-70 0 -108 -25t-38 -118
v-336q0 -148 -57 -188.5t-92 -57.5q78 -40 113.5 -90t35.5 -159v-334q0 -93 38 -118.5t86 -25.5q49 0 56 -8t7 -33v-131z" />
    <glyph glyph-name="bar" unicode="|" horiz-adv-x="819"
d="M512 -477q0 -23 -6 -29t-29 -6h-135q-23 0 -29 6t-6 29v1978q0 23 6 29t29 6h135q23 0 29 -6t6 -29v-1978z" />
    <glyph glyph-name="braceright" unicode="}" horiz-adv-x="909"
d="M561 -37q0 -297 -157.5 -337t-217.5 -40t-65.5 10.5t-5.5 32.5v131q0 25 7 33t33 8q70 0 108 25.5t38 118.5v334q0 151 57.5 191t92.5 58q-76 35 -113 88t-37 158v336q0 93 -38 118t-86 25t-55 8.5t-7 32.5v131q0 23 5.5 33t65.5 10t217.5 -39t157.5 -337v-308
q0 -78 32 -112.5t107 -34.5h37q27 0 34 -7t7 -36v-135q0 -29 -7 -36t-34 -7h-37q-76 0 -107.5 -35t-31.5 -113v-305z" />
    <glyph glyph-name="asciitilde" unicode="~"
d="M1085 700q0 -237 -86 -310t-162 -73t-137 25t-118 59l-78 45q-57 33 -115.5 64t-100.5 31q-71 0 -92 -57.5t-26 -135.5h-123q0 235 86 309t162 74q119 0 256 -84l78 -45q57 -33 115.5 -63.5t100.5 -30.5t63.5 19.5t31.5 48t14 62.5t9 62h122z" />
    <glyph glyph-name="exclamdown" unicode="&#xa1;" horiz-adv-x="720"
d="M248 -426q-37 0 -37 22v10q0 9 2 36l45 800q2 29 11.5 35t31.5 6h117q23 0 32 -6t11 -35l45 -800q2 -27 2 -28v-13q0 -20 -14.5 -23.5t-26.5 -3.5h-219zM532 873q0 -71 -50 -122t-123 -51t-123 51t-50 123t51 122.5t123 50.5t122 -51.5t50 -122.5z" />
    <glyph glyph-name="cent" unicode="&#xa2;"
d="M457 686q0 -167 39.5 -235.5t111.5 -90.5v666q-151 -42 -151 -340zM731 41q0 -27 -7 -34t-36 -7h-37q-29 0 -36 7t-7 34v104q-161 10 -286 130t-125 398t120.5 402t290.5 148v110q0 29 7.5 36t35.5 7h37q29 0 36 -8t7 -35v-110q42 0 137 -28.5t95 -59.5q0 -12 -7 -19
l-77 -143q-4 -8 -12.5 -8t-54.5 30.5t-81 30.5v-666q63 10 93 28t38 18t15 -11l57 -143q6 -12 6 -24q0 -27 -79 -52t-130 -31v-104z" />
    <glyph glyph-name="sterling" unicode="&#xa3;"
d="M1075 221q41 0 41 -18q0 -12 -4 -29l-35 -139q-4 -20 -14 -27.5t-33 -7.5h-891q-29 0 -36 7t-7 36v137q0 27 7.5 34t35.5 7h144q8 39 17 79t9 102t-10 112.5t-18 91.5h-164q-27 0 -34 7.5t-7 35.5v105q0 27 7 35t34 8h125q-27 127 -27 208q0 82 35 160t127 158t301 80
q132 0 248 -43t116 -82q0 -14 -4 -18l-67 -130q-11 -20 -25 -20t-36.5 12.5t-85 39t-150.5 26.5t-150.5 -53.5t-62.5 -150.5t33 -187h280q27 0 34 -8.5t7 -34.5v-105q0 -27 -6 -35t-35 -8h-248q29 -130 29 -205t-18 -180h538z" />
    <glyph glyph-name="currency" unicode="&#xa4;"
d="M127 691q0 167 98 290l-143 143l65 64l142 -139q129 94 278 94t281 -94l141 139l66 -64l-144 -143q99 -103 99 -279t-97 -282l138 -137l-62 -62l-135 135q-128 -96 -289 -96t-282 96l-136 -135l-61 62l137 137q-96 104 -96 271zM569.5 1059q-73.5 0 -139 -29t-115 -78
t-77 -114.5t-27.5 -139t28.5 -138t77 -113t114 -76t139 -27.5t138 27.5t112.5 76t77 113t29 138t-28 139t-77 114.5t-113.5 78t-138 29z" />
    <glyph glyph-name="yen" unicode="&#xa5;" horiz-adv-x="1099"
d="M1044 1357q0 -15 -14 -36l-235 -500h219q27 0 34 -7t7 -34v-24q0 -27 -7.5 -34t-33.5 -7h-271l-47 -105h318q27 0 34 -7t7 -34v-24q0 -27 -7.5 -34t-33.5 -7h-336v-461q0 -29 -8 -36t-35 -7h-150q-27 0 -35 7t-8 36v461h-356q-27 0 -34 7t-7 34v24q0 27 7 34t34 7h334
l-51 105h-281q-29 0 -36 8t-7 33v24q0 27 8 34t35 7h231l-249 498q-14 21 -14 37t15 20t27 8l174 33l31 4q10 0 15.5 -9t15.5 -32l112 -286q12 -33 44.5 -113.5t74.5 -230.5h4q29 130 115 344l115 286q12 29 16 35t14 6l31 -4l141 -31q12 -4 27.5 -9t15.5 -20z" />
    <glyph glyph-name="brokenbar" unicode="&#xa6;" horiz-adv-x="819"
d="M512 700q0 -23 -6 -28.5t-29 -5.5h-135q-20 0 -27.5 6t-7.5 28v648q0 23 7.5 28.5t27.5 5.5h135q20 0 27.5 -6t7.5 -28v-648zM512 -324q0 -23 -6 -28.5t-29 -5.5h-135q-20 0 -27.5 6t-7.5 28v648q0 23 7.5 28.5t27.5 5.5h135q20 0 27.5 -6t7.5 -28v-648z" />
    <glyph glyph-name="section" unicode="&#xa7;"
d="M584 1247q-49 0 -90 -22.5t-41 -62.5t32.5 -65.5t86 -52t120 -57.5t132.5 -76t110.5 -105.5t44.5 -141.5q0 -135 -62 -201.5t-141 -110.5q71 -40 117.5 -96t46.5 -144q0 -157 -112.5 -258.5t-255.5 -101.5t-276.5 53t-133.5 93q0 12 6 22l65 125q9 16 19 16t94 -56
t192 -56q142 0 142 108q0 81 -90 121.5t-138 61.5t-101.5 49t-96.5 68t-69.5 94.5t-26.5 157.5t58.5 163.5t154.5 106.5q-18 12 -86 56t-68 172q0 158 110 244.5t247 86.5t240.5 -44.5t103.5 -76.5q0 -10 -9 -23l-59 -114q-14 -28 -46 -9t-62.5 34.5t-69.5 28.5t-88 13z
M683.5 709.5q-49.5 38.5 -124.5 74.5q-20 -12 -47 -27.5t-51.5 -37t-41 -48t-16.5 -59t20.5 -58.5t50.5 -46.5t62.5 -34.5t55.5 -24q67 40 104 74.5t37 91.5q0 56 -49.5 94.5z" />
    <glyph glyph-name="dieresis" unicode="&#xa8;" horiz-adv-x="686"
d="M289 1294.5q0 -59.5 -43 -101.5t-102.5 -42t-101.5 42t-42 101.5t42 102.5t101.5 43t102.5 -43t43 -102.5zM690 1294.5q0 -59.5 -43 -101.5t-102.5 -42t-101.5 42t-42 101.5t42 102.5t101.5 43t102.5 -43t43 -102.5z" />
    <glyph glyph-name="copyright" unicode="&#xa9;"
d="M230 616.5q-142 141.5 -142 339.5t142 340t340 142t339.5 -142t141.5 -340t-141.5 -339.5t-339.5 -141.5t-340 141.5zM160 956q0 -84 32.5 -158.5t88 -130t130 -88t158.5 -32.5t159 32.5t130 88t88 130t33 158.5t-33 159t-88 130t-130 88t-159 33t-158.5 -33t-130 -88
t-88 -130t-32.5 -159zM733 1092q-71 63 -122 63q-90 0 -150 -52.5t-60 -139.5q0 -88 60.5 -138.5t125.5 -50.5t96.5 22.5t49.5 39.5l53 -66q-80 -80 -194 -80t-196.5 80.5t-82.5 194.5t84 194t193 80q108 0 148 -36t48 -44z" />
    <glyph glyph-name="ordfeminine" unicode="&#xaa;" horiz-adv-x="909"
d="M565 682q-8 0 -20.5 28.5t-16.5 51.5q-10 -10 -23 -23.5t-48.5 -35t-114.5 -21.5q-80 0 -141.5 55.5t-61.5 149.5q0 243 371 243v35q0 49 -17 72t-81 23t-111 -15.5t-63 -15.5t-17 12l-28 84q-5 10 -5 17q0 19 80 40t165 21q153 0 207 -57.5t54 -161.5v-240
q0 -135 17.5 -159.5t17.5 -37.5t-20 -18l-111 -37q-25 -10 -33 -10zM324 903q0 -88 98 -88q49 0 88 39v164q-186 0 -186 -115z" />
    <glyph glyph-name="guillemotleft" unicode="&#xab;" horiz-adv-x="1214"
d="M461 0q-10 0 -29 25l-346 458q-12 16 -12 28.5t12 29.5l346 448q18 23 30 23t27 -13l103 -63q38 -22 27 -37.5t-15 -21.5l-254 -377l254 -365q4 -8 8 -14.5t4 -18.5t-24 -26l-103 -64q-18 -12 -28 -12zM555 511.5q0 12.5 12 29.5l346 448q18 23 30 23t28 -13l102 -63
q27 -16 27 -28t-15 -31l-254 -377l254 -365q4 -8 8.5 -14.5t4.5 -18.5t-25 -26l-102 -64q-19 -12 -29 -12t-29 25l-346 458q-12 16 -12 28.5z" />
    <glyph glyph-name="logicalnot" unicode="&#xac;"
d="M1034 295q0 -23 -6 -29t-29 -6h-135q-23 0 -29 6t-6 29v291h-692q-23 0 -29 6t-6 29v135q0 23 7.5 29t27.5 6h862q23 0 29 -6.5t6 -28.5v-461z" />
    <glyph glyph-name="registered" unicode="&#xae;"
d="M909.5 616.5q-141.5 -141.5 -340 -141.5t-340 141.5t-141.5 339.5t141.5 340t340 142t340 -142t141.5 -340t-141.5 -339.5zM569 547q84 0 159 32.5t130 88t88 130t33 158.5t-33 159t-88 130t-130 88t-159 33t-158.5 -33t-130 -88t-88 -130t-32.5 -159t32.5 -158.5
t88 -130t130 -88t158.5 -32.5zM479 920v-205h-92v508h170q91 0 149 -31.5t58 -132.5q0 -55 -22.5 -80t-38 -32t-27.5 -13l94 -219h-102l-80 205h-109zM590 1001q78 0 78 67t-86 67h-103v-134h111z" />
    <glyph glyph-name="macron" unicode="&#xaf;" horiz-adv-x="686"
d="M655 1243q0 -29 -7 -38t-40 -9h-475q-29 0 -38 9t-9 38v96q0 33 9 40t38 7h475q33 0 40 -8t7 -39v-96z" />
    <glyph glyph-name="degree" unicode="&#xb0;"
d="M795.5 886.5q-95.5 -93.5 -227.5 -93.5q-131 0 -226.5 93.5t-95.5 227.5t93 229t229 95q135 0 229 -95t94 -229t-95.5 -227.5zM567.5 961q65.5 0 110.5 45.5t45 109.5t-45.5 109t-109.5 45t-109 -45t-45 -110.5t44 -109.5t109.5 -44z" />
    <glyph glyph-name="plusminus" unicode="&#xb1;"
d="M1034 -88q0 -23 -6 -29t-29 -6h-860q-23 0 -29 6t-6 29v135q0 23 7.5 29t27.5 6h860q23 0 29 -6t6 -29v-135zM672 190q0 -23 -6.5 -28.5t-28.5 -5.5h-135q-23 0 -29 6t-6 28v234h-328q-23 0 -29 6t-6 29v135q0 23 7.5 29t27.5 6h328v327q0 23 6 29t29 6h135q23 0 29 -6
t6 -29v-327h327q23 0 29 -6.5t6 -28.5v-135q0 -23 -6 -29t-29 -6h-327v-234z" />
    <glyph glyph-name="twosuperior" unicode="&#xb2;" horiz-adv-x="757"
d="M459 1143q0 92 -94 92q-72 0 -93.5 -42t-31 -60.5t-24.5 -18.5t-28 6l-77 27q-23 6 -23 26q0 21 16.5 58t77 97.5t187.5 60.5t200.5 -59.5t73.5 -180.5t-61.5 -180.5t-106.5 -89t-93 -66.5q-79 -61 -83 -113h297q23 0 30 -7t7 -29v-80q0 -23 -7.5 -30t-29.5 -7h-473
q-29 0 -29 33q0 215 94.5 286.5t145.5 106.5t88 72.5t37 97.5z" />
    <glyph glyph-name="threesuperior" unicode="&#xb3;" horiz-adv-x="757"
d="M303 1055q129 0 129 97q0 38 -25.5 60.5t-62.5 22.5t-58.5 -11.5t-37 -23.5t-25.5 -23.5t-20 -11.5t-21 11l-69 59q-26 17 -2 46.5t56 52t78 39t133.5 16.5t162.5 -61t75 -149t-22.5 -116.5t-40.5 -42.5t-39 -31q59 -33 94 -74.5t35 -116.5q0 -131 -90 -201.5t-219 -70.5
q-80 0 -170 25t-90 53q0 5 6 23l24 82q10 20 22 20t62 -24.5t131 -24.5q139 0 140 113q0 108 -158 108h-39q-23 0 -31 6t-8 29v82q0 23 8.5 30t30.5 7h41z" />
    <glyph glyph-name="acute" unicode="&#xb4;" horiz-adv-x="686"
d="M224 1126q-10 0 -15.5 8.5t-11.5 20.5l-35 74q-10 15 -10 27t7 17t19 13l338 189q18 12 28 12t16.5 -9.5t12.5 -19.5l62 -125q10 -15 10 -27q0 -18 -33 -28l-360 -143q-18 -9 -28 -9z" />
    <glyph glyph-name="mu" unicode="&#xb5;" horiz-adv-x="1099"
d="M483 -35q-46 0 -86 21v-342q0 -23 -10 -28t-29 -9l-172 -35q-12 -6 -27 -6t-18.5 8t-3.5 35v1360q0 23 10.5 27.5t28.5 9.5l172 34l33 7q10 0 13 -8.5t3 -34.5v-652q0 -78 24 -125t91 -47q95 0 180 64v725q0 23 10.5 27.5t28.5 9.5l172 34l33 7q10 0 13 -8.5t3 -34.5
v-639q0 -227 19.5 -264.5t19.5 -54.5t-22 -23l-156 -52q-19 -6 -35 -6q-30 0 -61 121q-136 -121 -234 -121z" />
    <glyph glyph-name="paragraph" unicode="&#xb6;" horiz-adv-x="1366"
d="M1176 -340q0 -27 -7.5 -34t-33.5 -7h-123q-27 0 -34 7t-7 34v1559h-140v-1559q0 -27 -7 -34t-33 -7h-123q-27 0 -34 7t-7 34v670q-66 -16 -125 -17q-217 0 -332 143.5t-115 397.5q0 343 128 432.5t227.5 103t201.5 13.5h680q29 0 36 -7t7 -34v-102q0 -27 -8 -34t-35 -7
h-116v-1559zM549 504q26 0 78 10v705q-61 0 -186.5 -16.5t-125.5 -311.5q0 -205 50.5 -296t183.5 -91z" />
    <glyph glyph-name="periodcentered" unicode="&#xb7;"
d="M725 524.5q0 -65.5 -46 -110.5t-111 -45t-110.5 45t-45.5 110.5t46 111.5t111.5 46t110.5 -46t45 -111.5z" />
    <glyph glyph-name="cedilla" unicode="&#xb8;" horiz-adv-x="686"
d="M307 -434q-157 0 -157 37q0 8 4 24l14 78l2 8q2 8 10 8t34 -7t58 -7t50 16.5t18 42.5t-28.5 36t-51 10t-27 5t-4.5 16v17q0 17 2 27l7 141h168l-3 -96q77 -11 102 -65t25 -97q0 -80 -58 -137t-165 -57z" />
    <glyph glyph-name="onesuperior" unicode="&#xb9;" horiz-adv-x="757"
d="M627 584q0 -23 -8.5 -30t-30.5 -7h-385q-23 0 -31 7t-8 30v61q0 23 8 29t31 6h114v473l-106 -53q-16 -8 -28 -8t-23 22l-35 53q-10 9 -10 21t7 17t15 12l236 151h92q23 0 30 -7t7 -28v-653h86q23 0 31 -6t8 -29v-61z" />
    <glyph glyph-name="ordmasculine" unicode="&#xba;" horiz-adv-x="909"
d="M760 1042.5q0 -161.5 -79 -261t-226.5 -99.5t-226 99t-78.5 261t78.5 261.5t226 99.5t226.5 -99.5t79 -261zM454.5 836q58.5 0 79.5 51.5t21 146.5q0 96 -18.5 155.5t-81.5 59.5q-88 0 -94.5 -82t-6.5 -125t3 -80.5t21 -81.5t76.5 -44z" />
    <glyph glyph-name="guillemotright" unicode="&#xbb;" horiz-adv-x="1214"
d="M782 25q-18 -25 -28 -25t-29 12l-102 64q-25 14 -25 26t4 18.5t8 14.5l254 365l-254 377q-4 6 -9 13t-5 18t27 28l102 63q19 13 29 13t28 -23l346 -448q22 -29 0 -58zM301 25q-19 -25 -29 -25t-28 12l-103 64q-35 20 -25.5 35.5t13.5 23.5l254 365l-254 377q-4 6 -9 13
t-5 18t26 28l103 63q19 13 29 13q9 0 28 -23l346 -448q12 -16 12 -28.5t-12 -29.5z" />
    <glyph glyph-name="onequarter" unicode="&#xbc;" horiz-adv-x="1781"
d="M1593 16q0 -23 -7 -29.5t-30 -6.5h-108q-23 0 -31 7t-8 29v142h-309q-23 0 -31 6t-8 29v129l328 499q14 21 23 21t14.5 -2t11.5 -4l78 -29q28 -11 28 -27q0 -9 -10 -24l-295 -455h170l21 182q4 23 11 28t27 5h88q23 0 30 -7t7 -30v-182h66q23 0 31 -6t8 -31v-67
q0 -23 -8.5 -29t-30.5 -6h-66v-142zM1229 1403q39 1 39 -21q0 -14 -6 -32l-484 -1350q-12 -35 -47 -35h-104q-43 1 -43 15t8 34l485 1356q11 33 47 33h105zM612 584q0 -23 -8 -30t-31 -7h-385q-23 0 -30.5 7t-7.5 30v61q0 23 8 29t30 6h115v473l-106 -53q-16 -8 -27 -8
t-25 22l-34 53q-11 11 -11 22t7.5 16t15.5 12l235 151h93q23 0 29.5 -7t6.5 -28v-653h86q23 0 31 -6t8 -29v-61z" />
    <glyph glyph-name="onehalf" unicode="&#xbd;" horiz-adv-x="1781"
d="M1147 1403q39 1 39 -21q0 -14 -6 -32l-484 -1350q-12 -35 -47 -35h-104q-43 1 -43 15t8 34l485 1356q11 33 47 33h105zM596 584q0 -23 -8 -30t-31 -7h-385q-23 0 -31 7t-8 30v61q0 23 8.5 29t30.5 6h115v473l-107 -53q-16 -8 -28 -8t-23 22l-35 53q-10 9 -10 21t7 17
t15 12l236 151h92q23 0 30 -7t7 -28v-653h86q23 0 31 -6t8 -29v-61zM1468 596q0 92 -94 92q-71 0 -92.5 -42t-31 -60.5t-24.5 -18.5t-28 6l-78 27q-22 6 -22 26q0 21 16 58t76 97.5t188 60.5t201.5 -59.5t73.5 -180.5t-61.5 -180.5t-106.5 -89t-108 -78.5t-68 -100h297
q23 0 29.5 -7.5t6.5 -29.5v-80q0 -23 -7 -30t-29 -7h-473q-29 0 -29 33q0 216 94 287t145.5 106t88 73t36.5 97z" />
    <glyph glyph-name="threequarters" unicode="&#xbe;" horiz-adv-x="1781"
d="M1229 1403q39 1 39 -21q0 -14 -6 -32l-484 -1350q-12 -35 -47 -35h-104q-43 1 -43 15t8 34l485 1356q11 33 47 33h105zM473 793q0 108 -158 108h-39q-23 0 -30.5 6t-7.5 29v82q0 23 8 30t30 7h41q81 0 105 29.5t24 67.5t-25.5 60.5t-62.5 22.5t-58 -11.5t-36.5 -23.5
t-26 -23.5t-20.5 -11.5t-20 11l-70 59q-12 8 -12 20.5t17.5 34t49 44t77.5 39t133.5 16.5t163 -61t75.5 -163q0 -72 -22.5 -101.5t-41 -43.5t-39.5 -31q58 -32 93.5 -73t35.5 -117q0 -132 -90 -202.5t-219 -70.5q-80 0 -170 25t-90 53q0 5 6 23l25 82q10 20 21 20
t61.5 -24.5t132.5 -24.5q139 0 139 113zM1606 16q0 -23 -7.5 -29.5t-29.5 -6.5h-109q-23 0 -31 7t-8 29v142h-309q-23 0 -31 6t-8 29v129l328 499q14 21 23 21t14.5 -2t11.5 -4l78 -29q28 -11 28 -27q0 -9 -10 -24l-295 -455h170l21 182q4 23 11 28t28 5h88q23 0 30 -7
t7 -30v-178h65q23 0 31 -6t8 -31v-71q0 -23 -8 -29t-31 -6h-65v-142z" />
    <glyph glyph-name="questiondown" unicode="&#xbf;" horiz-adv-x="1024"
d="M903 -305q0 -41 -137 -81t-237 -40q-189 0 -298.5 105.5t-109.5 277.5t86 242.5t143.5 93t102.5 39.5v139q0 29 7 36t36 7h149q29 0 36 -7t7 -36v-256q0 -35 -45 -49t-86 -28q-84 -30 -122 -68t-38 -115q0 -145 170 -145q81 0 142 23.5t83.5 33.5t30.5 10q18 0 23 -20
l53 -140q4 -8 4 -22zM737 872q0 -72 -50 -122t-123 -50t-123 52t-50 122t50.5 121.5t122.5 51.5t122.5 -51.5t50.5 -123.5z" />
    <glyph glyph-name="Agrave" unicode="&#xc0;" horiz-adv-x="1214"
d="M637 911q-6 31 -13.5 67t-12.5 75t-10 75.5t-9 69.5h-4q-15 -162 -47 -287l-90 -352h270zM1167 16q0 -16 -41 -16h-229q-16 0 -21.5 7t-13.5 36l-90 332h-352l-84 -332q-8 -29 -14.5 -36t-28.5 -7h-207q-39 0 -40 14t7 39l404 1319q6 20 12 25.5t33 5.5h213q23 0 30 -7
t13 -26l401 -1321q8 -24 8 -33zM371.5 1586q-11.5 3 -11.5 13t7 31l45 133q10 33 28 33q6 0 12.5 -3t12.5 -5l360 -146q31 -10 31 -23q0 -12 -6 -30l-23 -69q-10 -33 -20 -33q-15 0 -31 4l-379 88q-14 4 -25.5 7z" />
    <glyph glyph-name="Aacute" unicode="&#xc1;" horiz-adv-x="1214"
d="M637 911q-6 31 -13.5 67t-12.5 75t-10 75.5t-9 69.5h-4q-15 -162 -47 -287l-90 -352h270zM1167 16q0 -16 -41 -16h-229q-16 0 -21.5 7t-13.5 36l-90 332h-352l-84 -332q-8 -29 -14.5 -36t-28.5 -7h-207q-39 0 -40 14t7 39l404 1319q6 20 12 25.5t33 5.5h213q23 0 30 -7
t13 -26l401 -1321q8 -24 8 -33zM424 1487q-10 0 -21 33l-22 69q-6 18 -6 31t31 22l360 146q6 2 12 5t13 3q18 0 28 -33l45 -133q6 -18 6 -30t-11 -14.5t-25 -6.5l-379 -88q-16 -4 -31 -4z" />
    <glyph glyph-name="Acircumflex" unicode="&#xc2;" horiz-adv-x="1214"
d="M637 911q-6 31 -13.5 67t-12.5 75t-10 75.5t-9 69.5h-4q-15 -162 -47 -287l-90 -352h270zM1167 16q0 -16 -41 -16h-229q-16 0 -21.5 7t-13.5 36l-90 332h-352l-84 -332q-8 -29 -14.5 -36t-28.5 -7h-207q-39 0 -40 14t7 39l404 1319q6 20 12 25.5t33 5.5h213q23 0 30 -7
t13 -26l401 -1321q8 -24 8 -33zM926 1621q0 -18 -11 -32l-45 -86q-8 -16 -20 -16t-37 12l-207 92l-207 -92q-25 -12 -35 -12t-13 2t-9 14l-45 86q-10 15 -10 28t26 23l265 144q18 12 28.5 12t28.5 -12l264 -144q27 -10 27 -19z" />
    <glyph glyph-name="Atilde" unicode="&#xc3;" horiz-adv-x="1214"
d="M637 911q-6 31 -13.5 67t-12.5 75t-10 75.5t-9 69.5h-4q-15 -162 -47 -287l-90 -352h270zM1167 16q0 -16 -41 -16h-229q-16 0 -21.5 7t-13.5 36l-90 332h-352l-84 -332q-8 -29 -14.5 -36t-28.5 -7h-207q-39 0 -40 14t7 39l404 1319q6 20 12 25.5t33 5.5h213q23 0 30 -7
t13 -26l401 -1321q8 -24 8 -33zM926 1693q0 -5 -13.5 -36t-60 -94.5t-141.5 -63.5q-55 0 -95.5 24.5t-60.5 36t-42 11.5t-36 -11.5t-24.5 -25.5t-16.5 -25.5t-15 -11.5t-18 6l-96 49q-14 6 -14 17q0 2 11 32.5t59 95t141 64.5q58 0 102.5 -24.5t65 -35.5t41 -11t34 11
t22.5 25.5t15.5 25.5t14.5 11t16 -4l96 -49q4 -4 9.5 -8t5.5 -9z" />
    <glyph glyph-name="Adieresis" unicode="&#xc4;" horiz-adv-x="1214"
d="M637 911q-6 31 -13.5 67t-12.5 75t-10 75.5t-9 69.5h-4q-15 -162 -47 -287l-90 -352h270zM1167 16q0 -16 -41 -16h-229q-16 0 -21.5 7t-13.5 36l-90 332h-352l-84 -332q-8 -29 -14.5 -36t-28.5 -7h-207q-39 0 -40 14t7 39l404 1319q6 20 12 25.5t33 5.5h213q23 0 30 -7
t13 -26l401 -1321q8 -24 8 -33zM551 1632.5q0 -59.5 -43 -101.5t-102.5 -42t-101.5 42t-42 101.5t42 102.5t101.5 43t102.5 -43t43 -102.5zM952 1632.5q0 -59.5 -43 -101.5t-102 -42t-101 42t-42 101.5t42 102.5t101 43t102 -43t43 -102.5z" />
    <glyph glyph-name="Aring" unicode="&#xc5;" horiz-adv-x="1214"
d="M637 911q-6 31 -13.5 67t-12.5 75t-10 75.5t-9 69.5h-4q-15 -162 -47 -287l-90 -352h270zM1167 16q0 -16 -41 -16h-229q-16 0 -21.5 7t-13.5 36l-90 332h-352l-84 -332q-8 -29 -14.5 -36t-28.5 -7h-207q-39 0 -40 14t7 39l404 1319q6 20 12 25.5t33 5.5h213q23 0 30 -7
t13 -26l401 -1321q8 -24 8 -33zM799 1638q0 -41 -15.5 -75.5t-42 -60t-61.5 -41t-74 -15.5t-73.5 15.5t-61.5 41t-42 60t-15 75.5t15 76t42 61.5t61.5 41t73.5 14.5t74 -14.5t61.5 -41t42 -61.5t15.5 -76zM608 1561q33 0 55.5 21.5t22.5 56t-22.5 57t-56.5 22.5t-56.5 -22.5
t-22.5 -57t23.5 -56t56.5 -21.5z" />
    <glyph glyph-name="AE" unicode="&#xc6;" horiz-adv-x="1593"
d="M1532 43q0 -29 -7 -36t-34 -7h-664q-27 0 -35 7t-8 36v332h-331l-129 -332q-6 -29 -13.5 -36t-29.5 -7h-207q-38 0 -40 18q-1 10 7 35l565 1319q6 20 12.5 25.5t32.5 5.5h838q31 0 41 -4t10 -18t-6 -29l-39 -138q-8 -32 -47 -32h-397v-338h348q29 0 36 -7.5t7 -35.5v-135
q0 -29 -8.5 -36t-34.5 -7h-348v-402h438q29 0 36 -7t7 -36v-135zM784 1249h-4q-35 -105 -106 -278l-166 -412h276v690z" />
    <glyph glyph-name="Ccedilla" unicode="&#xc7;" horiz-adv-x="1024"
d="M555 -434q-158 0 -158 37q0 8 4 24l15 78l2 8q2 8 10 8t33.5 -7t57.5 -7t50.5 16.5t18.5 42.5t-29 36t-51.5 10t-26.5 5t-4 16v17q0 17 2 27l4 103q-195 45 -289 219t-94 491q0 546 199 647t317 101t203.5 -43t116.5 -69t31 -42t-11 -29l-75 -114q-13 -21 -25 -21
t-73 48.5t-133 48.5q-71 0 -119 -25t-78.5 -80t-46 -146.5t-15.5 -298t52.5 -344t201.5 -137.5q64 0 117 26t74.5 38t34.5 12t26 -20l64 -115q10 -19 10 -31t-23.5 -33.5t-98 -58t-198.5 -39.5v-43q77 -11 102 -65t25 -97q0 -80 -58 -137t-165 -57z" />
    <glyph glyph-name="Egrave" unicode="&#xc8;" horiz-adv-x="985"
d="M913 43q0 -29 -7 -36t-34 -7h-673q-27 0 -35 7t-8 36v1317q0 29 8 36t35 7h671q31 0 41.5 -4.5t10.5 -18.5t-7 -28l-38 -138q-8 -32 -48 -32h-397v-338h348q29 0 36 -7.5t7 -35.5v-135q0 -29 -8 -36t-35 -7h-348v-402h438q29 0 36 -7t7 -36v-135zM283.5 1585.5
q-11.5 2.5 -11.5 16.5t7 28l45 133q10 33 28 33q6 0 12.5 -3t12.5 -5l360 -146q31 -10 31 -23q0 -12 -6 -30l-23 -69q-10 -33 -20 -33q-15 0 -31 4l-379 88q-14 4 -25.5 6.5z" />
    <glyph glyph-name="Eacute" unicode="&#xc9;" horiz-adv-x="985"
d="M913 43q0 -29 -7 -36t-34 -7h-673q-27 0 -35 7t-8 36v1317q0 29 8 36t35 7h671q31 0 41.5 -4.5t10.5 -18.5t-7 -28l-38 -138q-8 -32 -48 -32h-397v-338h348q29 0 36 -7.5t7 -35.5v-135q0 -29 -8 -36t-35 -7h-348v-402h438q29 0 36 -7t7 -36v-135zM348 1487q-10 0 -20 33
l-23 69q-6 18 -6 31t31 22l360 146q6 2 12.5 5t12.5 3q18 0 28 -33l45 -133q7 -21 7 -31t-11.5 -13t-25.5 -7l-379 -88q-16 -4 -31 -4z" />
    <glyph glyph-name="Ecircumflex" unicode="&#xca;" horiz-adv-x="985"
d="M913 43q0 -29 -7 -36t-34 -7h-673q-27 0 -35 7t-8 36v1317q0 29 8 36t35 7h671q31 0 41.5 -4.5t10.5 -18.5t-7 -28l-38 -138q-8 -32 -48 -32h-397v-338h348q29 0 36 -7.5t7 -35.5v-135q0 -29 -8 -36t-35 -7h-348v-402h438q29 0 36 -7t7 -36v-135zM534.5 1796
q10.5 0 28.5 -12l264 -144q27 -11 27 -19q0 -17 -10 -32l-45 -86q-7 -16 -19 -16t-39 12l-206 92l-207 -92q-24 -12 -34 -12t-14 2t-10 14l-45 86q-10 15 -10 28t27 23l264 144q18 12 28.5 12z" />
    <glyph glyph-name="Edieresis" unicode="&#xcb;" horiz-adv-x="985"
d="M913 43q0 -29 -7 -36t-34 -7h-673q-27 0 -35 7t-8 36v1317q0 29 8 36t35 7h671q31 0 41.5 -4.5t10.5 -18.5t-7 -28l-38 -138q-8 -32 -48 -32h-397v-338h348q29 0 36 -7.5t7 -35.5v-135q0 -29 -8 -36t-35 -7h-348v-402h438q29 0 36 -7t7 -36v-135zM479 1632.5
q0 -59.5 -43 -101.5t-102.5 -42t-101.5 42t-42 101.5t42 102.5t101.5 43t102.5 -43t43 -102.5zM881 1632.5q0 -59.5 -43 -101.5t-102.5 -42t-101.5 42t-42 101.5t42 102.5t101.5 43t102.5 -43t43 -102.5z" />
    <glyph glyph-name="Igrave" unicode="&#xcc;" horiz-adv-x="757"
d="M672 43q0 -29 -8.5 -36t-34.5 -7h-502q-27 0 -35 7t-8 36v111q0 29 8 36t35 7h113v1009h-113q-27 0 -35 7.5t-8 35.5v111q0 29 8 36t35 7h502q27 0 35 -7t8 -36v-111q0 -29 -8.5 -36t-34.5 -7h-113v-1009h113q27 0 35 -7.5t8 -35.5v-111zM138.5 1585.5
q-11.5 2.5 -11.5 14.5t6 30l45 133q10 33 29 33q6 0 12 -3t12 -5l361 -146q31 -10 31 -21t-7 -32l-22 -69q-10 -33 -22 -33t-29 4l-379 88q-14 4 -25.5 6.5z" />
    <glyph glyph-name="Iacute" unicode="&#xcd;" horiz-adv-x="757"
d="M672 43q0 -29 -8.5 -36t-34.5 -7h-502q-27 0 -35 7t-8 36v111q0 29 8 36t35 7h113v1009h-113q-27 0 -35 7.5t-8 35.5v111q0 29 8 36t35 7h502q27 0 35 -7t8 -36v-111q0 -29 -8.5 -36t-34.5 -7h-113v-1009h113q27 0 35 -7.5t8 -35.5v-111zM193 1487q-12 0 -23 33l-23 69
q-6 18 -6 30t31 23l360 146q6 2 12.5 5t12.5 3q18 0 29 -33l45 -133q6 -18 6 -30t-11.5 -14.5t-25.5 -6.5l-379 -88q-16 -4 -28 -4z" />
    <glyph glyph-name="Icircumflex" unicode="&#xce;" horiz-adv-x="757"
d="M672 43q0 -29 -8.5 -36t-34.5 -7h-502q-27 0 -35 7t-8 36v111q0 29 8 36t35 7h113v1009h-113q-27 0 -35 7.5t-8 35.5v111q0 29 8 36t35 7h502q27 0 35 -7t8 -36v-111q0 -29 -8.5 -36t-34.5 -7h-113v-1009h113q27 0 35 -7.5t8 -35.5v-111zM668 1640q26 -10 26 -23t-10 -28
l-45 -86q-9 -16 -21 -16t-36 12l-207 92l-207 -92q-24 -12 -34 -12t-13.5 2t-9.5 14l-45 86q-11 16 -11 28t27 23l264 144q18 12 28.5 12t28.5 -12z" />
    <glyph glyph-name="Idieresis" unicode="&#xcf;" horiz-adv-x="757"
d="M672 43q0 -29 -8.5 -36t-34.5 -7h-502q-27 0 -35 7t-8 36v111q0 29 8 36t35 7h113v1009h-113q-27 0 -35 7.5t-8 35.5v111q0 29 8 36t35 7h502q27 0 35 -7t8 -36v-111q0 -29 -8.5 -36t-34.5 -7h-113v-1009h113q27 0 35 -7.5t8 -35.5v-111zM324 1632.5q0 -59.5 -43 -101.5
t-102.5 -42t-101.5 42t-42 101.5t42 102.5t101.5 43t102.5 -43t43 -102.5zM725 1632.5q0 -59.5 -43 -101.5t-102.5 -42t-101.5 42t-42 101.5t42 102.5t101.5 43t102.5 -43t43 -102.5z" />
    <glyph glyph-name="Eth" unicode="&#xd0;" horiz-adv-x="1214"
d="M537 1403q147 0 257.5 -28.5t224.5 -144t114 -525.5q0 -590 -232.5 -647.5t-370.5 -57.5h-313q-27 0 -35 8t-8 35v594h-104q-29 0 -36 7t-7 36v98q0 27 7 35t36 8h104v539q0 29 8 36t37 7h318zM524 221q86 0 146.5 21.5t116 102.5t55.5 358t-70.5 378t-247.5 101h-73
v-361h204q29 0 36 -7t7 -36v-98q0 -29 -7 -36t-36 -7h-204v-416h73z" />
    <glyph glyph-name="Ntilde" unicode="&#xd1;" horiz-adv-x="1290"
d="M885 1360q0 29 8 36t35 7h149q27 0 35 -7t8 -36v-1317q0 -29 -7 -36t-36 -7h-135q-23 0 -30 5t-17 24l-375 698q-89 162 -117 279h-4l7 -226v-737q0 -29 -8.5 -36t-35.5 -7h-149q-27 0 -35 7t-8 36v1317q0 29 8 36t35 7h168q23 0 30 -5t17 -22l338 -635q76 -144 121 -297
h4l-6 267v649zM971 1693q0 -5 -13.5 -36t-60 -94.5t-141.5 -63.5q-54 0 -94.5 24.5t-61 36t-42.5 11.5t-36 -11.5t-24.5 -25.5t-16.5 -25.5t-15 -11.5t-17 6l-97 49q-14 6 -14 17q0 2 11 32.5t59 95t141 64.5q58 0 102.5 -24.5t65 -35.5t41 -11t34 11t22.5 25.5t15.5 25.5
t14.5 11t16 -4l96 -49q4 -4 9.5 -8t5.5 -9z" />
    <glyph glyph-name="Ograve" unicode="&#xd2;" horiz-adv-x="1214"
d="M1116 700q0 -373 -136 -554t-373.5 -181t-374 181.5t-136.5 554t136.5 555t373.5 182.5q367 0 438.5 -276t71.5 -462zM658.5 180q166.5 0 166.5 522t-166.5 521.5t-219 -142t-52.5 -381t52.5 -380t219 -140.5zM369.5 1585.5q-11.5 2.5 -11.5 16.5t7 28l45 133
q10 33 28 33q6 0 12.5 -3t12.5 -5l360 -146q31 -10 31 -23q0 -12 -6 -30l-23 -69q-10 -33 -20 -33q-15 0 -31 4l-379 88q-14 4 -25.5 6.5z" />
    <glyph glyph-name="Oacute" unicode="&#xd3;" horiz-adv-x="1214"
d="M1116 700q0 -373 -136 -554t-373.5 -181t-374 181.5t-136.5 554t136.5 555t373.5 182.5q367 0 438.5 -276t71.5 -462zM658.5 180q166.5 0 166.5 522t-166.5 521.5t-219 -142t-52.5 -381t52.5 -380t219 -140.5zM432 1487q-10 0 -20 33l-23 69q-6 18 -6 31t31 22l360 146
q6 2 12.5 5t12.5 3q18 0 28 -33l45 -133q7 -21 7 -31t-11.5 -13t-25.5 -7l-379 -88q-16 -4 -31 -4z" />
    <glyph glyph-name="Ocircumflex" unicode="&#xd4;" horiz-adv-x="1214"
d="M1116 700q0 -373 -136 -554t-373.5 -181t-374 181.5t-136.5 554t136.5 555t373.5 182.5q367 0 438.5 -276t71.5 -462zM658.5 180q166.5 0 166.5 522t-166.5 521.5t-219 -142t-52.5 -381t52.5 -380t219 -140.5zM604 1796q11 0 29 -12l264 -144q27 -11 27 -19
q0 -18 -11 -32l-45 -86q-8 -16 -20 -16t-37 12l-207 92l-207 -92q-25 -12 -35 -12t-13 2t-9 14l-45 86q-10 15 -10 28t26 23l264 144q18 12 29 12z" />
    <glyph glyph-name="Otilde" unicode="&#xd5;" horiz-adv-x="1214"
d="M1116 700q0 -373 -136 -554t-373.5 -181t-374 181.5t-136.5 554t136.5 555t373.5 182.5q367 0 438.5 -276t71.5 -462zM658.5 180q166.5 0 166.5 522t-166.5 521.5t-219 -142t-52.5 -381t52.5 -380t219 -140.5zM926 1693q0 -5 -13.5 -36t-60 -94.5t-141.5 -63.5
q-55 0 -95.5 24.5t-60.5 36t-42 11.5t-36 -11.5t-24.5 -25.5t-16.5 -25.5t-15 -11.5t-18 6l-96 49q-14 6 -14 17q0 2 11 32.5t59 95t141 64.5q58 0 102.5 -24.5t65 -35.5t41 -11t34 11t22.5 25.5t15.5 25.5t14.5 11t16 -4l96 -49q4 -4 9.5 -8t5.5 -9z" />
    <glyph glyph-name="Odieresis" unicode="&#xd6;" horiz-adv-x="1214"
d="M1116 700q0 -373 -136 -554t-373.5 -181t-374 181.5t-136.5 554t136.5 555t373.5 182.5q367 0 438.5 -276t71.5 -462zM658.5 180q166.5 0 166.5 522t-166.5 521.5t-219 -142t-52.5 -381t52.5 -380t219 -140.5zM549 1632.5q0 -59.5 -43 -101.5t-102.5 -42t-101.5 42
t-42 101.5t42 102.5t101.5 43t102.5 -43t43 -102.5zM950 1632.5q0 -59.5 -43 -101.5t-102.5 -42t-101 42t-41.5 101.5t41.5 102.5t101 43t102.5 -43t43 -102.5z" />
    <glyph glyph-name="multiply" unicode="&#xd7;"
d="M824 131q-10 0 -23 16l-232 236l-231 -236q-12 -16 -22 -16t-27 16l-99 97q-14 14 -14 24.5t14 24.5l236 231l-236 232q-14 14 -14 24.5t14 24.5l99 98q15 15 25 15t24 -15l231 -235l232 235q15 15 25 15t24 -15l96 -96q17 -17 17 -28t-17 -23l-233 -232
q233 -231 241.5 -239.5t8.5 -16.5t-17 -24l-96 -97q-16 -16 -26 -16z" />
    <glyph glyph-name="Oslash" unicode="&#xd8;" horiz-adv-x="1214"
d="M1116 704q0 -377 -136 -558t-374 -181q-170 0 -272 78l-86 -160q-14 -27 -27 -27t-31 9l-63 33q-29 14 -29 27t11 30l110 209q-123 183 -123 546t136.5 545.5t373.5 182.5q133 0 250 -64l66 123q6 10 11 19.5t17 9.5t27 -10l65 -33q29 -15 29 -25q0 -19 -10 -31l-86 -170
q141 -176 141 -553zM387 700v-115q0 -115 8 -153h4l338 715q-25 35 -52.5 55.5t-78.5 20.5q-219 0 -219 -523zM606 180q219 0 219 520q0 166 -22 269h-4l-334 -709q54 -80 141 -80z" />
    <glyph glyph-name="Ugrave" unicode="&#xd9;" horiz-adv-x="1290"
d="M1139 475q0 -250 -110.5 -380t-446 -130t-383 197.5t-47.5 312.5v885q0 29 8 36t35 7h190q27 0 35 -7t8 -36v-885q0 -142 26.5 -190.5t69.5 -73.5t150.5 -25t147.5 73.5t40 215.5v885q0 29 8.5 36t34.5 7h191q27 0 35 -7t8 -36v-885zM414.5 1586q-11.5 3 -11.5 13t7 31
l45 133q10 33 28 33q6 0 12.5 -3t12.5 -5l360 -146q31 -10 31 -23q0 -12 -6 -30l-23 -69q-10 -33 -20 -33q-15 0 -31 4l-379 88q-14 4 -25.5 7z" />
    <glyph glyph-name="Uacute" unicode="&#xda;" horiz-adv-x="1290"
d="M1139 475q0 -250 -110.5 -380t-446 -130t-383 197.5t-47.5 312.5v885q0 29 8 36t35 7h190q27 0 35 -7t8 -36v-885q0 -142 26.5 -190.5t69.5 -73.5t150.5 -25t147.5 73.5t40 215.5v885q0 29 8.5 36t34.5 7h191q27 0 35 -7t8 -36v-885zM484 1487q-12 0 -23 33l-23 69
q-6 18 -6 30t31 23l360 146q6 2 12.5 5t12.5 3q18 0 29 -33l45 -133q6 -18 6 -30t-11.5 -14.5t-25.5 -6.5l-379 -88q-16 -4 -28 -4z" />
    <glyph glyph-name="Ucircumflex" unicode="&#xdb;" horiz-adv-x="1290"
d="M1139 475q0 -250 -110.5 -380t-446 -130t-383 197.5t-47.5 312.5v885q0 29 8 36t35 7h190q27 0 35 -7t8 -36v-885q0 -142 26.5 -190.5t69.5 -73.5t150.5 -25t147.5 73.5t40 215.5v885q0 29 8.5 36t34.5 7h191q27 0 35 -7t8 -36v-885zM965 1621q0 -15 -11 -32l-45 -86
q-9 -16 -21 -16t-36 12l-207 92l-207 -92q-24 -12 -34 -12t-13.5 2t-9.5 14l-45 86q-10 15 -10 28t26 23l264 144q18 12 29 12t29 -12l264 -144q27 -10 27 -19z" />
    <glyph glyph-name="Udieresis" unicode="&#xdc;" horiz-adv-x="1290"
d="M1139 475q0 -250 -110.5 -380t-446 -130t-383 197.5t-47.5 312.5v885q0 29 8 36t35 7h190q27 0 35 -7t8 -36v-885q0 -142 26.5 -190.5t69.5 -73.5t150.5 -25t147.5 73.5t40 215.5v885q0 29 8.5 36t34.5 7h191q27 0 35 -7t8 -36v-885zM588 1632.5q0 -59.5 -43 -101.5
t-102.5 -42t-101.5 42t-42 101.5t42 102.5t101.5 43t102.5 -43t43 -102.5zM989 1632.5q0 -59.5 -43 -101.5t-102.5 -42t-101.5 42t-42 101.5t42 102.5t101.5 43t102.5 -43t43 -102.5z" />
    <glyph glyph-name="Yacute" unicode="&#xdd;" horiz-adv-x="1062"
d="M672 43q0 -29 -8.5 -36t-34.5 -7h-191q-27 0 -35 7t-8 36v532l-385 746q-14 25 -14 42t43 23l205 33q10 2 11 2h11q18 0 31 -26l166 -351q53 -123 82 -223h4q47 155 90 240l152 319q14 31 20 36t15 5t30 -4l174 -37q37 -11 37 -26q0 -6 -4 -13.5t-10 -19.5l-381 -746
v-532zM365 1487q-12 0 -23 33l-23 69q-6 18 -6 30t31 23l361 146q6 2 12 5t12 3q18 0 29 -33l45 -133q6 -18 6 -30t-11.5 -14.5t-25.5 -6.5l-379 -88q-16 -4 -28 -4z" />
    <glyph glyph-name="Thorn" unicode="&#xde;" horiz-adv-x="1062"
d="M496 561q115 0 175 44.5t60 182.5q0 167 -88 176t-127 9h-84v-412h64zM432 43q0 -29 -8 -36t-35 -7h-190q-27 0 -35 7t-8 36v1317q0 29 8 36t35 7h190q27 0 35 -7t8 -36v-172h98q61 0 144.5 -6t157 -42t125 -115t51.5 -214q0 -240 -140.5 -352.5t-326.5 -112.5h-109v-303
z" />
    <glyph glyph-name="germandbls" unicode="&#xdf;" horiz-adv-x="1214"
d="M794 156q130 0 130 122q0 60 -48.5 107t-98.5 84q-115 85 -166.5 146.5t-51.5 145.5q0 83 31 130t67.5 88t67.5 79t31 96t-42 91t-116 33q-130 0 -165.5 -63.5t-35.5 -180.5v-1005q0 -16 -5 -22.5t-23 -6.5h-203q-18 0 -23.5 6t-5.5 23v983q0 218 103 344.5t367 126.5
q263 0 328.5 -109.5t65.5 -188.5t-32.5 -130t-70.5 -90t-70.5 -71t-32.5 -68t23.5 -63.5t60 -57t82 -64.5t90.5 -80q108 -108 108 -268t-98.5 -244t-255.5 -84t-217 30t-60 46q0 4 4 20l33 134q3 14 15 14t32.5 -8t69 -26.5t112.5 -18.5z" />
    <glyph glyph-name="agrave" unicode="&#xe0;" horiz-adv-x="985"
d="M701 -35q-10 0 -29 44t-27 79q-54 -54 -110.5 -88.5t-155.5 -34.5q-141 0 -224 85t-83 236t106 241t246.5 95t181.5 5v63q0 79 -27.5 115.5t-114.5 36.5t-167 -31t-92 -31t-19 21l-41 125q-6 12 -6 24q0 32 118 64.5t243 32.5q193 0 272.5 -85t79.5 -245v-395
q0 -121 18.5 -170.5t26.5 -65.5t8 -28t-18 -21l-156 -64q-6 -2 -13 -5t-17 -3zM606 459h-90q-91 0 -145 -48.5t-54 -111.5t38.5 -103t96.5 -40t97 29.5t57 47.5v226zM250 1301q0 17 10 32l62 125q6 10 12 19.5t17 9.5t28 -12l338 -189q12 -8 19 -13t7 -17t-10 -27l-35 -74
q-6 -12 -11 -20.5t-17 -8.5t-27 9l-360 143q-33 11 -33 23z" />
    <glyph glyph-name="aacute" unicode="&#xe1;" horiz-adv-x="985"
d="M701 -35q-10 0 -29 44t-27 79q-54 -54 -110.5 -88.5t-155.5 -34.5q-141 0 -224 85t-83 236t106 241t246.5 95t181.5 5v63q0 79 -27.5 115.5t-114.5 36.5t-167 -31t-92 -31t-19 21l-41 125q-6 12 -6 24q0 32 118 64.5t243 32.5q193 0 272.5 -85t79.5 -245v-395
q0 -121 18.5 -170.5t26.5 -65.5t8 -28t-18 -21l-156 -64q-6 -2 -13 -5t-17 -3zM606 459h-90q-91 0 -145 -48.5t-54 -111.5t38.5 -103t96.5 -40t97 29.5t57 47.5v226zM340 1126q-10 0 -15.5 8.5t-11.5 20.5l-34 74q-11 16 -11 27t7.5 16.5t19.5 13.5l338 189q19 12 29 12
t16 -9.5t12 -19.5l62 -125q10 -15 10 -27q0 -18 -33 -28l-360 -143q-19 -9 -29 -9z" />
    <glyph glyph-name="acircumflex" unicode="&#xe2;" horiz-adv-x="985"
d="M701 -35q-10 0 -29 44t-27 79q-54 -54 -110.5 -88.5t-155.5 -34.5q-141 0 -224 85t-83 236t106 241t246.5 95t181.5 5v63q0 79 -27.5 115.5t-114.5 36.5t-167 -31t-92 -31t-19 21l-41 125q-6 12 -6 24q0 32 118 64.5t243 32.5q193 0 272.5 -85t79.5 -245v-395
q0 -121 18.5 -170.5t26.5 -65.5t8 -28t-18 -21l-156 -64q-6 -2 -13 -5t-17 -3zM606 459h-90q-91 0 -145 -48.5t-54 -111.5t38.5 -103t96.5 -40t97 29.5t57 47.5v226zM495.5 1485q8.5 0 15.5 -6t13 -11l262 -192q25 -19 25 -32t-12 -25l-47 -66q-21 -27 -29 -27t-14.5 4.5
t-14.5 8.5l-198 118l-199 -118q-8 -4 -14.5 -8.5t-14.5 -4.5t-28 27l-47 66q-13 13 -13 25t8.5 19t16.5 13l262 192q6 4 13 10.5t15.5 6.5z" />
    <glyph glyph-name="atilde" unicode="&#xe3;" horiz-adv-x="985"
d="M701 -35q-10 0 -29 44t-27 79q-54 -54 -110.5 -88.5t-155.5 -34.5q-141 0 -224 85t-83 236t106 241t246.5 95t181.5 5v63q0 79 -27.5 115.5t-114.5 36.5t-167 -31t-92 -31t-19 21l-41 125q-6 12 -6 24q0 32 118 64.5t243 32.5q193 0 272.5 -85t79.5 -245v-395
q0 -121 18.5 -170.5t26.5 -65.5t8 -28t-18 -21l-156 -64q-6 -2 -13 -5t-17 -3zM606 459h-90q-91 0 -145 -48.5t-54 -111.5t38.5 -103t96.5 -40t97 29.5t57 47.5v226zM825 1360q0 -8 -13 -40t-65 -98.5t-149 -66.5q-53 0 -97 25.5t-64.5 38t-44.5 12.5t-39 -12.5t-25.5 -26.5
t-17.5 -26.5t-16 -12.5t-18 6l-100 60q-16 6 -16 18q0 2 12 34t62 99.5t147 67.5q52 0 104 -26t73.5 -38t42.5 -12t35.5 12t24 26.5t16.5 27t15 12.5t17 -4l100 -60q16 -8 16 -16z" />
    <glyph glyph-name="adieresis" unicode="&#xe4;" horiz-adv-x="985"
d="M701 -35q-10 0 -29 44t-27 79q-54 -54 -110.5 -88.5t-155.5 -34.5q-141 0 -224 85t-83 236t106 241t246.5 95t181.5 5v63q0 79 -27.5 115.5t-114.5 36.5t-167 -31t-92 -31t-19 21l-41 125q-6 12 -6 24q0 32 118 64.5t243 32.5q193 0 272.5 -85t79.5 -245v-395
q0 -121 18.5 -170.5t26.5 -65.5t8 -28t-18 -21l-156 -64q-6 -2 -13 -5t-17 -3zM606 459h-90q-91 0 -145 -48.5t-54 -111.5t38.5 -103t96.5 -40t97 29.5t57 47.5v226zM442 1294.5q0 -59.5 -43 -101.5t-102 -42t-101 42t-42 101.5t42 102.5t101 43t102 -43t43 -102.5z
M844 1294.5q0 -59.5 -43 -101.5t-102.5 -42t-101.5 42t-42 101.5t42 102.5t101.5 43t102.5 -43t43 -102.5z" />
    <glyph glyph-name="aring" unicode="&#xe5;" horiz-adv-x="985"
d="M701 -35q-10 0 -29 44t-27 79q-54 -54 -110.5 -88.5t-155.5 -34.5q-141 0 -224 85t-83 236t106 241t246.5 95t181.5 5v63q0 79 -27.5 115.5t-114.5 36.5t-167 -31t-92 -31t-19 21l-41 125q-6 12 -6 24q0 32 118 64.5t243 32.5q193 0 272.5 -85t79.5 -245v-395
q0 -121 18.5 -170.5t26.5 -65.5t8 -28t-18 -21l-156 -64q-6 -2 -13 -5t-17 -3zM606 459h-90q-91 0 -145 -48.5t-54 -111.5t38.5 -103t96.5 -40t97 29.5t57 47.5v226zM715 1313q0 -45 -17.5 -84t-46 -67.5t-68.5 -45t-83 -16.5t-82 16.5t-69 45t-46 67.5t-16 84t16 84
t46 68.5t69 46t82 16.5t83 -16.5t68.5 -46t46 -68.5t17.5 -84zM501 1227q36 0 61.5 24.5t25.5 61.5t-25.5 62.5t-61.5 25.5t-61.5 -24.5t-25.5 -62.5t25.5 -62.5t61.5 -24.5z" />
    <glyph glyph-name="ae" unicode="&#xe6;" horiz-adv-x="1517"
d="M1024 1047q410 0 410 -560q0 -29 -9.5 -40t-38.5 -11h-542q0 -174 74 -215t136 -41t105 10.5t76 23.5t54.5 23.5t33.5 10.5t20 -17l52 -122q6 -11 6 -27t-35 -37.5t-123 -50.5t-209 -29q-213 0 -321 139q-77 -61 -154 -100t-180 -39q-141 0 -224 84.5t-83 222.5t59 208.5
t143 103t173.5 38t150.5 5.5v63q0 79 -44 141.5t-190.5 5.5t-158.5 -57t-19 21l-41 125q-6 12 -6 24q0 32 118 64.5t208 32.5t172.5 -30.5t116.5 -103.5q64 82 140.5 108t129.5 26zM1157 627q0 95 -27 162t-122 67t-125 -69t-39 -160h313zM598 459h-88q-87 0 -140 -48.5
t-53 -111.5t37.5 -103t95.5 -40t94 29.5t54 47.5v226z" />
    <glyph glyph-name="ccedilla" unicode="&#xe7;" horiz-adv-x="872"
d="M489 -434q-157 0 -157 37q0 8 4 24l14 78l2 8q2 8 10.5 8t34 -7t57.5 -7t50 16.5t18 42.5t-28.5 36t-51 10t-26.5 5t-4 16v17q0 17 2 27l4 100q-160 33 -247 159t-87 369t126 392.5t351 149.5q91 0 191 -39.5t100 -85.5q0 -7 -6 -19l-76 -133q-10 -10 -16 -10t-62.5 41
t-130.5 41q-104 0 -152.5 -82t-48.5 -256t46.5 -254t164.5 -80q77 0 122 35t57 35t18 -11l53 -135q6 -12 6 -24q0 -26 -77 -60.5t-164 -42.5v-45q75 -11 101 -65t26 -97q0 -80 -58.5 -137t-165.5 -57z" />
    <glyph glyph-name="egrave" unicode="&#xe8;" horiz-adv-x="1024"
d="M532 1047q410 0 410 -560q0 -29 -9 -40t-38 -11h-551q0 -256 225 -256q90 0 148.5 23.5t80 34t33.5 10.5t21 -17l51 -122q6 -11 6 -27t-34.5 -37.5t-181 -69.5t-327.5 16.5t-231.5 213.5t-50.5 281q0 256 122 408.5t326 152.5zM666 627q0 155 -47.5 192t-103.5 37
q-99 0 -130.5 -68.5t-40.5 -160.5h322zM281 1301q0 17 10 32l61 125q17 29 27 29t31 -12l338 -189q12 -8 19 -13t7 -17t-10 -27l-35 -74q-6 -12 -11 -20.5t-17 -8.5t-27 9l-361 143q-32 11 -32 23z" />
    <glyph glyph-name="eacute" unicode="&#xe9;" horiz-adv-x="1024"
d="M532 1047q410 0 410 -560q0 -29 -9 -40t-38 -11h-551q0 -256 225 -256q90 0 148.5 23.5t80 34t33.5 10.5t21 -17l51 -122q6 -11 6 -27t-34.5 -37.5t-181 -69.5t-327.5 16.5t-231.5 213.5t-50.5 281q0 256 122 408.5t326 152.5zM666 627q0 155 -47.5 192t-103.5 37
q-99 0 -130.5 -68.5t-40.5 -160.5h322zM358 1126q-10 0 -15 8.5t-11 20.5l-35 74q-10 15 -10 27t7 17t19 13l338 189q19 12 29 12t16 -9.5t13 -19.5l61 -125q10 -15 10 -27q0 -18 -32 -28l-361 -143q-19 -9 -29 -9z" />
    <glyph glyph-name="ecircumflex" unicode="&#xea;" horiz-adv-x="1024"
d="M532 1047q410 0 410 -560q0 -29 -9 -40t-38 -11h-551q0 -256 225 -256q90 0 148.5 23.5t80 34t33.5 10.5t21 -17l51 -122q6 -11 6 -27t-34.5 -37.5t-181 -69.5t-327.5 16.5t-231.5 213.5t-50.5 281q0 256 122 408.5t326 152.5zM666 627q0 155 -47.5 192t-103.5 37
q-99 0 -130.5 -68.5t-40.5 -160.5h322zM534.5 1485q8.5 0 15.5 -6t13 -11l262 -192q25 -19 25 -32t-12 -25l-47 -66q-21 -27 -29 -27t-14.5 4.5t-14.5 8.5l-198 118l-199 -118q-8 -4 -14.5 -8.5t-14.5 -4.5t-28 27l-48 66q-12 12 -12 25t8.5 19.5t16.5 12.5l262 192
q6 4 13 10.5t15.5 6.5z" />
    <glyph glyph-name="edieresis" unicode="&#xeb;" horiz-adv-x="1024"
d="M532 1047q410 0 410 -560q0 -29 -9 -40t-38 -11h-551q0 -256 225 -256q90 0 148.5 23.5t80 34t33.5 10.5t21 -17l51 -122q6 -11 6 -27t-34.5 -37.5t-181 -69.5t-327.5 16.5t-231.5 213.5t-50.5 281q0 256 122 408.5t326 152.5zM666 627q0 155 -47.5 192t-103.5 37
q-99 0 -130.5 -68.5t-40.5 -160.5h322zM479 1294.5q0 -59.5 -43 -101.5t-102.5 -42t-101.5 42t-42 101.5t42 102.5t101.5 43t102.5 -43t43 -102.5zM881 1294.5q0 -59.5 -43 -101.5t-102.5 -42t-101.5 42t-42 101.5t42 102.5t101.5 43t102.5 -43t43 -102.5z" />
    <glyph glyph-name="igrave" unicode="&#xec;" horiz-adv-x="645"
d="M479 29q0 -16 -5 -22.5t-23 -6.5h-203q-18 0 -23.5 6t-5.5 23v792h-158q-18 0 -23 6.5t-5 22.5v133q0 16 5 22.5t23 6.5h390q18 0 23 -6.5t5 -22.5v-954zM49 1301q0 17 10 32l62 125q6 10 12 19.5t17 9.5t28 -12l338 -189l14 -9q13 -9 13 -22t-11 -26l-34 -74
q-14 -29 -25 -29q-15 0 -31 9l-360 143q-33 11 -33 23z" />
    <glyph glyph-name="iacute" unicode="&#xed;" horiz-adv-x="645"
d="M479 29q0 -16 -5 -22.5t-23 -6.5h-203q-18 0 -23.5 6t-5.5 23v792h-158q-18 0 -23 6.5t-5 22.5v133q0 16 5 22.5t23 6.5h390q18 0 23 -6.5t5 -22.5v-954zM176 1126q-10 0 -15 8.5t-11 20.5l-35 74q-11 16 -11 27t7.5 16.5t19.5 13.5l338 189q18 12 28 12q11 0 17 -9.5
t12 -19.5l62 -125q10 -15 10 -27q0 -18 -33 -28l-360 -143q-19 -9 -29 -9z" />
    <glyph glyph-name="icircumflex" unicode="&#xee;" horiz-adv-x="645"
d="M479 29q0 -16 -5 -22.5t-23 -6.5h-203q-18 0 -23.5 6t-5.5 23v792h-158q-18 0 -23 6.5t-5 22.5v133q0 16 5 22.5t23 6.5h390q18 0 23 -6.5t5 -22.5v-954zM338 1485q8 0 15 -6t14 -11l262 -192q24 -18 24 -32t-12 -25l-47 -66q-21 -27 -29 -27t-14 4.5t-14 8.5l-199 118
l-199 -118q-8 -4 -14 -8.5t-14 -4.5t-29 27l-47 66q-12 12 -12 25t8 19.5t16 12.5l262 192q6 4 13.5 10.5t15.5 6.5z" />
    <glyph glyph-name="idieresis" unicode="&#xef;" horiz-adv-x="645"
d="M479 29q0 -16 -5 -22.5t-23 -6.5h-203q-18 0 -23.5 6t-5.5 23v792h-158q-18 0 -23 6.5t-5 22.5v133q0 16 5 22.5t23 6.5h390q18 0 23 -6.5t5 -22.5v-954zM258 1294.5q0 -59.5 -43 -101.5t-102.5 -42t-101.5 42t-42 101.5t42 102.5t101.5 43t102.5 -43t43 -102.5z
M659 1294.5q0 -59.5 -43 -101.5t-102 -42t-101 42t-42 101.5t42 102.5t101 43t102 -43t43 -102.5z" />
    <glyph glyph-name="eth" unicode="&#xf0;" horiz-adv-x="1024"
d="M696 1296q260 -455 260 -798q0 -221 -110.5 -377t-330.5 -156t-333.5 147.5t-113.5 394.5q0 248 120.5 394t290.5 146q71 0 123 -37l4 4q-49 117 -96 194l-188 -88q-8 -4 -17 -4t-16 17l-35 75q-6 12 -6 19.5t16 15.5l180 84q-10 16 -54 80t-44 77t27 17l125 15q6 2 19 2
t30.5 -13.5t33 -31t29 -35t21.5 -27.5l188 88q12 6 20 6t15 -18l31 -68q8 -16 8 -25t-23 -18zM515 170q181 0 181 289q0 119 -15 251t-167 132q-144 0 -157 -132t-13 -205t6 -134.5t35 -131t130 -69.5z" />
    <glyph glyph-name="ntilde" unicode="&#xf1;" horiz-adv-x="1099"
d="M956 29q0 -16 -5 -22.5t-23 -6.5h-203q-18 0 -23.5 6t-5.5 23v630q0 79 -23 125.5t-88 46.5t-102 -23.5t-54 -37.5t-28 -22v-719q0 -16 -5 -22.5t-23 -6.5h-203q-18 0 -23.5 6t-5.5 23v618q0 235 -19.5 268t-19.5 51t23 23l156 51q18 6 34 6q28 1 62 -141q23 20 92.5 81
t232.5 61t208.5 -103.5t45.5 -195.5v-719zM664 1155q-48 0 -76.5 12.5t-51 25.5t-42.5 25.5t-44 12.5t-39.5 -12.5t-25.5 -26.5t-17.5 -26.5t-16.5 -12.5t-17 6l-101 60q-16 6 -16 18q0 2 12.5 34t61.5 99.5t147 67.5q54 0 105 -26t72.5 -38t42.5 -12t36 12t24 26.5t16.5 27
t15.5 12.5t16 -4l100 -60q16 -8 16 -16t-13 -40t-41.5 -69t-72 -66.5t-91.5 -29.5z" />
    <glyph glyph-name="ograve" unicode="&#xf2;" horiz-adv-x="1062"
d="M530.5 170q53.5 0 86 25.5t51 70.5t24.5 106.5t6 133.5t-6 133t-24.5 106.5t-51 71t-86 25.5t-86 -25.5t-51 -71t-25 -106.5t-6.5 -133t6.5 -133.5t25 -106.5t51 -70.5t86 -25.5zM205 900.5q119 146.5 326 146.5t325.5 -147.5t118.5 -394t-118.5 -393.5t-325.5 -147
t-326 146t-119 394.5t119 395zM307 1278q-33 11 -33 25t11 30l61 125q17 29 28 29t29 -12l338 -189l13 -9q14 -9 14 -21t-10 -27l-35 -74q-6 -12 -11 -20.5t-17 -8.5t-27 9z" />
    <glyph glyph-name="oacute" unicode="&#xf3;" horiz-adv-x="1062"
d="M530.5 170q53.5 0 86 25.5t51 70.5t24.5 106.5t6 133.5t-6 133t-24.5 106.5t-51 71t-86 25.5t-86 -25.5t-51 -71t-25 -106.5t-6.5 -133t6.5 -133.5t25 -106.5t51 -70.5t86 -25.5zM205 900.5q119 146.5 326 146.5t325.5 -147.5t118.5 -394t-118.5 -393.5t-325.5 -147
t-326 146t-119 394.5t119 395zM401 1135q-18 -9 -29 -9t-26 29l-35 74q-10 15 -10 27t7 17t20 13l338 189q18 12 28 12t16.5 -9.5t12.5 -19.5l61 -125q11 -16 11 -27q0 -17 -33 -28z" />
    <glyph glyph-name="ocircumflex" unicode="&#xf4;" horiz-adv-x="1062"
d="M530.5 170q53.5 0 86 25.5t51 70.5t24.5 106.5t6 133.5t-6 133t-24.5 106.5t-51 71t-86 25.5t-86 -25.5t-51 -71t-25 -106.5t-6.5 -133t6.5 -133.5t25 -106.5t51 -70.5t86 -25.5zM205 900.5q119 146.5 326 146.5t325.5 -147.5t118.5 -394t-118.5 -393.5t-325.5 -147
t-326 146t-119 394.5t119 395zM532.5 1485q8.5 0 15.5 -6t13 -11l262 -192q25 -19 25 -32t-12 -25l-48 -66q-20 -27 -28 -27t-14.5 4.5t-14.5 8.5l-199 118l-198 -118q-8 -4 -14.5 -8.5t-14.5 -4.5t-29 27l-47 66q-12 12 -12 26t25 31l262 192q6 4 13 10.5t15.5 6.5z" />
    <glyph glyph-name="otilde" unicode="&#xf5;" horiz-adv-x="1062"
d="M530.5 170q53.5 0 86 25.5t51 70.5t24.5 106.5t6 133.5t-6 133t-24.5 106.5t-51 71t-86 25.5t-86 -25.5t-51 -71t-25 -106.5t-6.5 -133t6.5 -133.5t25 -106.5t51 -70.5t86 -25.5zM205 900.5q119 146.5 326 146.5t325.5 -147.5t118.5 -394t-118.5 -393.5t-325.5 -147
t-326 146t-119 394.5t119 395zM864 1360q0 -8 -13 -40t-65 -98.5t-149 -66.5q-53 0 -97 25.5t-64.5 38t-44.5 12.5t-39 -12.5t-25.5 -26.5t-17.5 -26.5t-16 -12.5t-18 6l-100 60q-16 6 -16 18q0 2 12 34t61 99.5t148 67.5q53 0 104 -26t72.5 -38t43.5 -12t36 12t23.5 26.5
t16.5 27t15 12.5t17 -4l100 -60q16 -8 16 -16z" />
    <glyph glyph-name="odieresis" unicode="&#xf6;" horiz-adv-x="1062"
d="M530.5 170q53.5 0 86 25.5t51 70.5t24.5 106.5t6 133.5t-6 133t-24.5 106.5t-51 71t-86 25.5t-86 -25.5t-51 -71t-25 -106.5t-6.5 -133t6.5 -133.5t25 -106.5t51 -70.5t86 -25.5zM205 900.5q119 146.5 326 146.5t325.5 -147.5t118.5 -394t-118.5 -393.5t-325.5 -147
t-326 146t-119 394.5t119 395zM479 1294.5q0 -59.5 -43 -101.5t-102.5 -42t-101.5 42t-42 101.5t42 102.5t101.5 43t102.5 -43t43 -102.5zM881 1294.5q0 -59.5 -43 -101.5t-102.5 -42t-101.5 42t-42 101.5t42 102.5t101.5 43t102.5 -43t43 -102.5z" />
    <glyph glyph-name="divide" unicode="&#xf7;"
d="M715 174.5q0 -61.5 -43 -103.5t-102.5 -42t-102.5 42t-43 103.5t42 103t102 41.5t103.5 -41.5t43.5 -103zM1034 459q0 -23 -6 -29t-29 -6h-860q-23 0 -29 6t-6 29v135q0 23 7.5 29t27.5 6h860q23 0 29 -6.5t6 -28.5v-135zM715 877q0 -61 -43 -102.5t-102.5 -41.5
t-102.5 42t-43 103.5t42 103.5t102 42t103.5 -43t43.5 -104z" />
    <glyph glyph-name="oslash" unicode="&#xf8;" horiz-adv-x="1024"
d="M821 918q135 -135 135 -398t-119 -409t-325 -146q-113 0 -205 47l-57 -100q-12 -23 -21.5 -23t-25.5 9l-51 28q-23 12 -23 24.5t8 24.5l64 115q-133 137 -133 400t119 410t325 147q139 0 205 -48l53 93q11 22 21 22t26 -8l51 -29q25 -13 25 -25t-10 -22zM514 170
q118 0 157.5 87t39.5 236t-25 226l-270 -518q37 -31 98 -31zM313 506q0 -72 6.5 -117t9.5 -68.5t7 -35.5l272 522q-39 35 -99 35q-114 0 -155 -87t-41 -249z" />
    <glyph glyph-name="ugrave" unicode="&#xf9;" horiz-adv-x="1099"
d="M952 1004v-639q0 -227 19.5 -264.5t19.5 -54.5t-22 -23l-156 -52q-19 -6 -35 -6q-30 0 -61 121q-134 -121 -312 -121t-223 103.5t-45 195.5v705q0 23 10.5 27.5t28.5 9.5l172 34l33 7q10 0 13 -8.5t3 -34.5v-652q0 -78 24 -125t91 -47q95 0 180 64v725q0 23 10.5 27.5
t28.5 9.5l207 41q14 0 14 -43zM352 1278q-33 11 -33 25t11 30l61 125q17 29 27 29t31 -12l337 -189l14 -9q13 -9 13 -21t-10 -27l-35 -74q-6 -12 -11 -20.5t-17 -8.5t-27 9z" />
    <glyph glyph-name="uacute" unicode="&#xfa;" horiz-adv-x="1099"
d="M952 1004v-639q0 -227 19.5 -264.5t19.5 -54.5t-22 -23l-156 -52q-19 -6 -35 -6q-30 0 -61 121q-134 -121 -312 -121t-223 103.5t-45 195.5v705q0 23 10.5 27.5t28.5 9.5l172 34l33 7q10 0 13 -8.5t3 -34.5v-652q0 -78 24 -125t91 -47q95 0 180 64v725q0 23 10.5 27.5
t28.5 9.5l207 41q14 0 14 -43zM424 1126q-10 0 -15.5 8.5t-11.5 20.5l-35 74q-10 15 -10 27t7.5 17l19.5 13l338 189q18 12 28 12t16.5 -9.5t12.5 -19.5l62 -125q10 -15 10 -27q0 -18 -33 -28l-360 -143q-19 -9 -29 -9z" />
    <glyph glyph-name="ucircumflex" unicode="&#xfb;" horiz-adv-x="1099"
d="M952 1004v-639q0 -227 19.5 -264.5t19.5 -54.5t-22 -23l-156 -52q-19 -6 -35 -6q-30 0 -61 121q-134 -121 -312 -121t-223 103.5t-45 195.5v705q0 23 10.5 27.5t28.5 9.5l172 34l33 7q10 0 13 -8.5t3 -34.5v-652q0 -78 24 -125t91 -47q95 0 180 64v725q0 23 10.5 27.5
t28.5 9.5l207 41q14 0 14 -43zM856 1276q25 -19 25 -31q0 -13 -13 -26l-47 -66q-21 -27 -29 -27t-14 4.5t-14 8.5l-199 118l-198 -118q-8 -4 -14.5 -8.5t-14.5 -4.5t-29 27l-47 66q-12 12 -12 25t8 19.5t16 12.5l263 192q6 4 13 10.5t15.5 6.5t28.5 -17z" />
    <glyph glyph-name="udieresis" unicode="&#xfc;" horiz-adv-x="1099"
d="M952 1004v-639q0 -227 19.5 -264.5t19.5 -54.5t-22 -23l-156 -52q-19 -6 -35 -6q-30 0 -61 121q-134 -121 -312 -121t-223 103.5t-45 195.5v705q0 23 10.5 27.5t28.5 9.5l172 34l33 7q10 0 13 -8.5t3 -34.5v-652q0 -78 24 -125t91 -47q95 0 180 64v725q0 23 10.5 27.5
t28.5 9.5l207 41q14 0 14 -43zM500 1294.5q0 -59.5 -43 -101.5t-102.5 -42t-101.5 42t-42 101.5t42 102.5t101.5 43t102.5 -43t43 -102.5zM901 1294.5q0 -59.5 -43 -101.5t-102.5 -42t-101.5 42t-42 101.5t42 102.5t101.5 43t102.5 -43t43 -102.5z" />
    <glyph glyph-name="yacute" unicode="&#xfd;" horiz-adv-x="985"
d="M945 974q-3 -9 -7 -22l-201 -739q-14 -49 -30.5 -110.5t-46.5 -162t-56 -169.5q-27 -68 -60.5 -106t-73.5 -59.5t-84 -30.5t-109 -9t-161 33t-96 61q0 8 9 25l61 133q6 14 16 14t25.5 -8t58 -25.5t87.5 -17.5q80 0 112 35.5t57 115.5l21 68h-86q-20 0 -26.5 6t-10.5 21
l-313 925q-22 44 -5 49t40 9l170 18l32 2q19 0 29 -41l133 -495q8 -35 36 -148.5t42 -206.5h4q4 31 14.5 84t28 150t25.5 121l108 493q11 43 35 43l37 -2l143 -18q45 -8 45 -17q0 -10 -3 -19zM399 1135q-18 -9 -29 -9t-26 29l-35 74q-10 15 -10 27t7 17t20 13l338 189
q18 12 28 12t16.5 -9.5t12.5 -19.5l61 -125q11 -16 11 -27q0 -17 -33 -28z" />
    <glyph glyph-name="thorn" unicode="&#xfe;" horiz-adv-x="1062"
d="M532 170q106 0 144.5 79t38.5 252t-35 257t-131 84q-66 0 -103.5 -29t-60.5 -49v-555q29 -16 60 -27.5t87 -11.5zM621 1047q172 0 263 -131.5t91 -396.5t-88 -409.5t-289 -144.5q-90 0 -135 18.5t-78 34.5v-374q0 -23 -10 -28t-29 -9l-201 -41q-12 0 -16 8t-4 35v1796
q0 23 10 28t27 9l200 41q14 0 18.5 -8.5t4.5 -34.5v-477q96 84 236 84z" />
    <glyph glyph-name="ydieresis" unicode="&#xff;" horiz-adv-x="985"
d="M945 974q-3 -9 -7 -22l-201 -739q-14 -49 -30.5 -110.5t-46.5 -162t-56 -169.5q-27 -68 -60.5 -106t-73.5 -59.5t-84 -30.5t-109 -9t-161 33t-96 61q0 8 9 25l61 133q6 14 16 14t25.5 -8t58 -25.5t87.5 -17.5q80 0 112 35.5t57 115.5l21 68h-86q-20 0 -26.5 6t-10.5 21
l-313 925q-22 44 -5 49t40 9l170 18l32 2q19 0 29 -41l133 -495q8 -35 36 -148.5t42 -206.5h4q4 31 14.5 84t28 150t25.5 121l108 493q11 43 35 43l37 -2l143 -18q45 -8 45 -17q0 -10 -3 -19zM455 1294.5q0 -59.5 -43 -101.5t-102.5 -42t-101.5 42t-42 101.5t42 102.5
t101.5 43t102.5 -43t43 -102.5zM856 1294.5q0 -59.5 -43 -101.5t-102.5 -42t-101.5 42t-42 101.5t42 102.5t101.5 43t102.5 -43t43 -102.5z" />
    <glyph glyph-name="Amacron" unicode="&#x100;" horiz-adv-x="1214"
d="M637 911q-6 31 -13.5 67t-12.5 75t-10 75.5t-9 69.5h-4q-15 -162 -47 -287l-90 -352h270zM1167 16q0 -16 -41 -16h-229q-16 0 -21.5 7t-13.5 36l-90 332h-352l-84 -332q-8 -29 -14.5 -36t-28.5 -7h-207q-39 0 -40 14t7 39l404 1319q6 20 12 25.5t33 5.5h213q23 0 30 -7
t13 -26l401 -1321q8 -24 8 -33zM891 1571q0 -29 -7 -38t-40 -9h-475q-29 0 -38 9t-9 38v96q0 33 9 40t38 7h475q33 0 40 -8t7 -39v-96z" />
    <glyph glyph-name="amacron" unicode="&#x101;" horiz-adv-x="985"
d="M701 -35q-10 0 -29 44t-27 79q-54 -54 -110.5 -88.5t-155.5 -34.5q-141 0 -224 85t-83 236t106 241t246.5 95t181.5 5v63q0 79 -27.5 115.5t-114.5 36.5t-167 -31t-92 -31t-19 21l-41 125q-6 12 -6 24q0 32 118 64.5t243 32.5q193 0 272.5 -85t79.5 -245v-395
q0 -121 18.5 -170.5t26.5 -65.5t8 -28t-18 -21l-156 -64q-6 -2 -13 -5t-17 -3zM606 459h-90q-91 0 -145 -48.5t-54 -111.5t38.5 -103t96.5 -40t97 29.5t57 47.5v226zM778 1243q0 -29 -7 -38t-40 -9h-475q-29 0 -38 9t-9 38v96q0 33 9 40t38 7h475q33 0 40 -8t7 -39v-96z" />
    <glyph glyph-name="Abreve" unicode="&#x102;" horiz-adv-x="1214"
d="M637 911q-6 31 -13.5 67t-12.5 75t-10 75.5t-9 69.5h-4q-15 -162 -47 -287l-90 -352h270zM1167 16q0 -16 -41 -16h-229q-16 0 -21.5 7t-13.5 36l-90 332h-352l-84 -332q-8 -29 -14.5 -36t-28.5 -7h-207q-39 0 -40 14t7 39l404 1319q6 20 12 25.5t33 5.5h213q23 0 30 -7
t13 -26l401 -1321q8 -24 8 -33zM600 1491q-109 0 -202.5 51t-121.5 113q-4 8 -4 15t9 16l75 69q10 10 16 10q6 1 26 -15t71 -47.5t131 -31.5t131 32t71 47t25 15q6 0 17 -10l76 -69q8 -8 8 -16t-8 -26t-38 -46.5t-101.5 -67.5t-180.5 -39z" />
    <glyph glyph-name="abreve" unicode="&#x103;" horiz-adv-x="985"
d="M701 -35q-10 0 -29 44t-27 79q-54 -54 -110.5 -88.5t-155.5 -34.5q-141 0 -224 85t-83 236t106 241t246.5 95t181.5 5v63q0 79 -27.5 115.5t-114.5 36.5t-167 -31t-92 -31t-19 21l-41 125q-6 12 -6 24q0 32 118 64.5t243 32.5q193 0 272.5 -85t79.5 -245v-395
q0 -121 18.5 -170.5t26.5 -65.5t8 -28t-18 -21l-156 -64q-6 -2 -13 -5t-17 -3zM606 459h-90q-91 0 -145 -48.5t-54 -111.5t38.5 -103t96.5 -40t97 29.5t57 47.5v226zM491.5 1147q-107.5 0 -202 67t-110 113.5t-15.5 57t14 18.5l90 49q12 6 20 6t26 -18.5t42.5 -42t58.5 -42
t77 -18.5t76.5 18.5t58 42t41 42t26.5 18.5t21 -6l90 -49q14 -8 14 -19.5t-8 -33.5t-38 -61.5t-102 -90.5t-179.5 -51z" />
    <glyph glyph-name="Aogonek" unicode="&#x104;" horiz-adv-x="1214"
d="M637 911q-6 31 -13.5 67t-12.5 75t-10 75.5t-9 69.5h-4q-15 -162 -47 -287l-90 -352h270zM1167 16q0 -16 -36 -16q-37 0 -67 -31q-82 -83 -81 -153q0 -27 20.5 -42.5t52.5 -15.5t58.5 18.5t37.5 18.5t15 -14l33 -92q2 -6 4 -11.5t2 -13.5q0 -18 -64.5 -41.5t-143.5 -23.5
q-80 0 -145 46t-65 123t27 120.5t45.5 66t36.5 45.5q-16 0 -21.5 7t-13.5 36l-90 332h-352l-84 -332q-8 -29 -14.5 -36t-28.5 -7h-207q-39 0 -40 14t7 39l404 1319q6 20 12 25.5t33 5.5h213q23 0 30 -7t13 -26l401 -1321q8 -24 8 -33z" />
    <glyph glyph-name="aogonek" unicode="&#x105;" horiz-adv-x="985"
d="M713 -182q0 -30 20.5 -45t52.5 -15t58 18.5t38 18.5t15 -14l33 -92q2 -6 4 -11.5t2 -13.5q0 -18 -64 -41.5t-145 -23.5q-80 0 -144.5 46t-64.5 141t61.5 161.5t79.5 91.5q-10 32 -14 49q-54 -54 -110.5 -88.5t-155.5 -34.5q-141 0 -224 85t-83 236t106 241t246.5 95
t181.5 5v63q0 79 -27.5 115.5t-114.5 36.5t-167 -31t-92 -31t-19 21l-41 125q-6 12 -6 24q0 32 118 64.5t243 32.5q193 0 272.5 -85t79.5 -245v-395q0 -121 18.5 -170.5t26.5 -65.5t8 -28t-18 -21l-21 -8q-38 -16 -77 -63.5t-57.5 -82.5t-18.5 -65zM606 459h-90
q-91 0 -145 -48.5t-54 -111.5t38.5 -103t96.5 -40t97 29.5t57 47.5v226z" />
    <glyph glyph-name="Cacute" unicode="&#x106;" horiz-adv-x="1024"
d="M971 96q0 -12 -24.5 -34.5t-103 -59.5t-212.5 -37q-270 0 -400.5 177t-130.5 548q0 546 199 647t317 101t203.5 -43t116.5 -69t31 -42t-11 -29l-75 -114q-13 -21 -25 -21t-73 48.5t-133 48.5q-71 0 -119 -25t-78.5 -80t-46 -146.5t-15.5 -298t52.5 -344t201.5 -137.5
q64 0 117 26t74.5 38t34.5 12t26 -20l64 -115q10 -19 10 -31zM410 1487q-12 0 -28 51t-20 61.5t-4 21.5t31 21l361 146q6 2 12 5t12 3q18 0 29 -33l45 -133q6 -18 6 -30t-11.5 -14.5t-25.5 -6.5l-379 -88q-16 -4 -28 -4z" />
    <glyph glyph-name="cacute" unicode="&#x107;" horiz-adv-x="872"
d="M827 69q0 -13 -27.5 -33t-100.5 -45.5t-160 -25.5q-215 0 -335 129t-120 392t126 412t351 149q91 0 191 -39.5t100 -85.5q0 -7 -6 -19l-76 -133q-10 -10 -16 -10t-62.5 41t-130.5 41q-104 0 -152.5 -82t-48.5 -256t46.5 -254t164.5 -80q77 0 122 35t57 35t18 -11l53 -135
q6 -12 6 -25zM348 1126q-10 0 -15 8.5t-11 20.5l-35 74q-11 16 -11 27t7.5 16.5t19.5 13.5l338 189q19 12 29 12t16 -9.5t12 -19.5l62 -125q10 -15 10 -27q0 -18 -33 -28l-360 -143q-19 -9 -29 -9z" />
    <glyph glyph-name="Ccaron" unicode="&#x10c;" horiz-adv-x="1024"
d="M971 96q0 -12 -24.5 -34.5t-103 -59.5t-212.5 -37q-270 0 -400.5 177t-130.5 548q0 546 199 647t317 101t203.5 -43t116.5 -69t31 -42t-11 -29l-75 -114q-13 -21 -25 -21t-73 48.5t-133 48.5q-71 0 -119 -25t-78.5 -80t-46 -146.5t-15.5 -298t52.5 -344t201.5 -137.5
q64 0 117 26t74.5 38t34.5 12t26 -20l64 -115q10 -19 10 -31zM297 1642q-27 11 -27 25t11 27l45 86q8 16 20 16t37 -12l207 -92l207 92q25 12 35 12t13 -2t9 -14l45 -86q10 -15 10 -26t-8 -16t-18 -10l-265 -143q-18 -12 -28.5 -12t-28.5 12z" />
    <glyph glyph-name="ccaron" unicode="&#x10d;" horiz-adv-x="872"
d="M827 69q0 -13 -27.5 -33t-100.5 -45.5t-160 -25.5q-215 0 -335 129t-120 392t126 412t351 149q91 0 191 -39.5t100 -85.5q0 -7 -6 -19l-76 -133q-10 -10 -16 -10t-62.5 41t-130.5 41q-104 0 -152.5 -82t-48.5 -256t46.5 -254t164.5 -80q77 0 122 35t57 35t18 -11l53 -135
q6 -12 6 -25zM510 1126q-8 0 -15.5 6.5t-13.5 10.5l-262 192q-24 18 -24 32t12 26l47 65q14 18 18 22.5t12 4.5t13.5 -4t13.5 -8l199 -119l199 119q8 4 14 8t15 4t28 -27l47 -65q12 -11 12 -25t-8 -20.5t-16 -12.5l-262 -192q-6 -4 -13.5 -10.5t-15.5 -6.5z" />
    <glyph glyph-name="Dcaron" unicode="&#x10e;" horiz-adv-x="1214"
d="M537 1403q147 0 257.5 -28.5t224.5 -144t114 -525.5q0 -590 -232.5 -647.5t-370.5 -57.5h-313q-27 0 -35 8t-8 35v1317q0 29 8 36t37 7h318zM524 221q86 0 146.5 21.5t116 102.5t55.5 358t-70.5 378t-247.5 101h-73v-961h73zM549 1487q-11 0 -29 12l-264 143
q-27 11 -27 23t11 29l45 86q9 16 21 16t36 -12l207 -92l207 92q24 12 34 12t13.5 -2t9.5 -14l45 -86q10 -15 10 -26t-8 -16t-18 -10l-264 -143q-18 -12 -29 -12z" />
    <glyph glyph-name="dcaron" unicode="&#x10f;" horiz-adv-x="1144"
d="M534 842q-113 0 -150.5 -79t-37.5 -258t36 -257t136 -78q70 0 101.5 25.5t50.5 46.5v559q-14 8 -44 24.5t-92 16.5zM930 1440v-1118q0 -161 18.5 -206.5t18.5 -57.5t-19 -21l-155 -64q-6 -2 -13.5 -5t-17.5 -3t-28 41.5t-27 81.5q-123 -123 -285 -123t-249 132.5
t-87 396.5t100.5 408.5t292.5 144.5q84 0 125 -23t66 -39v420q0 23 10 28t29 9l200 41q12 0 16.5 -8.5t4.5 -34.5zM1068 1483q15 0 24 -2l135 -33q35 -7 35 -25q0 -11 -7 -28l-102 -303q-10 -33 -27 -33q-8 0 -24 4l-84 18q-10 4 -23.5 7.5t-13.5 19.5l61 338q4 23 7.5 30
t18.5 7z" />
    <glyph glyph-name="Dcroat" unicode="&#x110;" horiz-adv-x="1214"
d="M537 1403q147 0 257.5 -28.5t224.5 -144t114 -525.5q0 -590 -232.5 -647.5t-370.5 -57.5h-313q-27 0 -35 8t-8 35v594h-104q-29 0 -36 7t-7 36v98q0 27 7 35t36 8h104v539q0 29 8 36t37 7h318zM524 221q86 0 146.5 21.5t116 102.5t55.5 358t-70.5 378t-247.5 101h-73
v-361h204q29 0 36 -7t7 -36v-98q0 -29 -7 -36t-36 -7h-204v-416h73z" />
    <glyph glyph-name="dcroat" unicode="&#x111;" horiz-adv-x="1062"
d="M534 842q-113 0 -150.5 -79t-37.5 -258t36 -257t136 -78q70 0 101.5 25.5t50.5 46.5v559q-14 8 -44 24.5t-92 16.5zM930 1440v-140h129q29 0 36 -7t7 -36v-98q0 -29 -7.5 -36t-35.5 -7h-129v-794q0 -161 18.5 -206.5t18.5 -57.5t-19 -21l-155 -64q-6 -2 -13.5 -5
t-17.5 -3t-28 41.5t-27 81.5q-123 -123 -285 -123t-249 132.5t-87 396.5t100.5 408.5t292.5 144.5q84 0 125 -23t66 -39v131h-197q-29 0 -36 7t-7 36v98q0 27 7 35t36 8h197v105q0 23 10 28t29 9l200 41q12 0 16.5 -8.5t4.5 -34.5z" />
    <glyph glyph-name="Emacron" unicode="&#x112;" horiz-adv-x="985"
d="M913 43q0 -29 -7 -36t-34 -7h-673q-27 0 -35 7t-8 36v1317q0 29 8 36t35 7h671q31 0 41.5 -4.5t10.5 -18.5t-7 -28l-38 -138q-8 -32 -48 -32h-397v-338h348q29 0 36 -7.5t7 -35.5v-135q0 -29 -8 -36t-35 -7h-348v-402h438q29 0 36 -7t7 -36v-135zM817 1571q0 -29 -7 -38
t-40 -9h-475q-29 0 -38 9t-9 38v96q0 33 9 40t38 7h475q33 0 40 -8t7 -39v-96z" />
    <glyph glyph-name="emacron" unicode="&#x113;" horiz-adv-x="1024"
d="M532 1047q410 0 410 -560q0 -29 -9 -40t-38 -11h-551q0 -256 225 -256q90 0 148.5 23.5t80 34t33.5 10.5t21 -17l51 -122q6 -11 6 -27t-34.5 -37.5t-181 -69.5t-327.5 16.5t-231.5 213.5t-50.5 281q0 256 122 408.5t326 152.5zM666 627q0 155 -47.5 192t-103.5 37
q-99 0 -130.5 -68.5t-40.5 -160.5h322zM811 1243q0 -29 -7 -38t-40 -9h-475q-29 0 -38 9t-9 38v96q0 33 9 40t38 7h475q33 0 40 -8t7 -39v-96z" />
    <glyph glyph-name="Edotaccent" unicode="&#x116;" horiz-adv-x="985"
d="M913 43q0 -29 -7 -36t-34 -7h-673q-27 0 -35 7t-8 36v1317q0 29 8 36t35 7h671q31 0 41.5 -4.5t10.5 -18.5t-7 -28l-38 -138q-8 -32 -48 -32h-397v-338h348q29 0 36 -7.5t7 -35.5v-135q0 -29 -8 -36t-35 -7h-348v-402h438q29 0 36 -7t7 -36v-135zM536 1487q-67 0 -113 46
t-46 113t46 112.5t111.5 45.5t112.5 -47t47 -113t-45.5 -111.5t-112.5 -45.5z" />
    <glyph glyph-name="edotaccent" unicode="&#x117;" horiz-adv-x="1024"
d="M532 1047q410 0 410 -560q0 -29 -9 -40t-38 -11h-551q0 -256 225 -256q90 0 148.5 23.5t80 34t33.5 10.5t21 -17l51 -122q6 -11 6 -27t-34.5 -37.5t-181 -69.5t-327.5 16.5t-231.5 213.5t-50.5 281q0 256 122 408.5t326 152.5zM666 627q0 155 -47.5 192t-103.5 37
q-99 0 -130.5 -68.5t-40.5 -160.5h322zM688 1294q0 -66 -45 -111.5t-113 -45.5t-113.5 46.5t-45.5 112.5t46 112t111.5 46t112.5 -47t47 -113z" />
    <glyph glyph-name="Eogonek" unicode="&#x118;" horiz-adv-x="985"
d="M698 -177q0 -65 73 -65q32 0 58.5 18.5t37.5 18.5t16 -14l32 -92q2 -6 4.5 -11.5t2.5 -13.5q0 -18 -65 -41.5t-145 -23.5q-79 0 -143.5 46t-64.5 124t26.5 120.5t45 65t36.5 45.5h-413q-27 0 -35 7t-8 36v1317q0 29 8 36t35 7h671q31 0 41.5 -4.5t10.5 -18.5t-7 -28
l-38 -138q-8 -32 -48 -32h-397v-338h348q29 0 36 -7.5t7 -35.5v-135q0 -29 -8 -36t-35 -7h-348v-402h438q29 0 36 -7t7 -36v-135q0 -29 -7 -36t-34 -7h-30q-54 0 -99 -71.5t-45 -105.5z" />
    <glyph glyph-name="eogonek" unicode="&#x119;" horiz-adv-x="1024"
d="M532 1047q410 0 410 -560q0 -29 -9 -40t-38 -11h-551q0 -256 225 -256q90 0 148.5 23.5t80 34t33.5 10.5t21 -17l51 -122q6 -10 6 -23q0 -46 -147 -88q-59 -18 -102.5 -74.5t-43.5 -95.5q0 -70 73 -70q32 0 58.5 18.5t37.5 18.5t16 -14l33 -92q2 -6 4 -11.5t2 -13.5
q0 -18 -64 -41.5t-145 -23.5q-80 0 -144.5 46t-64.5 122t25.5 120.5t56.5 79.5q-302 19 -361 206t-59 317q0 253 122 405t326 152zM666 627q0 155 -47.5 192t-103.5 37q-99 0 -130.5 -68.5t-40.5 -160.5h322z" />
    <glyph glyph-name="Ecaron" unicode="&#x11a;" horiz-adv-x="985"
d="M913 43q0 -29 -7 -36t-34 -7h-673q-27 0 -35 7t-8 36v1317q0 29 8 36t35 7h671q31 0 41.5 -4.5t10.5 -18.5t-7 -28l-38 -138q-8 -32 -48 -32h-397v-338h348q29 0 36 -7.5t7 -35.5v-135q0 -29 -8 -36t-35 -7h-348v-402h438q29 0 36 -7t7 -36v-135zM244 1642q-27 11 -27 24
t10 28l45 86q8 16 21 16t37 -12l207 -92l206 92q25 12 35 12t13.5 -2t9.5 -14l45 -86q10 -15 10 -26t-8 -16t-19 -10l-264 -143q-18 -12 -28.5 -12t-28.5 12z" />
    <glyph glyph-name="ecaron" unicode="&#x11b;" horiz-adv-x="1024"
d="M532 1047q410 0 410 -560q0 -29 -9 -40t-38 -11h-551q0 -256 225 -256q90 0 148.5 23.5t80 34t33.5 10.5t21 -17l51 -122q6 -11 6 -27t-34.5 -37.5t-181 -69.5t-327.5 16.5t-231.5 213.5t-50.5 281q0 256 122 408.5t326 152.5zM666 627q0 155 -47.5 192t-103.5 37
q-99 0 -130.5 -68.5t-40.5 -160.5h322zM530.5 1126q-8.5 0 -15.5 6.5t-13 10.5l-262 192q-25 19 -25 32q0 14 12 26l47 65q21 27 29 27t14.5 -4t14.5 -8l198 -119l199 119q8 4 14.5 8t14.5 4t28 -27l48 -65q12 -11 12 -25t-8.5 -20.5t-16.5 -12.5l-262 -192q-6 -4 -13 -10.5
t-15.5 -6.5z" />
    <glyph glyph-name="Gbreve" unicode="&#x11e;" horiz-adv-x="1175"
d="M659 186q77 0 154 33v297h-154q-27 0 -35 7t-8 36v135q0 29 8.5 36t34.5 7h357q27 0 35 -7t8 -36v-569q0 -62 -140 -111t-270 -49q-549 0 -549 729q0 367 138.5 555.5t414.5 188.5q128 0 221 -35t126.5 -56.5t33.5 -32.5t-10 -32l-68 -135q-10 -21 -18 -21t-30.5 14.5
t-90 45.5t-147.5 31q-153 0 -216 -129t-63 -386q0 -256 58.5 -386t209.5 -130zM436.5 1542q-93.5 51 -121.5 113q-4 8 -4 15t8 16l76 69q11 10 17 10q6 1 26 -15t70.5 -47.5t130.5 -31.5t130.5 32t70.5 47t26 15t17 -10l75 -69q27 -27 -36.5 -88t-143.5 -84t-164 -23
t-177.5 51z" />
    <glyph glyph-name="gbreve" unicode="&#x11f;" horiz-adv-x="1024"
d="M520 -434q-121 0 -228.5 27.5t-151.5 46t-44 35t8 40.5l39 125q7 20 19 20t39.5 -12t104 -39.5t160.5 -27.5q85 0 117.5 11t57.5 40t25 103q0 73 -3.5 109t-3.5 46q-117 -78 -247 -78q-172 0 -261.5 134t-89.5 374t101.5 383.5t286.5 143.5q127 0 178 -42t65 -55
q17 52 39.5 74.5t31.5 22.5t21 -5l160 -59q6 -4 12.5 -8t6.5 -12t-29 -69t-29 -192v-305l10 -460q0 -168 -91 -269.5t-304 -101.5zM498 831q-176 0 -176 -311q0 -141 35.5 -222t120.5 -81t125 27.5t56 42.5v483q-20 16 -56 38.5t-105 22.5zM318 1213.5
q-94 66.5 -109.5 113.5t-15.5 57.5t14 18.5l90 49q12 6 20 6t25.5 -18.5t42.5 -42t58.5 -42t76.5 -18.5t77 18.5t58.5 42t41 42t25.5 18.5t21 -6l91 -49q14 -8 14 -19.5t-8 -33.5t-38 -61.5t-102 -90.5t-180 -51t-202 66.5z" />
    <glyph glyph-name="Gcommaaccent" unicode="&#x122;" horiz-adv-x="1175"
d="M659 186q77 0 154 33v297h-154q-27 0 -35 7t-8 36v135q0 29 8.5 36t34.5 7h357q27 0 35 -7t8 -36v-569q0 -62 -140 -111t-270 -49q-549 0 -549 729q0 367 138.5 555.5t414.5 188.5q128 0 221 -35t126.5 -56.5t33.5 -32.5t-10 -32l-68 -135q-10 -21 -18 -21t-30.5 14.5
t-90 45.5t-147.5 31q-153 0 -216 -129t-63 -386q0 -256 58.5 -386t209.5 -130zM649 -436q-8 0 -24 4l-95 20q-16 4 -26 8.5t-10 18.5t2 23l47 249q4 23 7 30t18 7t24 -2l135 -33q35 -7 35 -24q0 -11 -6 -29l-80 -239q-10 -33 -27 -33z" />
    <glyph glyph-name="gcommaaccent" unicode="&#x123;" horiz-adv-x="1024"
d="M520 -434q-121 0 -228.5 27.5t-151.5 46t-44 35t8 40.5l39 125q7 20 19 20t39.5 -12t104 -39.5t160.5 -27.5q85 0 117.5 11t57.5 40t25 103q0 73 -3.5 109t-3.5 46q-117 -78 -247 -78q-172 0 -261.5 134t-89.5 374t101.5 383.5t286.5 143.5q127 0 178 -42t65 -55
q17 52 39.5 74.5t31.5 22.5t21 -5l160 -59q6 -4 12.5 -8t6.5 -12t-29 -69t-29 -192v-305l10 -460q0 -168 -91 -269.5t-304 -101.5zM498 831q-176 0 -176 -311q0 -141 35.5 -222t120.5 -81t125 27.5t56 42.5v483q-20 16 -56 38.5t-105 22.5zM483 1487q8 0 25 -4l94 -21
q16 -4 26.5 -8t10.5 -18.5t-2 -22.5l-47 -250q-4 -23 -7 -30t-19 -7t-23 2l-135 33q-35 7 -35 25q0 10 6 28l80 240q10 33 26 33z" />
    <glyph glyph-name="Imacron" unicode="&#x12a;" horiz-adv-x="757"
d="M672 43q0 -29 -8.5 -36t-34.5 -7h-502q-27 0 -35 7t-8 36v111q0 29 8 36t35 7h113v1009h-113q-27 0 -35 7.5t-8 35.5v111q0 29 8 36t35 7h502q27 0 35 -7t8 -36v-111q0 -29 -8.5 -36t-34.5 -7h-113v-1009h113q27 0 35 -7.5t8 -35.5v-111zM664 1571q0 -29 -7.5 -38
t-40.5 -9h-475q-29 0 -38 9t-9 38v96q0 33 9.5 40t37.5 7h475q33 0 40.5 -8t7.5 -39v-96z" />
    <glyph glyph-name="imacron" unicode="&#x12b;" horiz-adv-x="645"
d="M479 29q0 -16 -5 -22.5t-23 -6.5h-203q-18 0 -23.5 6t-5.5 23v792h-158q-18 0 -23 6.5t-5 22.5v133q0 16 5 22.5t23 6.5h390q18 0 23 -6.5t5 -22.5v-954zM551 1243q0 -29 -7 -38t-40 -9h-443q-29 0 -38 9t-9 38v96q0 33 9.5 40t37.5 7h443q33 0 40 -8t7 -39v-96z" />
    <glyph glyph-name="Iogonek" unicode="&#x12e;" horiz-adv-x="757"
d="M375 -177q1 -65 73 -65q32 0 58 18.5t38 18.5t15 -14l33 -92q2 -6 4 -11.5t2 -13.5q0 -18 -64 -41.5t-145 -23.5q-80 0 -144.5 46t-64.5 123t26.5 121t82.5 111h-162q-27 0 -35 7t-8 36v111q0 29 8 36t35 7h113v1009h-113q-27 0 -35 7.5t-8 35.5v111q0 29 8 36t35 7h502
q27 0 35 -7t8 -36v-111q0 -29 -8.5 -36t-34.5 -7h-113v-1009h113q27 0 35 -7.5t8 -35.5v-111q0 -29 -8.5 -36t-34.5 -7h-111q-53 0 -98 -71.5t-45 -105.5z" />
    <glyph glyph-name="iogonek" unicode="&#x12f;" horiz-adv-x="645"
d="M301 -177q0 -65 73 -65q32 0 58.5 18.5t37.5 18.5t15 -14l33 -92q2 -6 4 -11.5t2 -13.5q0 -18 -64.5 -41.5t-143.5 -23.5q-80 0 -145 46t-65 140t49.5 147t67.5 76q-4 4 -4 21v792h-158q-18 0 -23 6.5t-5 22.5v133q0 16 5 22.5t23 6.5h390q18 0 23 -6.5t5 -22.5v-954
q0 -16 -5 -22.5t-23 -6.5h-7q-53 0 -98 -71.5t-45 -105.5zM516 1314.5q0 -71.5 -49 -120.5t-120 -49t-120 49t-49 120.5t49 120t120 48.5t120 -48.5t49 -120z" />
    <glyph glyph-name="Idotaccent" unicode="&#x130;" horiz-adv-x="757"
d="M672 43q0 -29 -8.5 -36t-34.5 -7h-502q-27 0 -35 7t-8 36v111q0 29 8 36t35 7h113v1009h-113q-27 0 -35 7.5t-8 35.5v111q0 29 8 36t35 7h502q27 0 35 -7t8 -36v-111q0 -29 -8.5 -36t-34.5 -7h-113v-1009h113q27 0 35 -7.5t8 -35.5v-111zM537 1645q0 -66 -46 -112
t-113 -46t-113 46t-46 113t46 112.5t111.5 45.5t113 -46.5t47.5 -112.5z" />
    <glyph glyph-name="dotlessi" unicode="&#x131;" horiz-adv-x="645"
d="M479 29q0 -16 -5 -22.5t-23 -6.5h-203q-18 0 -23.5 6t-5.5 23v792h-158q-18 0 -23 6.5t-5 22.5v133q0 16 5 22.5t23 6.5h390q18 0 23 -6.5t5 -22.5v-954z" />
    <glyph glyph-name="Kcommaaccent" unicode="&#x136;" horiz-adv-x="1175"
d="M451 43q0 -29 -8.5 -36t-34.5 -7h-191q-27 0 -35 7t-8 36v1317q0 29 8 36t35 7h191q27 0 35 -7t8 -36v-574h4l450 625q14 27 28 27q15 0 23.5 -5.5t20.5 -11.5l139 -69q27 -11 27 -31q0 -10 -5 -15.5t-10 -11.5l-436 -575l482 -598q4 -6 9 -11.5t5 -19.5t-27 -27
l-164 -81q-12 -6 -20 -11.5t-17 -5.5t-19.5 9.5t-14.5 17.5l-471 626h-4v-575zM657 -436q-8 0 -24 4l-94 20q-16 4 -26.5 8.5t-10.5 18.5t2 23l47 249q4 23 6.5 30t18.5 7t24 -2l135 -33q35 -7 35 -24q0 -11 -6 -29l-80 -239q-10 -33 -27 -33z" />
    <glyph glyph-name="kcommaaccent" unicode="&#x137;" horiz-adv-x="1062"
d="M418 1440v-811l393 397q15 21 27 21t19 -6.5t20 -16.5l102 -84q10 -10 10 -20t-18 -29l-332 -324l373 -448q18 -17 18 -31t-10 -18l-174 -97q-16 -8 -26 -8t-23 21l-375 489h-4v-446q0 -16 -5 -22.5t-24 -6.5h-203q-18 0 -23 6t-5 23v1376q0 23 10 28t29 9l172 35
q13 6 31 6t18 -43zM584 -436q-8 0 -25 4l-94 20q-16 4 -26.5 8.5t-10.5 18.5t2 23l47 249q4 23 6.5 30t18.5 7t24 -2l136 -33q34 -7 34 -24q0 -11 -6 -29l-80 -239q-10 -33 -26 -33z" />
    <glyph glyph-name="Lacute" unicode="&#x139;" horiz-adv-x="1024"
d="M946 246q37 0 37 -27q0 -10 -4 -26l-39 -156q-6 -25 -14 -31t-31 -6h-676q-27 0 -35 7t-8 36v1317q0 29 8.5 36t34.5 7h191q27 0 35 -7t8 -36v-1114h493zM303 1487q-10 0 -20 33l-23 69q-6 18 -6 31t31 22l360 146q6 2 12.5 5t12.5 3q18 0 28 -33l45 -133q7 -21 7 -31
t-11.5 -13t-25.5 -7l-379 -88q-16 -4 -31 -4z" />
    <glyph glyph-name="lacute" unicode="&#x13a;" horiz-adv-x="606"
d="M393 1440v-1116q0 -49 7.5 -86t44.5 -37t56 9t30 9t16 -12l41 -168q2 -8 3 -10t1 -9q0 -17 -65.5 -36t-150.5 -19t-136.5 35t-75 92.5t-27.5 127t-4 140.5v1045q0 23 10.5 28t28.5 9l201 41q12 0 16 -8.5t4 -34.5zM162 1487q-12 0 -23 33l-22 69q-6 19 -6 31t30 22
l361 146q6 2 12 5t12 3q18 0 29 -33l45 -133q6 -18 6 -30t-11 -14.5t-26 -6.5l-379 -88q-16 -4 -28 -4z" />
    <glyph glyph-name="Lcommaaccent" unicode="&#x13b;" horiz-adv-x="1024"
d="M946 246q37 0 37 -27q0 -10 -4 -26l-39 -156q-6 -25 -14 -31t-31 -6h-676q-27 0 -35 7t-8 36v1317q0 29 8.5 36t34.5 7h191q27 0 35 -7t8 -36v-1114h493zM612 -436q-8 0 -24 4l-94 20q-16 4 -26.5 8.5t-10.5 18.5t2 23l47 249q4 23 7 30t18 7t24 -2l135 -33q35 -7 35 -24
q0 -11 -6 -29l-80 -239q-10 -33 -27 -33z" />
    <glyph glyph-name="lcommaaccent" unicode="&#x13c;" horiz-adv-x="606"
d="M393 1440v-1116q0 -49 7.5 -86t44.5 -37t56 9t30 9t16 -12l41 -168q2 -8 3 -10t1 -9q0 -17 -65.5 -36t-150.5 -19t-136.5 35t-75 92.5t-27.5 127t-4 140.5v1045q0 23 10.5 28t28.5 9l201 41q12 0 16 -8.5t4 -34.5zM348 -436q-8 0 -24 4l-95 20q-16 4 -26 8.5t-10 18.5
t2 23l47 249q4 23 7 30t18 7t24 -2l135 -33q35 -7 35 -24q0 -11 -6 -29l-80 -239q-10 -33 -27 -33z" />
    <glyph glyph-name="Lcaron" unicode="&#x13d;" horiz-adv-x="1024"
d="M946 246q37 0 37 -27q0 -10 -4 -26l-39 -156q-6 -25 -14 -31t-31 -6h-676q-27 0 -35 7t-8 36v1317q0 29 8.5 36t34.5 7h191q27 0 35 -7t8 -36v-1114h493zM599 1483q15 0 24 -2l135 -33q35 -7 35 -25q0 -11 -7 -28l-102 -303q-10 -33 -27 -33q-8 0 -24 4l-84 18
q-10 4 -23.5 7.5t-13.5 19.5l61 338q4 23 7.5 30t18.5 7z" />
    <glyph glyph-name="lcaron" unicode="&#x13e;" horiz-adv-x="626"
d="M393 1440v-1116q0 -49 7.5 -86t44.5 -37t56 9t30 9t16 -12l41 -168q2 -8 3 -10t1 -9q0 -17 -65.5 -36t-150.5 -19t-136.5 35t-75 92.5t-27.5 127t-4 140.5v1045q0 23 10.5 28t28.5 9l201 41q12 0 16 -8.5t4 -34.5zM538 1483q16 0 23 -2l135 -33q35 -7 35 -25
q0 -10 -6 -28l-102 -303q-10 -33 -27 -33q-8 0 -25 4l-84 18q-10 4 -23 7.5t-13 19.5l61 338q4 23 7 30t19 7z" />
    <glyph glyph-name="Lslash" unicode="&#x141;" horiz-adv-x="1024"
d="M969 246q37 0 37 -27q0 -10 -5 -26l-38 -156q-6 -25 -14.5 -31t-30.5 -6h-676q-27 0 -35 7t-8 36v403l-123 -71q-10 -6 -20 -6t-11 22v129q0 19 18 33l136 78v729q0 29 8 36t35 7h190q27 0 35 -7t8 -36v-555l283 176q10 10 22 10t13 -22v-146q0 -15 -19 -28l-299 -181
v-368h494z" />
    <glyph glyph-name="lslash" unicode="&#x142;" horiz-adv-x="757"
d="M713 1266q14 0 14 -23v-141q0 -12 -16 -25l-219 -155v-598q0 -49 7 -86t44 -37t56 9t31 9t15 -12l41 -168q2 -8 3 -10t1 -9q0 -17 -65.5 -36t-150.5 -19q-159 0 -201 103.5t-42 291.5v377l-168 -123q-10 -10 -26.5 -10t-16.5 23v141q0 12 17 23l194 137v477q0 23 10.5 28
t28.5 9l201 41q12 0 16.5 -8.5t4.5 -34.5v-328l204 145q9 9 17 9z" />
    <glyph glyph-name="Nacute" unicode="&#x143;" horiz-adv-x="1290"
d="M885 1360q0 29 8 36t35 7h149q27 0 35 -7t8 -36v-1317q0 -29 -7 -36t-36 -7h-135q-23 0 -30 5t-17 24l-375 698q-89 162 -117 279h-4l7 -226v-737q0 -29 -8.5 -36t-35.5 -7h-149q-27 0 -35 7t-8 36v1317q0 29 8 36t35 7h168q23 0 30 -5t17 -22l338 -635q76 -144 121 -297
h4l-6 267v649zM471 1487q-10 0 -20 33l-23 69q-6 18 -6 31t31 22l360 146q6 2 12 5t13 3q18 0 28 -33l45 -133q7 -21 7 -31t-11.5 -13t-25.5 -7l-379 -88q-16 -4 -31 -4z" />
    <glyph glyph-name="nacute" unicode="&#x144;" horiz-adv-x="1099"
d="M956 29q0 -16 -5 -22.5t-23 -6.5h-203q-18 0 -23.5 6t-5.5 23v630q0 79 -23 125.5t-88 46.5t-102 -23.5t-54 -37.5t-28 -22v-719q0 -16 -5 -22.5t-23 -6.5h-203q-18 0 -23.5 6t-5.5 23v618q0 235 -19.5 268t-19.5 51t23 23l156 51q18 6 34 6q28 1 62 -141q23 20 92.5 81
t232.5 61t208.5 -103.5t45.5 -195.5v-719zM404 1126q-10 0 -15.5 8.5t-11.5 20.5l-35 74q-10 15 -10 27t7 17t19 13l338 189q18 12 29 12t29 -29l61 -125q10 -15 10 -27q0 -18 -32 -28l-361 -143q-18 -9 -28 -9z" />
    <glyph glyph-name="Ncommaaccent" unicode="&#x145;" horiz-adv-x="1290"
d="M885 1360q0 29 8 36t35 7h149q27 0 35 -7t8 -36v-1317q0 -29 -7 -36t-36 -7h-135q-23 0 -30 5t-17 24l-375 698q-89 162 -117 279h-4l7 -226v-737q0 -29 -8.5 -36t-35.5 -7h-149q-27 0 -35 7t-8 36v1317q0 29 8 36t35 7h168q23 0 30 -5t17 -22l338 -635q76 -144 121 -297
h4l-6 267v649zM700 -436q-8 0 -24 4l-94 20q-16 4 -26.5 8.5t-10.5 18.5t2 23l47 249q4 23 7 30t19 7t23 -2l135 -33q35 -7 35 -24q0 -11 -6 -29l-80 -239q-10 -33 -27 -33z" />
    <glyph glyph-name="ncommaaccent" unicode="&#x146;" horiz-adv-x="1099"
d="M956 29q0 -16 -5 -22.5t-23 -6.5h-203q-18 0 -23.5 6t-5.5 23v630q0 79 -23 125.5t-88 46.5t-102 -23.5t-54 -37.5t-28 -22v-719q0 -16 -5 -22.5t-23 -6.5h-203q-18 0 -23.5 6t-5.5 23v618q0 235 -19.5 268t-19.5 51t23 23l156 51q18 6 34 6q28 1 62 -141q23 20 92.5 81
t232.5 61t208.5 -103.5t45.5 -195.5v-719zM592 -436q-8 0 -25 4l-94 20q-16 4 -26.5 8.5t-10.5 18.5t2 23l47 249q4 23 7.5 30t18.5 7t24 -2l135 -33q35 -7 35 -24q0 -8 -7 -29l-80 -239q-10 -33 -26 -33z" />
    <glyph glyph-name="Ncaron" unicode="&#x147;" horiz-adv-x="1290"
d="M885 1360q0 29 8 36t35 7h149q27 0 35 -7t8 -36v-1317q0 -29 -7 -36t-36 -7h-135q-23 0 -30 5t-17 24l-375 698q-89 162 -117 279h-4l7 -226v-737q0 -29 -8.5 -36t-35.5 -7h-149q-27 0 -35 7t-8 36v1317q0 29 8 36t35 7h168q23 0 30 -5t17 -22l338 -635q76 -144 121 -297
h4l-6 267v649zM350 1642q-26 10 -26 24q0 13 10 28l45 86q9 16 21 16t36 -12l207 -92l207 92q24 12 34 12t13.5 -2t9.5 -14l45 -86q11 -16 11 -27q0 -10 -8.5 -15t-18.5 -10l-264 -143q-18 -12 -27.5 -12t-30.5 12z" />
    <glyph glyph-name="ncaron" unicode="&#x148;" horiz-adv-x="1099"
d="M956 29q0 -16 -5 -22.5t-23 -6.5h-203q-18 0 -23.5 6t-5.5 23v630q0 79 -23 125.5t-88 46.5t-102 -23.5t-54 -37.5t-28 -22v-719q0 -16 -5 -22.5t-23 -6.5h-203q-18 0 -23.5 6t-5.5 23v618q0 235 -19.5 268t-19.5 51t23 23l156 51q18 6 34 6q28 1 62 -141q23 20 92.5 81
t232.5 61t208.5 -103.5t45.5 -195.5v-719zM553 1126q-8 0 -15.5 6.5t-13.5 10.5l-262 192q-24 18 -24 32t12 26l47 65l17.5 22.5t11.5 4.5t14 -4t14 -8l199 -119l199 119q8 4 14 8t15 4t28 -27l47 -65q12 -11 12 -25t-8 -20.5t-16 -12.5l-262 -192q-6 -4 -13.5 -10.5
t-15.5 -6.5z" />
    <glyph glyph-name="Omacron" unicode="&#x14c;" horiz-adv-x="1214"
d="M1116 700q0 -373 -136 -554t-373.5 -181t-374 181.5t-136.5 554t136.5 555t373.5 182.5q367 0 438.5 -276t71.5 -462zM658.5 180q166.5 0 166.5 522t-166.5 521.5t-219 -142t-52.5 -381t52.5 -380t219 -140.5zM885 1571q0 -29 -7.5 -38t-39.5 -9h-476q-29 0 -38 9t-9 38
v96q0 33 9.5 40t37.5 7h476q33 0 40 -8t7 -39v-96z" />
    <glyph glyph-name="omacron" unicode="&#x14d;" horiz-adv-x="1062"
d="M530.5 170q53.5 0 86 25.5t51 70.5t24.5 106.5t6 133.5t-6 133t-24.5 106.5t-51 71t-86 25.5t-86 -25.5t-51 -71t-25 -106.5t-6.5 -133t6.5 -133.5t25 -106.5t51 -70.5t86 -25.5zM205 900.5q119 146.5 326 146.5t325.5 -147.5t118.5 -394t-118.5 -393.5t-325.5 -147
t-326 146t-119 394.5t119 395zM813 1243q0 -29 -7 -38t-40 -9h-475q-29 0 -38 9t-9 38v96q0 33 9 40t38 7h475q33 0 40 -8t7 -39v-96z" />
    <glyph glyph-name="Ohungarumlaut" unicode="&#x150;" horiz-adv-x="1214"
d="M1116 700q0 -373 -136 -554t-373.5 -181t-374 181.5t-136.5 554t136.5 555t373.5 182.5q367 0 438.5 -276t71.5 -462zM658.5 180q166.5 0 166.5 522t-166.5 521.5t-219 -142t-52.5 -381t52.5 -380t219 -140.5zM276 1577q-10 20 -10 31t23 26l227 148q20 14 30 14t15.5 -4
t13.5 -20l64 -119q12 -17 12 -31t-30 -27l-250 -100q-20 -8 -35 -8q-16 0 -27 22zM692 1577q-10 20 -10 31t23 26l227 148q20 14 30 14t15.5 -4t13.5 -20l64 -119q12 -17 12 -31t-31 -27l-250 -100q-20 -8 -35 -8t-26 22z" />
    <glyph glyph-name="ohungarumlaut" unicode="&#x151;" horiz-adv-x="1062"
d="M530.5 170q53.5 0 86 25.5t51 70.5t24.5 106.5t6 133.5t-6 133t-24.5 106.5t-51 71t-86 25.5t-86 -25.5t-51 -71t-25 -106.5t-6.5 -133t6.5 -133.5t25 -106.5t51 -70.5t86 -25.5zM205 900.5q119 146.5 326 146.5t325.5 -147.5t118.5 -394t-118.5 -393.5t-325.5 -147
t-326 146t-119 394.5t119 395zM466 1487q12 0 30 -19l88 -96q20 -20 20 -31t-22 -28l-217 -168q-20 -18 -30.5 -18.5t-29.5 20.5l-53 57q-20 20 -20 32t16 28l188 200q18 23 30 23zM598 1236q0 12 16 28l189 200q17 23 29 23t30 -19l88 -96q20 -20 21 -31t-23 -28l-217 -168
q-20 -18 -30.5 -18.5t-28.5 20.5l-54 57q-20 20 -20 32z" />
    <glyph glyph-name="OE" unicode="&#x152;" horiz-adv-x="1593"
d="M1524 43q0 -29 -7.5 -36t-33.5 -7h-664q-12 -4 -54.5 -19.5t-156.5 -15.5q-238 0 -374 181.5t-136 554t136.5 555t373.5 182.5q109 0 149 -15.5t62 -19.5h662q31 0 41 -4t10 -18t-6 -29l-39 -138q-8 -32 -47 -32h-398v-338h349q29 0 36 -7.5t7 -35.5v-135q0 -29 -8.5 -36
t-34.5 -7h-349v-402h439q29 0 36 -7t7 -36v-135zM608 1223q-219 0 -219 -381t52.5 -521.5t166.5 -140.5q70 0 109 20.5t59 32.5v934q-56 56 -168 56z" />
    <glyph glyph-name="oe" unicode="&#x153;" horiz-adv-x="1593"
d="M1237 627q0 95 -27 162t-120 67q-133 0 -146.5 -104.5t-15.5 -124.5h309zM526 170q51 0 81 25.5t46.5 70.5t22.5 106.5t6 179t-33.5 204t-120.5 86.5q-140 0 -154 -132t-14 -204t6.5 -133.5t25 -106.5t51 -70.5t83.5 -25.5zM928 436q0 -256 213 -256q111 0 180.5 34
t81.5 34t20 -17l52 -122q6 -11 6 -27t-35 -37.5t-123 -50.5t-209 -29q-217 0 -301 133q-49 -66 -108.5 -99.5t-170.5 -33.5q-110 0 -192 38t-139.5 108.5t-88 171t-30.5 286t119 332t309 146.5q191 0 242 -53.5t67 -73.5q14 14 69 70.5t225 56.5q120 0 200 -52.5t139 -162.5
t59 -345q0 -29 -9 -40t-38 -11h-538z" />
    <glyph glyph-name="Racute" unicode="&#x154;"
d="M492 795q120 0 163 27.5t62.5 68.5t19.5 111q0 122 -59.5 154t-163.5 32h-76v-393h54zM438 43q0 -29 -8 -36t-35 -7h-190q-27 0 -35 7t-8 36v1317q0 29 8 36t35 7h332q124 0 221.5 -23t176.5 -110t79 -261t-68.5 -253.5t-165.5 -126.5l305 -547q4 -8 10.5 -18.5
t6.5 -20.5t-12.5 -15t-28.5 -10l-172 -49q-15 -4 -29 -4t-47 64l-276 551h-99v-537zM373 1487q-12 0 -23 33l-22 69q-6 19 -6 31t30 22l361 146q6 2 12 5t12 3q18 0 29 -33l45 -133q6 -18 6 -30t-11 -14.5t-26 -6.5l-379 -88q-16 -4 -28 -4z" />
    <glyph glyph-name="racute" unicode="&#x155;" horiz-adv-x="720"
d="M403 29q0 -16 -5 -22.5t-23 -6.5h-203q-18 0 -23.5 6t-5.5 23v618q0 139 -18.5 196.5t-26.5 76t-8 32.5t19 23l155 63q6 2 13.5 5.5t14.5 3.5t31 -30t44 -132q84 109 141.5 135.5t107.5 26.5t86.5 -13.5t36.5 -34.5q0 -12 -4 -20l-63 -172q-10 -19 -18 -19
q-9 0 -34.5 11.5t-55.5 11.5t-53.5 -11.5t-44 -26.5t-36.5 -32.5t-27 -27.5v-684zM258 1126q-10 0 -15 8.5t-12 20.5l-34 74q-11 16 -11 27t7.5 16.5t19.5 13.5l338 189q19 12 29 12t16 -9.5t12 -19.5l62 -125q10 -15 10 -27q0 -18 -33 -28l-360 -143q-19 -9 -29 -9z" />
    <glyph glyph-name="Rcommaaccent" unicode="&#x156;"
d="M492 795q120 0 163 27.5t62.5 68.5t19.5 111q0 122 -59.5 154t-163.5 32h-76v-393h54zM438 43q0 -29 -8 -36t-35 -7h-190q-27 0 -35 7t-8 36v1317q0 29 8 36t35 7h332q124 0 221.5 -23t176.5 -110t79 -261t-68.5 -253.5t-165.5 -126.5l305 -547q4 -8 10.5 -18.5
t6.5 -20.5t-12.5 -15t-28.5 -10l-172 -49q-15 -4 -29 -4t-47 64l-276 551h-99v-537zM602 -436q-8 0 -24 4l-95 20q-16 4 -26.5 8.5t-10.5 18.5t3 23l47 249q4 23 7 30t18 7t24 -2l135 -33q35 -7 35 -24q0 -11 -6 -29l-80 -239q-10 -33 -27 -33z" />
    <glyph glyph-name="rcommaaccent" unicode="&#x157;" horiz-adv-x="720"
d="M403 29q0 -16 -5 -22.5t-23 -6.5h-203q-18 0 -23.5 6t-5.5 23v618q0 139 -18.5 196.5t-26.5 76t-8 32.5t19 23l155 63q6 2 13.5 5.5t14.5 3.5t31 -30t44 -132q84 109 141.5 135.5t107.5 26.5t86.5 -13.5t36.5 -34.5q0 -12 -4 -20l-63 -172q-10 -19 -18 -19
q-9 0 -34.5 11.5t-55.5 11.5t-53.5 -11.5t-44 -26.5t-36.5 -32.5t-27 -27.5v-684zM307 -436q-8 0 -24 4l-95 20q-16 4 -26 8.5t-10 18.5t2 23l47 249q4 23 7 30t18 7t24 -2l135 -33q35 -7 35 -24q0 -11 -6 -29l-80 -239q-10 -33 -27 -33z" />
    <glyph glyph-name="Rcaron" unicode="&#x158;"
d="M492 795q120 0 163 27.5t62.5 68.5t19.5 111q0 122 -59.5 154t-163.5 32h-76v-393h54zM438 43q0 -29 -8 -36t-35 -7h-190q-27 0 -35 7t-8 36v1317q0 29 8 36t35 7h332q124 0 221.5 -23t176.5 -110t79 -261t-68.5 -253.5t-165.5 -126.5l305 -547q4 -8 10.5 -18.5
t6.5 -20.5t-12.5 -15t-28.5 -10l-172 -49q-15 -4 -29 -4t-47 64l-276 551h-99v-537zM231 1642q-26 10 -26 24q0 13 10 28l45 86q8 16 20 16t37 -12l207 -92l207 92q25 12 35 12t13 -2t9 -14l46 -86q10 -15 10 -26t-8.5 -16t-18.5 -10l-264 -143q-18 -12 -28.5 -12t-28.5 12z
" />
    <glyph glyph-name="rcaron" unicode="&#x159;" horiz-adv-x="720"
d="M403 29q0 -16 -5 -22.5t-23 -6.5h-203q-18 0 -23.5 6t-5.5 23v618q0 139 -18.5 196.5t-26.5 76t-8 32.5t19 23l155 63q6 2 13.5 5.5t14.5 3.5t31 -30t44 -132q84 109 141.5 135.5t107.5 26.5t86.5 -13.5t36.5 -34.5q0 -12 -4 -20l-63 -172q-10 -19 -18 -19
q-9 0 -34.5 11.5t-55.5 11.5t-53.5 -11.5t-44 -26.5t-36.5 -32.5t-27 -27.5v-684zM418 1126q-8 0 -15.5 6.5t-13.5 10.5l-262 192q-25 19 -25 32t13 26l47 65q21 27 28 27q8 0 14.5 -4t14.5 -8l199 -119l198 119q8 4 14.5 8t15.5 4t28 -27l47 -65q12 -11 12 -25t-8 -20.5
t-16 -12.5l-263 -192q-6 -4 -13 -10.5t-15 -6.5z" />
    <glyph glyph-name="Sacute" unicode="&#x15a;" horiz-adv-x="985"
d="M383 1179.5q-57 -37.5 -57 -109.5t40 -110t102 -70t136 -67t146 -89q172 -128 172 -328t-123.5 -320.5t-319.5 -120.5q-145 0 -286.5 48t-141.5 75q0 8 10 33l48 135q6 20 22 20q4 0 97 -45t233 -45q194 0 194 189q0 68 -35.5 109.5t-94 74.5t-134 64.5t-155.5 79.5
t-128.5 119t-48.5 190q0 215 128 320.5t323 105.5q136 0 231 -35t129.5 -56.5t34.5 -32.5t-10 -32l-68 -135q-10 -21 -18 -21t-32.5 14.5t-98 45.5t-155.5 31q-83 0 -140 -37.5zM307 1487q-10 0 -20 33l-23 69q-6 18 -6 31t31 22l360 146q6 2 12.5 5t12.5 3q18 0 28 -33
l46 -133q6 -18 6 -30t-11.5 -14.5t-25.5 -6.5l-379 -88q-16 -4 -31 -4z" />
    <glyph glyph-name="sacute" unicode="&#x15b;" horiz-adv-x="872"
d="M471 842q-135 0 -135 -99q0 -41 30.5 -63.5t79 -40.5t106.5 -37.5t116 -58.5q136 -92 135 -241q0 -149 -94 -243t-256 -94q-110 0 -247.5 46t-137.5 87q0 4 4 12.5t6 14.5l45 117q8 18 13 18t34 -14.5t109 -45t142 -30.5q136 0 136 102q0 45 -34 71t-84 45.5t-108.5 38.5
t-107.5 52q-123 83 -123 230t100 242.5t263 95.5q95 0 174.5 -24t112 -41t32.5 -36q0 -11 -10 -26l-47 -113q-8 -19 -13 -19t-67 27t-174 27zM317 1135q-18 -9 -29 -9t-26 29l-35 74q-10 15 -10 27t7 17t20 13l338 189q18 12 28 12t16.5 -9.5t12.5 -19.5l61 -125
q11 -16 11 -27q0 -17 -33 -28z" />
    <glyph glyph-name="Scedilla" unicode="&#x15e;" horiz-adv-x="985"
d="M451 -434q-158 0 -158 37q0 8 4 24l14 78l2 8q2 8 10.5 8t34 -7t57.5 -7t50 16.5t18 42.5t-28.5 36t-51 10t-26.5 5t-4 16v17q0 17 2 27l4 94q-116 14 -222 54t-106 63q0 8 10 33l48 135q6 20 22 20q4 0 97 -45t233 -45q194 0 194 189q0 68 -35.5 109.5t-94 74.5
t-134 64.5t-155.5 79.5t-128.5 119t-48.5 190q0 215 128 320.5t323 105.5q136 0 231 -35t129.5 -56.5t34.5 -32.5t-10 -32l-68 -135q-10 -21 -18 -21t-32.5 14.5t-98 45.5t-155.5 31q-83 0 -124 -27t-57 -57.5t-16 -82.5t40 -90t102 -70t136 -67t146 -89q172 -128 172 -337
q0 -178 -103.5 -291.5t-271.5 -136.5v-47q75 -11 101 -65t26 -97q0 -80 -58.5 -137t-164.5 -57z" />
    <glyph glyph-name="scedilla" unicode="&#x15f;" horiz-adv-x="872"
d="M471 842q-135 0 -135 -99q0 -41 30.5 -63.5t79 -40.5t106.5 -37.5t116 -58.5q136 -92 135 -248q0 -129 -77 -218t-212 -108v-47q75 -11 101 -65t26 -97q0 -80 -58.5 -137t-164.5 -57q-158 0 -158 37q0 8 4 24l15 78l2 8q2 8 10 8t33.5 -7t57.5 -7t50.5 16.5t18.5 42.5
t-29 36t-51.5 10t-26.5 5t-4 16v17q0 17 2 27l4 98q-96 15 -187 52.5t-91 70.5q0 4 4 12.5t6 14.5l45 117q8 18 13 18t34 -14.5t109 -45t142 -30.5q136 0 136 102q0 45 -34 71t-84 45.5t-108.5 38.5t-107.5 52q-123 83 -123 230t100 242.5t263 95.5q95 0 174.5 -24t112 -41
t32.5 -36q0 -11 -10 -26l-47 -113q-8 -19 -13 -19t-67 27t-174 27z" />
    <glyph glyph-name="Scaron" unicode="&#x160;" horiz-adv-x="985"
d="M383 1179.5q-57 -37.5 -57 -109.5t40 -110t102 -70t136 -67t146 -89q172 -128 172 -328t-123.5 -320.5t-319.5 -120.5q-145 0 -286.5 48t-141.5 75q0 8 10 33l48 135q6 20 22 20q4 0 97 -45t233 -45q194 0 194 189q0 68 -35.5 109.5t-94 74.5t-134 64.5t-155.5 79.5
t-128.5 119t-48.5 190q0 215 128 320.5t323 105.5q136 0 231 -35t129.5 -56.5t34.5 -32.5t-10 -32l-68 -135q-10 -21 -18 -21t-32.5 14.5t-98 45.5t-155.5 31q-83 0 -140 -37.5zM199 1642q-27 11 -27 24t10 28l45 86q8 16 20 16t38 -12l207 -92l206 92q24 12 34 12t14 -2
t10 -14l45 -86q10 -15 10 -26t-8 -16t-19 -10l-264 -143q-18 -12 -28.5 -12t-28.5 12z" />
    <glyph glyph-name="scaron" unicode="&#x161;" horiz-adv-x="872"
d="M471 842q-135 0 -135 -99q0 -41 30.5 -63.5t79 -40.5t106.5 -37.5t116 -58.5q136 -92 135 -241q0 -149 -94 -243t-256 -94q-110 0 -247.5 46t-137.5 87q0 4 4 12.5t6 14.5l45 117q8 18 13 18t34 -14.5t109 -45t142 -30.5q136 0 136 102q0 45 -34 71t-84 45.5t-108.5 38.5
t-107.5 52q-123 83 -123 230t100 242.5t263 95.5q95 0 174.5 -24t112 -41t32.5 -36q0 -11 -10 -26l-47 -113q-8 -19 -13 -19t-67 27t-174 27zM450.5 1126q-8.5 0 -15.5 6.5t-13 10.5l-262 192q-25 19 -25 32q0 14 12 26l48 65q21 27 29 27t14 -4t14 -8l199 -119l198 119
q8 4 14.5 8t14.5 4t29 -27l47 -65q12 -12 12 -27t-25 -31l-262 -192q-6 -4 -13 -10.5t-15.5 -6.5z" />
    <glyph glyph-name="Tcommaaccent" unicode="&#x162;" horiz-adv-x="909"
d="M584 43q0 -29 -8.5 -36t-34.5 -7h-191q-27 0 -35 7t-8 36v1114h-268q-23 0 -29 6t-6 29v176q0 23 6 29t29 6h844q31 0 41 -4t10 -18t-6 -29l-43 -162q-6 -25 -20.5 -29t-26.5 -4h-254v-1114zM477 -436q-8 0 -24 4l-95 20q-16 4 -26 8.5t-10 18.5t2 23l47 249q4 23 7 30
t18 7t24 -2l135 -33q35 -7 35 -24q0 -11 -6 -29l-80 -239q-10 -33 -27 -33z" />
    <glyph glyph-name="tcommaaccent" unicode="&#x163;" horiz-adv-x="757"
d="M694 1012q35 0 35 -18q0 -12 -2 -21l-27 -121q-4 -23 -11 -27t-25 -4h-203v-495q0 -64 10.5 -94.5t64.5 -30.5q55 0 94.5 19.5t56.5 19.5t22 -13l41 -168q2 -8 3 -10t1 -6q0 -44 -119 -61t-193 -17t-129 35t-79.5 92.5t-28.5 127t-4 140.5v461h-146q-18 0 -23 6.5
t-5 22.5v133q0 16 5 22.5t23 6.5h146v258q0 20 5 26.5t27 10.5l181 24l26 2q14 0 17.5 -8t3.5 -27v-286h233zM449 -436q-8 0 -25 4l-94 20q-16 4 -26.5 8.5t-10.5 18.5t2 23l47 249q4 23 7 30t19 7t23 -2l135 -33q35 -7 35 -24q0 -11 -6 -29l-80 -239q-10 -33 -26 -33z" />
    <glyph glyph-name="Tcaron" unicode="&#x164;" horiz-adv-x="909"
d="M584 43q0 -29 -8.5 -36t-34.5 -7h-191q-27 0 -35 7t-8 36v1114h-268q-23 0 -29 6t-6 29v176q0 23 6 29t29 6h844q31 0 41 -4t10 -18t-6 -29l-43 -162q-6 -25 -20.5 -29t-26.5 -4h-254v-1114zM450.5 1487q-10.5 0 -28.5 12l-264 143q-27 11 -27 24t10 28l45 86q8 16 21 16
t37 -12l207 -92l206 92q25 12 35 12t13.5 -2t9.5 -14l45 -86q10 -15 10 -26t-8 -16t-19 -10l-264 -143q-18 -12 -28.5 -12z" />
    <glyph glyph-name="tcaron" unicode="&#x165;" horiz-adv-x="757"
d="M694 1012q35 0 35 -18q0 -12 -2 -21l-27 -121q-4 -23 -11 -27t-25 -4h-203v-495q0 -64 10.5 -94.5t64.5 -30.5q55 0 94.5 19.5t56.5 19.5t22 -13l41 -168q2 -8 3 -10t1 -6q0 -44 -119 -61t-193 -17t-129 35t-79.5 92.5t-28.5 127t-4 140.5v461h-146q-18 0 -23 6.5
t-5 22.5v133q0 16 5 22.5t23 6.5h146v258q0 20 5 26.5t27 10.5l181 24l26 2q14 0 17.5 -8t3.5 -27v-286h233zM601 1483q15 0 24 -2l135 -33q35 -7 35 -25q0 -11 -7 -28l-102 -303q-10 -33 -27 -33q-8 0 -24 4l-84 18q-10 4 -23.5 7.5t-13.5 19.5l61 338q4 23 7.5 30t18.5 7z
" />
    <glyph glyph-name="Umacron" unicode="&#x16a;" horiz-adv-x="1290"
d="M1139 475q0 -250 -110.5 -380t-446 -130t-383 197.5t-47.5 312.5v885q0 29 8 36t35 7h190q27 0 35 -7t8 -36v-885q0 -142 26.5 -190.5t69.5 -73.5t150.5 -25t147.5 73.5t40 215.5v885q0 29 8.5 36t34.5 7h191q27 0 35 -7t8 -36v-885zM928 1571q0 -29 -7.5 -38t-39.5 -9
h-475q-29 0 -38.5 9t-9.5 38v96q0 33 9.5 40t38.5 7h475q33 0 40 -8t7 -39v-96z" />
    <glyph glyph-name="umacron" unicode="&#x16b;" horiz-adv-x="1099"
d="M952 1004v-639q0 -227 19.5 -264.5t19.5 -54.5t-22 -23l-156 -52q-19 -6 -35 -6q-30 0 -61 121q-134 -121 -312 -121t-223 103.5t-45 195.5v705q0 23 10.5 27.5t28.5 9.5l172 34l33 7q10 0 13 -8.5t3 -34.5v-652q0 -78 24 -125t91 -47q95 0 180 64v725q0 23 10.5 27.5
t28.5 9.5l207 41q14 0 14 -43zM846 1243q0 -29 -7.5 -38t-39.5 -9h-475q-29 0 -38.5 9t-9.5 38v96q0 33 9.5 40t38.5 7h475q33 0 40 -8t7 -39v-96z" />
    <glyph glyph-name="Uring" unicode="&#x16e;" horiz-adv-x="1290"
d="M1139 475q0 -250 -110.5 -380t-446 -130t-383 197.5t-47.5 312.5v885q0 29 8 36t35 7h190q27 0 35 -7t8 -36v-885q0 -142 26.5 -190.5t69.5 -73.5t150.5 -25t147.5 73.5t40 215.5v885q0 29 8.5 36t34.5 7h191q27 0 35 -7t8 -36v-885zM838 1638q0 -41 -15.5 -75.5t-42 -60
t-61.5 -41t-74 -15.5t-73.5 15.5t-61.5 41t-42 60t-15 75.5t15 76t42 61.5t61.5 41t73.5 14.5t74 -14.5t61.5 -41t42 -61.5t15.5 -76zM647 1561q33 0 55.5 21.5t22.5 56t-22.5 57t-56.5 22.5t-56.5 -22.5t-22.5 -57t23.5 -56t56.5 -21.5z" />
    <glyph glyph-name="uring" unicode="&#x16f;" horiz-adv-x="1099"
d="M952 1004v-639q0 -227 19.5 -264.5t19.5 -54.5t-22 -23l-156 -52q-19 -6 -35 -6q-30 0 -61 121q-134 -121 -312 -121t-223 103.5t-45 195.5v705q0 23 10.5 27.5t28.5 9.5l172 34l33 7q10 0 13 -8.5t3 -34.5v-652q0 -78 24 -125t91 -47q95 0 180 64v725q0 23 10.5 27.5
t28.5 9.5l207 41q14 0 14 -43zM774 1313q0 -45 -17.5 -84t-46 -67.5t-68.5 -45t-83 -16.5t-82 16.5t-68.5 45t-46 67.5t-16.5 84t16.5 84t46 68.5t68.5 46t82 16.5t83 -16.5t68.5 -46t46 -68.5t17.5 -84zM560 1227q36 0 61.5 24.5t25.5 61.5t-25.5 62.5t-61.5 25.5
t-61.5 -24.5t-25.5 -62.5t25.5 -62.5t61.5 -24.5z" />
    <glyph glyph-name="Uhungarumlaut" unicode="&#x170;" horiz-adv-x="1290"
d="M1139 475q0 -250 -110.5 -380t-446 -130t-383 197.5t-47.5 312.5v885q0 29 8 36t35 7h190q27 0 35 -7t8 -36v-885q0 -142 26.5 -190.5t69.5 -73.5t150.5 -25t147.5 73.5t40 215.5v885q0 29 8.5 36t34.5 7h191q27 0 35 -7t8 -36v-885zM594 1796q10 0 15 -4t14 -20l63 -119
q12 -17 12 -31t-30 -27l-250 -100q-20 -8 -35 -8q-16 0 -27 22l-32 68q-15 30 -8.5 38.5t20.5 18.5l227 148q21 14 31 14zM739 1577q-10 20 -10 31t23 26l227 148q21 14 31 14t15 -4t13 -20l64 -119q12 -17 12 -31t-31 -27l-249 -100q-20 -8 -36 -8q-15 0 -26 22z" />
    <glyph glyph-name="uhungarumlaut" unicode="&#x171;" horiz-adv-x="1099"
d="M952 1004v-639q0 -227 19.5 -264.5t19.5 -54.5t-22 -23l-156 -52q-19 -6 -35 -6q-30 0 -61 121q-134 -121 -312 -121t-223 103.5t-45 195.5v705q0 23 10.5 27.5t28.5 9.5l172 34l33 7q10 0 13 -8.5t3 -34.5v-652q0 -78 24 -125t91 -47q95 0 180 64v725q0 23 10.5 27.5
t28.5 9.5l207 41q14 0 14 -43zM496 1487q12 0 30 -19l88 -96q20 -20 21 -32t-23 -27l-217 -168q-20 -18 -30.5 -18.5t-28.5 20.5l-53 57q-21 20 -21 32t17 28l188 200q17 23 29 23zM629 1236q0 12 16 28l189 200q18 23 29 23t30 -19l88 -96q20 -20 20 -31t-22 -28l-217 -168
q-20 -18 -30.5 -18.5t-29.5 20.5l-53 57q-20 20 -20 32z" />
    <glyph glyph-name="Uogonek" unicode="&#x172;" horiz-adv-x="1290"
d="M672 -177q0 -65 72 -65q32 0 58 18.5t38 18.5t16 -14l33 -92q2 -6 4 -11.5t2 -13.5q0 -18 -64.5 -41.5t-144.5 -23.5t-144.5 46t-64.5 140t84 184q-328 27 -368.5 213.5t-40.5 292.5v885q0 29 8 36t35 7h190q27 0 35 -7t8 -36v-885q0 -142 26.5 -190.5t69.5 -73.5
t150.5 -25t147.5 73.5t40 215.5v885q0 29 8.5 36t34.5 7h191q27 0 35 -7t8 -36v-885q0 -316 -121 -397.5t-219 -100.5q-59 -11 -93 -65.5t-34 -88.5z" />
    <glyph glyph-name="uogonek" unicode="&#x173;" horiz-adv-x="1099"
d="M952 1004v-639q0 -227 19.5 -264.5t19.5 -54.5t-22 -23q-61 -22 -115.5 -85t-54.5 -122q0 -27 20.5 -42.5t52.5 -15.5t58 18.5t38 18.5t15 -14l33 -92q2 -6 4 -11.5t2 -13.5q0 -18 -64 -41.5t-145 -23.5q-80 0 -144.5 46t-64.5 141t56.5 156.5t74.5 84.5q-8 23 -18 59
q-134 -121 -312 -121t-223 103.5t-45 195.5v705q0 23 10.5 27.5t28.5 9.5l172 34l33 7q10 0 13 -8.5t3 -34.5v-652q0 -78 24 -125t91 -47q95 0 180 64v725q0 23 10.5 27.5t28.5 9.5l207 41q14 0 14 -43z" />
    <glyph glyph-name="Ydieresis" unicode="&#x178;" horiz-adv-x="1062"
d="M672 43q0 -29 -8.5 -36t-34.5 -7h-191q-27 0 -35 7t-8 36v532l-385 746q-14 25 -14 42t43 23l205 33q10 2 11 2h11q18 0 31 -26l166 -351q53 -123 82 -223h4q47 155 90 240l152 319q14 31 20 36t15 5t30 -4l174 -37q37 -11 37 -26q0 -6 -4 -13.5t-10 -19.5l-381 -746
v-532zM492 1632.5q0 -59.5 -43 -101.5t-102.5 -42t-101.5 42t-42 101.5t42 102.5t101.5 43t102.5 -43t43 -102.5zM893 1632.5q0 -59.5 -43 -101.5t-102.5 -42t-101.5 42t-42 101.5t42 102.5t101.5 43t102.5 -43t43 -102.5z" />
    <glyph glyph-name="Zacute" unicode="&#x179;" horiz-adv-x="1024"
d="M920 0h-822q-23 0 -29 6t-6 29v170l551 952h-503q-29 0 -29 25v6q0 6 4 18l41 160q6 23 12 30t33 7h705q29 0 36 -7t7 -34v-184l-547 -932h590q29 -6 28 -25q0 -4 -4 -24l-22 -160q-4 -27 -11.5 -32t-33.5 -5zM352 1487q-10 0 -20 33l-23 69q-6 18 -6 30t31 23l360 146
q6 2 12.5 5t12.5 3q18 0 29 -33l45 -133q6 -18 6 -30t-11.5 -14.5t-25.5 -6.5l-379 -88q-16 -4 -31 -4z" />
    <glyph glyph-name="zacute" unicode="&#x17a;" horiz-adv-x="872"
d="M809 215q39 0 39 -20q0 -8 -3 -13.5t-5 -9.5l-60 -145q-4 -12 -13 -19.5t-15 -7.5h-682q-20 0 -21 20v154l471 623h-414q-14 0 -14 26v160q0 29 29 29h649q35 0 35 -21v-160l-463 -616h467zM298 1126q-10 0 -16 8.5t-12 20.5l-34 74q-11 16 -11 27t7.5 16.5t19.5 13.5
l338 189q18 12 28 12t16.5 -9.5t12.5 -19.5l62 -125q10 -15 10 -27q0 -18 -33 -28l-360 -143q-18 -9 -28 -9z" />
    <glyph glyph-name="Zdotaccent" unicode="&#x17b;" horiz-adv-x="1024"
d="M920 0h-822q-23 0 -29 6t-6 29v170l551 952h-503q-29 0 -29 25v6q0 6 4 18l41 160q6 23 12 30t33 7h705q29 0 36 -7t7 -34v-184l-547 -932h590q29 -6 28 -25q0 -4 -4 -24l-22 -160q-4 -27 -11.5 -32t-33.5 -5zM527 1487q-67 0 -112.5 46t-45.5 113t46 112.5t111.5 45.5
t112.5 -46.5t47 -113.5t-46 -112t-113 -45z" />
    <glyph glyph-name="zdotaccent" unicode="&#x17c;" horiz-adv-x="872"
d="M809 215q39 0 39 -20q0 -8 -3 -13.5t-5 -9.5l-60 -145q-4 -12 -13 -19.5t-15 -7.5h-682q-20 0 -21 20v154l471 623h-414q-14 0 -14 26v160q0 29 29 29h649q35 0 35 -21v-160l-463 -616h467zM441 1137q-67 0 -112.5 46.5t-45.5 112.5t46 112t111.5 46t112.5 -47t47 -113
t-46 -111.5t-113 -45.5z" />
    <glyph glyph-name="Zcaron" unicode="&#x17d;" horiz-adv-x="1024"
d="M920 0h-822q-23 0 -29 6t-6 29v170l551 952h-503q-29 0 -29 25v6q0 6 4 18l41 160q6 23 12 30t33 7h705q29 0 36 -7t7 -34v-184l-547 -932h590q29 -6 28 -25q0 -4 -4 -24l-22 -160q-4 -27 -11.5 -32t-33.5 -5zM229 1642q-26 10 -26 24q0 13 10 28l45 86q8 16 20 16
t37 -12l207 -92l207 92q25 12 35 12t13 -2t9 -14l45 -86q11 -16 11 -27q0 -10 -8.5 -15t-18.5 -10l-264 -143q-18 -12 -28.5 -12t-28.5 12z" />
    <glyph glyph-name="zcaron" unicode="&#x17e;" horiz-adv-x="872"
d="M809 215q39 0 39 -20q0 -8 -3 -13.5t-5 -9.5l-60 -145q-4 -12 -13 -19.5t-15 -7.5h-682q-20 0 -21 20v154l471 623h-414q-14 0 -14 26v160q0 29 29 29h649q35 0 35 -21v-160l-463 -616h467zM446.5 1126q-8.5 0 -15.5 6.5t-13 10.5l-262 192q-25 19 -25 32q0 14 12 26
l47 65q21 27 29 27t14.5 -4t14.5 -8l198 -119l199 119q8 4 14.5 8t14.5 4t28 -27l48 -65q12 -11 12 -25t-8.5 -20.5t-16.5 -12.5l-262 -192q-6 -4 -13 -10.5t-15.5 -6.5z" />
    <glyph glyph-name="florin" unicode="&#x192;"
d="M922 1012q41 0 41 -25q0 -8 -5 -24l-32 -107q-10 -35 -45 -35h-211l-164 -831q-8 -41 -24.5 -108.5t-89.5 -181.5t-290 -114q-103 0 -137.5 12.5t-34.5 19.5q0 17 7 26l40 143q2 12 17 12l82 -8q139 0 159.5 94.5t28.5 134.5l160 801h-125q-41 0 -41 25q0 14 2 22l19 105
q4 23 14 31t31 8h141l29 129q10 45 24 102t74 141t260 84q130 0 167.5 -22.5t37.5 -32.5l-4 -20l-45 -133q-2 -4 -5.5 -12.5t-12.5 -8.5t-44 16.5t-80 16.5t-70.5 -19.5t-40 -46t-19.5 -56.5t-9 -50l-16 -88h211z" />
    <glyph glyph-name="Scommaaccent" unicode="&#x218;" horiz-adv-x="985"
d="M383 1179.5q-57 -37.5 -57 -109.5t40 -110t102 -70t136 -67t146 -89q172 -128 172 -328t-123.5 -320.5t-319.5 -120.5q-145 0 -286.5 48t-141.5 75q0 8 10 33l48 135q6 20 22 20q4 0 97 -45t233 -45q194 0 194 189q0 68 -35.5 109.5t-94 74.5t-134 64.5t-155.5 79.5
t-128.5 119t-48.5 190q0 215 128 320.5t323 105.5q136 0 231 -35t129.5 -56.5t34.5 -32.5t-10 -32l-68 -135q-10 -21 -18 -21t-32.5 14.5t-98 45.5t-155.5 31q-83 0 -140 -37.5zM494 -436q-8 0 -25 4l-94 20q-16 4 -26.5 8.5t-10.5 18.5t2 23l47 249q4 23 6.5 30t18.5 7
t24 -2l135 -33q35 -7 35 -24q0 -11 -6 -29l-80 -239q-10 -33 -26 -33z" />
    <glyph glyph-name="scommaaccent" unicode="&#x219;" horiz-adv-x="872"
d="M471 842q-135 0 -135 -99q0 -41 30.5 -63.5t79 -40.5t106.5 -37.5t116 -58.5q136 -92 135 -241q0 -149 -94 -243t-256 -94q-110 0 -247.5 46t-137.5 87q0 4 4 12.5t6 14.5l45 117q8 18 13 18t34 -14.5t109 -45t142 -30.5q136 0 136 102q0 45 -34 71t-84 45.5t-108.5 38.5
t-107.5 52q-123 83 -123 230t100 242.5t263 95.5q95 0 174.5 -24t112 -41t32.5 -36q0 -11 -10 -26l-47 -113q-8 -19 -13 -19t-67 27t-174 27zM471 -436q-8 0 -25 4l-94 20q-16 4 -26.5 8.5t-10.5 18.5t2 23l48 249q4 23 7 30t18 7t24 -2l135 -33q35 -7 35 -24q0 -11 -6 -29
l-80 -239q-10 -33 -27 -33z" />
    <glyph glyph-name="circumflex" unicode="&#x2c6;" horiz-adv-x="686"
d="M635 1276q24 -18 24 -32t-12 -25l-47 -66q-14 -18 -18 -22.5t-12 -4.5t-13.5 4.5t-13.5 8.5l-199 118l-199 -118q-8 -4 -14 -8.5t-14 -4.5t-29 27l-47 66q-12 12 -12 25t8 19.5t16 12.5l262 192q6 4 13.5 10.5t16 6.5t28.5 -17z" />
    <glyph glyph-name="caron" unicode="&#x2c7;" horiz-adv-x="686"
d="M344 1126q-8 0 -15 6.5t-14 10.5l-262 192q-24 18 -24 32t12 26l47 65q21 27 29 27t14 -4t14 -8l199 -119l199 119q8 4 14 8t15 4t28 -27l47 -65q12 -11 12 -25t-8 -20.5t-16 -12.5l-262 -192q-6 -4 -13.5 -10.5t-15.5 -6.5z" />
    <glyph glyph-name="breve" unicode="&#x2d8;" horiz-adv-x="686"
d="M344 1147q-108 0 -202.5 67t-110 113.5t-15.5 57t15 18.5l90 49q12 6 20 6t25.5 -18.5t42 -42t58.5 -42t77 -18.5t77 18.5t58.5 42t41 42t25.5 18.5t21 -6l90 -49q24 -14 11 -39q-27 -83 -121.5 -150t-202.5 -67z" />
    <glyph glyph-name="dotaccent" unicode="&#x2d9;" horiz-adv-x="686"
d="M345 1137q-67 0 -113 46.5t-46 112.5t46.5 112t112 46t112.5 -47t47 -113t-46 -111.5t-113 -45.5z" />
    <glyph glyph-name="ring" unicode="&#x2da;" horiz-adv-x="686"
d="M559 1313q0 -45 -17.5 -84t-46 -67.5t-68.5 -45t-83 -16.5t-82 16.5t-68.5 45t-46 67.5t-16.5 84t16.5 84t46 68.5t68.5 46t82 16.5t83 -16.5t68.5 -46t46 -68.5t17.5 -84zM345 1227q36 0 61.5 24.5t25.5 61.5t-25.5 62.5t-61.5 25.5t-61.5 -24.5t-25.5 -62.5t25.5 -62.5
t61.5 -24.5z" />
    <glyph glyph-name="ogonek" unicode="&#x2db;" horiz-adv-x="686"
d="M549 -336q0 -18 -64.5 -41.5t-144.5 -23.5t-144.5 46t-64.5 141t62.5 162.5t78.5 92.5l181 -16q-91 -102 -109 -141.5t-18 -67.5t20 -43t52 -15t58 18.5t38 18.5t16 -14l33 -92q2 -6 4 -11.5t2 -13.5z" />
    <glyph glyph-name="tilde" unicode="&#x2dc;" horiz-adv-x="686"
d="M458 1155q-48 0 -77 12.5t-51.5 25.5t-43 25.5t-44.5 12.5t-39 -12.5t-25 -26.5t-17 -26.5t-17 -12.5t-17 6l-100 60q-16 6 -17 18q0 2 12.5 34t61.5 99.5t147 67.5q54 0 105 -26t72.5 -38t43.5 -12t36 12t23 26.5t16.5 27t15.5 12.5t16 -4l100 -60q17 -8 17 -16
t-13.5 -40t-42 -69t-71.5 -66.5t-91 -29.5z" />
    <glyph glyph-name="hungarumlaut" unicode="&#x2dd;" horiz-adv-x="686"
d="M84 1236q0 12 16 28l189 200q18 23 29 23t30 -19l88 -96q20 -20 21 -31t-23 -28l-217 -168q-20 -18 -30.5 -18.5t-28.5 20.5l-54 57q-20 20 -20 32zM451 1236q0 12 16 28l188 200q17 23 29 23t31 -19l88 -96q20 -20 20 -31t-22 -28l-217 -168q-20 -18 -30.5 -18.5
t-29.5 20.5l-53 57q-20 20 -20 32z" />
    <glyph glyph-name="endash" unicode="&#x2013;"
d="M1055 449q0 -29 -7.5 -36t-35.5 -7h-883q-29 0 -36 7t-7 36v149q0 29 7 36t36 7h883q29 0 36 -7t7 -36v-149z" />
    <glyph glyph-name="emdash" unicode="&#x2014;" horiz-adv-x="2048"
d="M1962 449q0 -29 -7 -36t-36 -7h-1790q-29 0 -36 7t-7 36v149q0 29 7 36t36 7h1790q29 0 36 -7t7 -36v-149z" />
    <glyph glyph-name="quoteleft" unicode="&#x2018;" horiz-adv-x="454"
d="M55 930q-41 0 -41 18q0 26 11 35l243 457q17 28 27 28t15 -2t12 -4l77 -26q33 -11 33 -24t-6 -30l-127 -417q-10 -35 -45 -35h-199z" />
    <glyph glyph-name="quoteright" unicode="&#x2019;" horiz-adv-x="454"
d="M399 1468q41 0 41 -18q0 -25 -10 -35l-244 -457q-17 -28 -26 -28q-10 0 -15.5 2t-11.5 4l-78 27q-32 11 -32 24q0 14 6 29l127 418q10 35 45 34h198z" />
    <glyph glyph-name="quotesinglbase" unicode="&#x201a;" horiz-adv-x="454"
d="M373 256q41 0 41 -18q0 -26 -11 -35l-243 -457q-17 -29 -27 -29t-27 7l-77 26q-33 10 -33 24t6 29l127 418q10 35 45 35h199z" />
    <glyph glyph-name="quotedblleft" unicode="&#x201c;" horiz-adv-x="1024"
d="M551 930q-41 0 -41 18q0 25 10 35l244 457q6 10 12 19t16 9t14.5 -2t10.5 -4l78 -26q33 -11 33 -24t-6 -30l-127 -417q-10 -35 -45 -35h-199zM137 930q-41 0 -41 18q0 25 10 35l244 457q17 28 27 28t15 -2t11 -4l78 -26q33 -11 33 -24t-6 -30l-127 -417q-10 -35 -45 -35
h-199z" />
    <glyph glyph-name="quotedblright" unicode="&#x201d;" horiz-adv-x="1024"
d="M473 1468q41 0 41 -18q0 -25 -10 -35l-244 -457q-6 -10 -12 -19t-16 -9t-14.5 2t-10.5 4l-78 27q-33 11 -33 25t6 28l127 418q10 35 45 34h199zM887 1468q41 0 41 -18q0 -25 -10 -35l-244 -457q-17 -28 -27 -28t-15 2t-11 4l-78 27q-33 11 -33 25t6 28l127 418
q10 35 45 34h199z" />
    <glyph glyph-name="quotedblbase" unicode="&#x201e;" horiz-adv-x="1024"
d="M481 256q41 0 41 -18q0 -24 -10 -35l-244 -457q-6 -10 -12 -19.5t-16 -9.5t-25 7l-78 26q-33 11 -33 25t7 28l127 418q10 35 45 35h198zM895 256q41 0 41 -18q0 -24 -10 -35l-244 -457q-6 -10 -12 -19.5t-16 -9.5t-25 7l-78 26q-33 10 -33 24t6 29l127 418q10 35 45 35
h199z" />
    <glyph glyph-name="dagger" unicode="&#x2020;"
d="M682 -391q0 -27 -7 -35t-36 -8h-139q-29 0 -36 7t-7 36v1169h-240q-29 0 -36 8.5t-7 34.5v113q0 27 8 34t37 7h238v387q0 27 7 34t34 7h143q27 0 34 -7t7 -34v-387h240q27 0 35 -7t8 -34v-113q0 -27 -8.5 -35t-34.5 -8h-240v-1169z" />
    <glyph glyph-name="daggerdbl" unicode="&#x2021;"
d="M682 -391q0 -27 -7 -35t-36 -8h-139q-29 0 -36 7t-7 36v391h-240q-29 0 -36 8t-7 35v113q0 27 8 34t37 7h238v581h-240q-29 0 -36 8.5t-7 34.5v113q0 27 8 34t37 7h238v387q0 27 7 34t34 7h143q27 0 34 -7t7 -34v-387h240q27 0 35 -7t8 -34v-113q0 -27 -8.5 -35t-34.5 -8
h-240v-581h240q27 0 35 -7.5t8 -33.5v-113q0 -27 -8.5 -35t-34.5 -8h-240v-391z" />
    <glyph glyph-name="bullet" unicode="&#x2022;" horiz-adv-x="1024"
d="M250 476q-109 107 -109 262t110 263.5t262 108.5t261 -110.5t109 -262t-108.5 -260t-261.5 -108.5q-154 0 -263 107z" />
    <glyph glyph-name="ellipsis" unicode="&#x2026;" horiz-adv-x="2048"
d="M526 184q0 -78 -54 -131t-131 -53t-130 53t-53 130t53 131.5t130 54.5t131 -53.5t54 -131.5zM1890 184q0 -78 -54 -131t-131 -53t-130 53t-53 130t53 131.5t130 54.5t131 -53.5t54 -131.5zM1208 184q0 -78 -54 -131t-131 -53t-130 53t-53 130t53 131.5t130 54.5
t131 -53.5t54 -131.5z" />
    <glyph glyph-name="perthousand" unicode="&#x2030;" horiz-adv-x="2426"
d="M1294.5 119q57.5 0 79 51t21.5 148q0 96 -18.5 155t-82.5 59q-87 0 -93.5 -81.5t-6.5 -124.5t3 -81t21.5 -82t76 -44zM1599 325.5q0 -161.5 -78.5 -261t-226 -99.5t-226.5 98.5t-79 261.5t79 262t226.5 99t226 -99.5t78.5 -261zM1167 1403q39 1 39 -21q0 -14 -6 -32
l-483 -1350q-12 -35 -47 -35h-105q-43 1 -43 15t8 34l486 1356q11 33 47 33h104zM713 1007.5q0 -161.5 -79 -261t-226.5 -99.5t-226.5 98.5t-79 261.5t79 262t226.5 99t226.5 -99.5t79 -261zM407.5 801q57.5 0 79 51t21.5 148q0 96 -18.5 155t-81.5 59q-88 0 -94.5 -81.5
t-6.5 -124.5t3 -81t21.5 -82t76 -44zM2329 325.5q0 -161.5 -79 -261t-226.5 -99.5t-226.5 98.5t-79 261.5t79 262t226.5 99t226.5 -99.5t79 -261zM2023.5 119q57.5 0 79 51t21.5 148q0 96 -18.5 155t-82.5 59q-87 0 -93.5 -81.5t-6.5 -124.5t3 -81t21.5 -82t76 -44z" />
    <glyph glyph-name="guilsinglleft" unicode="&#x2039;" horiz-adv-x="757"
d="M461 0q-10 0 -29 25l-346 458q-12 16 -12 28.5t12 29.5l346 448q18 23 30 23t27 -13l103 -63q38 -22 27 -37.5t-15 -21.5l-254 -377l254 -365q4 -8 8 -14.5t4 -18.5t-24 -26l-103 -64q-18 -12 -28 -12z" />
    <glyph glyph-name="guilsinglright" unicode="&#x203a;" horiz-adv-x="757"
d="M326 25q-18 -25 -29 -25t-29 12l-102 64q-25 14 -25 26t4.5 18.5t8.5 14.5l254 365l-254 377q-4 6 -9.5 13t-5.5 18t27 28l102 63q19 13 29 13t29 -23l346 -448q12 -16 12 -28.5t-12 -29.5z" />
    <glyph glyph-name="fraction" unicode="&#x2044;" horiz-adv-x="471"
d="M532 1403q39 1 39 -21q0 -14 -6 -32l-483 -1350q-12 -35 -47 -35h-105q-43 1 -43 15t9 34l485 1356q11 33 47 33h104z" />
    <glyph glyph-name="Euro" unicode="&#x20ac;"
d="M1051 1092q-91 90 -301 90q-124 0 -199.5 -63.5t-97.5 -184.5h532l-65 -186h-494q-2 -10 -2 -14v-48q0 -45 2 -55h451l-66 -187h-358q43 -256 313 -256q184 0 285 88v-241q-29 -23 -110 -45.5t-210 -22.5q-447 0 -526 477h-166l65 187h80q-2 10 -2 13v48q0 45 2 56h-145
l65 186h99q57 336 233 402.5t294 66.5t202 -24.5t119 -47.5v-239z" />
    <glyph glyph-name="trademark" unicode="&#x2122;" horiz-adv-x="1441"
d="M391 809h-88v508h-149v86h389v-86h-152v-508zM1182 809h-88v537h-4l-140 -537h-108l-140 537h-4v-537h-88v594h160l123 -467h4l121 467h164v-594z" />
    <glyph glyph-name="partialdiff" unicode="&#x2202;" horiz-adv-x="1011"
d="M919 545.5q-27 -162.5 -73 -264.5q-47 -103 -89.5 -165.5t-112.5 -100.5q-116 -64 -261 -55.5t-231 126.5t-94 206q-21 220 117 393q138 174 283 145t201 -68t107 -78q41 228 9.5 370t-46.5 178q-36 82 -93 135.5t-127 59.5q-70 7 -104 5t-62 -10.5t-56.5 -23
t-73.5 -32.5l-80 102q217 84 371 48q94 -23 182 -84.5t154 -176.5t86 -237t20 -216t-27 -256.5zM229 330q0 -102 18.5 -173.5t68.5 -104.5q51 -34 92 -35t92 22q98 44 161 196q62 151 89 377q-16 18 -62.5 74.5t-161.5 54.5t-185 -98q-112 -154 -112 -313z" />
    <glyph glyph-name="Delta" unicode="&#x2206;" horiz-adv-x="1253"
d="M1245 0h-1233l656 1409zM147 100h844l-397 959z" />
    <glyph glyph-name="summation" unicode="&#x2211;" horiz-adv-x="1460"
d="M246 1526h1018l12 -326h-41q-16 49 -29.5 92t-61.5 92.5t-222 49.5h-539l559 -734l-602 -694h760q118 0 171 47.5t105 184.5h47q-18 -78 -31.5 -130.5t-22.5 -99.5t-16 -99t-18 -130q-41 6 -79.5 14t-77.5 8h-1031q-31 0 -59.5 -3t-58.5 -3l714 815l-710 930
q185 -14 213 -14z" />
    <glyph glyph-name="minus" unicode="&#x2212;"
d="M1034 459q0 -23 -6 -29t-29 -6h-860q-23 0 -29 6t-6 29v135q0 23 7.5 29t27.5 6h860q23 0 29 -6.5t6 -28.5v-135z" />
    <glyph glyph-name="radical" unicode="&#x221a;" horiz-adv-x="1124"
d="M20 922l299 147l404 -825l260 1634l72 -10l-307 -1946l-498 1028l-197 -96z" />
    <glyph glyph-name="notequal" unicode="&#x2260;" horiz-adv-x="1124"
d="M1106 788v-112h-399l-160 -285h559v-112h-621l-184 -330l-100 57l151 273h-321v112h385l157 285h-542v112h606l186 336l101 -57l-156 -279h338z" />
    <glyph glyph-name="lessequal" unicode="&#x2264;" horiz-adv-x="1124"
d="M59 113h1018v-113h-1018v113zM59 838l1018 471v-127l-887 -408l887 -407v-127l-1018 471v127z" />
    <glyph glyph-name="greaterequal" unicode="&#x2265;" horiz-adv-x="1124"
d="M1077 0h-1018v113h1018v-113zM1077 711l-1018 -471v127l887 407l-887 408v127l1018 -471v-127z" />
    <glyph glyph-name="lozenge" unicode="&#x25ca;" horiz-adv-x="1011"
d="M434 0l-397 772l397 754h123l397 -754l-397 -772h-123zM496 1415l-336 -643l336 -661l335 661z" />
    <glyph glyph-name="commaaccent" unicode="&#xf6c3;" horiz-adv-x="454"
d="M219 -436q-8 0 -24 4l-95 20q-16 4 -26.5 8.5t-10.5 18.5t3 23l47 249q4 23 7 30t18 7t24 -2l135 -33q35 -7 35 -24q0 -11 -6 -29l-80 -239q-10 -33 -27 -33z" />
    <glyph glyph-name="fi" unicode="&#xfb01;" horiz-adv-x="1251"
d="M931 1145q-71 0 -120 49t-49 120.5t49 120t120 48.5t120 -48.5t49 -120t-49 -120.5t-120 -49zM219 1096q0 387 307 387q54 0 131.5 -21.5t77.5 -52.5q0 -6 -4 -18l-37 -144q-7 -20 -17 -20q-11 0 -36 17.5t-64 17.5q-64 0 -81 -38.5t-17 -127.5v-84h555q18 0 23.5 -6.5
t5.5 -22.5v-954q0 -16 -5 -22.5t-24 -6.5h-203q-18 0 -23 6t-5 23v792h-324v-778q0 -29 -8 -36t-35 -7h-174q-27 0 -35 7t-8 36v778h-145q-27 0 -35 7.5t-8 35.5v105q0 29 8 36t35 7h145v84z" />
    <glyph glyph-name="fl" unicode="&#xfb02;" horiz-adv-x="1290"
d="M686 1012q35 0 35 -21q0 -8 -4 -20l-29 -121q-4 -20 -13 -24.5t-26 -4.5h-170v-778q0 -29 -8 -36t-35 -7h-174q-27 0 -35 7t-8 36v778h-145q-27 0 -35 7.5t-8 35.5v105q0 29 8 36t35 7h145v84q0 387 307 387q54 0 131.5 -21.5t77.5 -52.5q0 -6 -4 -18l-37 -144
q-7 -20 -17 -20q-11 0 -36 17.5t-64 17.5q-64 0 -81 -38.5t-17 -127.5v-84h207zM1077 1440v-1116q0 -49 7.5 -86t44.5 -37t56 9t30 9t16 -12l41 -168q2 -8 3 -10t1 -9q0 -17 -65.5 -36t-150.5 -19t-136.5 35t-75 92.5t-27.5 127t-4 140.5v1045q0 23 10.5 28t28.5 9l201 41
q12 0 16 -8.5t4 -34.5z" />
    </font>
</defs>
</svg>
